# Blender v2.76 (sub 0) OBJ File: 'cracked_wall.blend'
# www.blender.org
mtllib cracked_wall.mtl
o Cube_Cube.001
v 0.555098 -0.053200 0.594028
v 0.555098 3.017796 0.594028
v 0.555098 -0.053200 5.784404
v 0.555098 3.017796 3.782876
v 0.147924 -0.053200 0.594028
v 0.147924 3.017796 0.594028
v 0.147924 -0.053200 5.784404
v 0.147924 3.017796 3.782876
v 0.555098 -0.000368 -3.891165
v 0.555098 3.009853 -2.993817
v 0.555098 -0.000368 -1.096935
v 0.555098 3.009853 -1.096935
v 0.147924 -0.000368 -3.891165
v 0.147924 3.009853 -2.993817
v 0.147924 -0.000368 -1.096935
v 0.147924 3.009853 -1.096935
v 0.555098 3.005697 -1.061467
v 0.555098 4.452008 -0.245994
v 0.555098 3.005697 1.872326
v 0.555098 4.452008 1.872326
v 0.147924 3.005697 -1.061467
v 0.147924 4.452008 -0.245994
v 0.147924 3.005697 1.872326
v 0.147924 4.452008 1.872326
v 0.555098 3.294959 -1.061467
v 0.555098 3.584222 -1.061467
v 0.555098 3.873484 -1.061467
v 0.555098 4.162746 -0.245994
v 0.555098 4.162746 1.872326
v 0.555098 3.873484 1.872326
v 0.555098 3.584222 1.872326
v 0.555098 3.294959 1.872326
v 0.147924 4.162746 1.872326
v 0.147924 3.873484 1.872326
v 0.147924 3.584222 1.872326
v 0.147924 3.294959 1.872326
v 0.147924 4.162746 -0.245994
v 0.147924 3.873484 -1.061467
v 0.147924 3.584222 -1.061467
v 0.147924 3.294959 -1.061467
v 0.555098 3.294959 3.205453
v 0.555098 3.005697 3.205453
v 0.147924 3.294959 3.205453
v 0.147924 3.005697 3.205453
v 0.555098 3.584222 2.719224
v 0.555098 3.294959 2.719224
v 0.147924 3.584222 2.719224
v 0.147924 3.294959 2.719224
v 0.555098 3.873484 2.473967
v 0.555098 3.584222 2.473967
v 0.147924 3.873484 2.473967
v 0.147924 3.584222 2.473967
v 0.555098 4.162746 2.320373
v 0.555098 3.873484 2.320373
v 0.147924 4.162746 2.320373
v 0.147924 3.873484 2.320373
v 0.555098 3.873484 -1.292055
v 0.555098 4.162746 -1.292055
v 0.147924 4.162746 -1.292055
v 0.147924 3.873484 -1.292055
v 0.555098 3.584222 -1.846128
v 0.555098 3.873484 -1.846128
v 0.147924 3.873484 -1.846128
v 0.147924 3.584222 -1.846128
v 0.555098 3.294959 -1.933756
v 0.555098 3.584222 -1.933756
v 0.147924 3.584222 -1.933756
v 0.147924 3.294959 -1.933756
v 0.147924 3.294959 -2.520626
v 0.147924 3.005697 -2.520626
v 0.555098 3.005697 -2.520626
v 0.555098 3.294959 -2.520626
v 0.555098 1.501683 -3.891165
v 0.555098 1.501683 -1.096935
v 0.147924 1.501683 -1.096935
v 0.147924 1.501683 -3.891165
v 0.555098 2.252708 -3.067245
v 0.555098 2.252708 -1.096935
v 0.147924 2.252708 -1.096935
v 0.147924 2.252708 -3.067245
v 0.555098 0.562351 0.594028
v 0.555098 1.177902 0.594028
v 0.555098 1.793453 0.594028
v 0.555098 2.409003 0.594028
v 0.555098 2.409003 3.782876
v 0.555098 1.793452 5.015148
v 0.555098 1.177902 5.015148
v 0.555098 0.562351 5.784404
v 0.147924 2.409003 3.782876
v 0.147924 1.793452 5.015148
v 0.147924 1.177902 5.015148
v 0.147924 0.562351 5.784404
v 0.147924 2.409003 0.594028
v 0.147924 1.793452 0.594028
v 0.147924 1.177902 0.594028
v 0.147924 0.562351 0.594028
vt 2.249629 0.926976
vt 1.381115 0.926976
vt 1.381115 0.806321
vt 2.249629 0.806321
vt 0.051091 1.169569
vt 0.124752 1.169569
vt 0.124752 1.281170
vt 0.051091 1.281170
vt 0.520404 0.092636
vt -0.348111 0.092637
vt -0.348111 -0.028018
vt 0.520404 -0.028018
vt 0.793917 1.166097
vt 0.867578 1.166097
vt 0.867578 1.277694
vt 0.793917 1.277694
vt 0.693779 1.201547
vt 0.693779 0.623811
vt 0.767440 0.623811
vt 0.767440 1.201547
vt 0.188283 0.897245
vt 0.693779 0.897245
vt 0.693779 1.169569
vt 0.188283 1.169569
vt 0.867578 0.994369
vt 0.941238 0.994369
vt 0.941238 1.266693
vt 0.867578 1.266693
vt 0.188283 0.896136
vt -0.317212 0.896136
vt -0.317212 0.623811
vt 0.188283 0.623811
vt 1.162221 0.720935
vt 1.235881 0.720935
vt 1.235881 0.993251
vt 1.162221 0.993251
vt 1.088560 1.064600
vt 1.088560 0.720935
vt 1.162220 1.064600
vt 1.380336 0.427517
vt 0.889420 0.427518
vt 0.889420 0.370819
vt 1.380336 0.370819
vt 1.486227 0.053160
vt 1.486227 -0.003539
vt 1.709301 -0.003539
vt 1.709301 0.053160
vt 0.995310 0.053160
vt 0.995310 -0.003539
vt 1.624500 0.370819
vt 1.624500 0.427517
vt 0.941238 1.252837
vt 0.941238 0.720935
vt 1.014899 0.720935
vt 1.014899 1.252837
vt 1.014899 1.104719
vt 1.088560 1.104719
vt 0.450391 1.243391
vt 0.450391 1.317212
vt 0.398063 1.317212
vt 0.398063 1.243391
vt -0.169891 1.169569
vt -0.096230 1.169569
vt -0.096230 1.311729
vt -0.169891 1.311729
vt 0.995310 0.109858
vt 0.849348 0.109858
vt 0.849348 0.053160
vt 1.486227 0.279953
vt 1.131764 0.279953
vt 1.131764 0.223255
vt 1.486227 0.223255
vt 0.995310 0.166557
vt 1.486227 0.166557
vt 1.486227 0.109858
vt 0.607382 1.169569
vt 0.607382 1.243391
vt 0.555052 1.243391
vt 0.555052 1.169569
vt 0.345734 1.250744
vt 0.272073 1.250744
vt 0.272073 1.169569
vt 0.345734 1.169569
vt 0.889420 0.484216
vt 0.889420 0.540914
vt 0.788746 0.540914
vt 0.788746 0.484216
vt 1.309542 1.259852
vt 1.235881 1.259852
vt 1.235881 1.106416
vt 1.309542 1.106416
vt 1.243882 0.654311
vt 0.889420 0.654311
vt 0.889420 0.597613
vt 1.243882 0.597613
vt 1.380336 0.540914
vt 1.380336 0.484216
vt 0.502723 1.243391
vt 0.502723 1.169569
vt 1.162220 1.306128
vt 1.088560 1.306128
vt 0.666345 0.427518
vt 0.666345 0.370819
vt 0.398063 1.169569
vt 0.345734 1.243391
vt 1.627940 0.053160
vt 1.627940 0.109858
vt 0.747707 0.484216
vt 0.747707 0.427518
vt 0.450393 1.169569
vt 0.272073 1.278571
vt 0.198412 1.278571
vt 0.198412 1.169569
vt 1.586900 0.109858
vt 1.586900 0.166556
vt 1.561199 0.166556
vt 1.561199 0.223255
vt 0.814447 0.597613
vt 0.814447 0.540914
vt 0.345734 1.317212
vt 0.956725 0.223255
vt 0.956725 0.166557
vt 1.088560 1.294238
vt 1.014899 1.294238
vt 1.418921 0.540914
vt 1.418921 0.597613
vt 0.502721 1.317212
vt 1.511635 0.484216
vt 1.511635 0.540914
vt 0.864011 0.166557
vt 0.864011 0.109858
vt 0.659710 1.169569
vt 0.659710 1.243391
vt 1.235881 0.948380
vt 1.309542 0.948380
vt 1.526298 0.427517
vt 1.526298 0.484216
vt 0.746107 1.201547
vt 0.746107 1.275368
vt 0.693779 1.275368
vt 0.751146 0.053160
vt 0.751146 -0.003538
vt 1.235881 1.257612
vt 1.162221 1.257612
vt -0.317212 1.169569
vt -0.243552 1.169569
vt -0.243552 1.313730
vt -0.317212 1.313730
vt 0.188283 1.032298
vt -0.168159 1.032298
vt 0.867578 0.858207
vt 0.941238 0.858207
vt 0.337336 0.761083
vt 0.693779 0.761083
vt 0.350620 0.623811
vt 0.867578 0.720935
vt -0.154876 1.169569
vt -0.022570 1.169569
vt -0.022570 1.306944
vt -0.096230 1.306944
vt 0.793917 0.720935
vt 0.867578 0.831307
vt 0.793917 0.831307
vt 0.867578 0.942903
vt 0.793917 0.942903
vt 0.867578 1.054500
vt 0.793917 1.054500
vt 0.185484 0.573929
vt -0.348111 0.573929
vt -0.348111 0.454599
vt 0.185484 0.454599
vt -0.348111 0.333945
vt 0.391683 0.333945
vt -0.348111 0.213291
vt 0.391683 0.213291
vt 0.198412 1.279945
vt 0.124752 1.279945
vt 1.309542 0.720935
vt -0.022570 1.281170
vt -0.169891 1.313128
vt -0.243552 1.313128
vt 2.249629 1.408268
vt 1.716034 1.408268
vt 1.716034 1.288938
vt 2.249629 1.288938
vt 1.509836 1.168284
vt 2.249629 1.168284
vt 1.509836 1.047630
vt 2.249629 1.047630
vn 1.000000 0.000000 0.000000
vn 0.000000 0.000000 1.000000
vn -1.000000 0.000000 0.000000
vn 0.000000 0.000000 -1.000000
vn 0.000000 1.000000 0.000000
vn 0.000000 -1.000000 0.000000
vn 0.000000 0.739000 -0.673700
vn 0.000000 0.096500 -0.995300
vn 0.000000 0.894600 0.446900
vn 0.000000 0.780800 0.624800
usemtl Material.001
s off
f 81/1/1 88/2/1 3/3/1 1/4/1
f 88/5/2 92/6/2 7/7/2 3/8/2
f 92/9/3 96/10/3 5/11/3 7/12/3
f 96/13/4 81/14/4 1/15/4 5/16/4
f 6/17/5 8/18/5 4/19/5 2/20/5
f 73/21/1 74/22/1 11/23/1 9/24/1
f 74/25/2 75/26/2 15/27/2 11/28/2
f 75/29/3 76/30/3 13/31/3 15/32/3
f 76/33/4 73/34/4 9/35/4 13/36/4
f 14/37/5 16/38/5 12/33/5 10/39/5
f 25/40/1 32/41/1 19/42/1 17/43/1
f 36/44/3 23/45/3 44/46/3 43/47/3
f 36/44/3 40/48/3 21/49/3 23/45/3
f 25/40/1 17/43/1 71/50/1 72/51/1
f 17/52/6 19/53/6 23/54/6 21/55/6
f 22/56/5 24/54/5 20/38/5 18/57/5
f 22/58/4 18/59/4 28/60/4 37/61/4
f 38/62/5 27/63/5 62/64/5 63/65/5
f 40/48/3 39/66/3 67/67/3 68/68/3
f 24/69/3 22/70/3 37/71/3 33/72/3
f 33/72/3 37/71/3 38/73/3 34/74/3
f 34/74/3 38/73/3 39/66/3 35/75/3
f 35/75/3 39/66/3 40/48/3 36/44/3
f 20/76/2 24/77/2 33/78/2 29/79/2
f 29/80/5 33/81/5 55/82/5 53/83/5
f 31/84/1 30/85/1 49/86/1 50/87/1
f 31/88/5 35/89/5 47/90/5 45/91/5
f 18/92/1 20/93/1 29/94/1 28/95/1
f 28/95/1 29/94/1 30/85/1 27/96/1
f 27/96/1 30/85/1 31/84/1 26/97/1
f 26/97/1 31/84/1 32/41/1 25/40/1
f 41/79/2 43/78/2 44/98/2 42/99/2
f 32/100/5 36/101/5 43/37/5 41/39/5
f 19/42/1 32/41/1 41/102/1 42/103/1
f 45/104/2 47/61/2 48/105/2 46/83/2
f 35/75/3 36/44/3 48/106/3 47/107/3
f 32/41/1 31/84/1 45/108/1 46/109/1
f 49/110/2 51/58/2 52/61/2 50/104/2
f 30/111/5 34/112/5 51/113/5 49/82/5
f 34/74/3 35/75/3 52/114/3 51/115/3
f 53/99/2 55/98/2 56/58/2 54/110/2
f 33/72/3 34/74/3 56/116/3 55/117/3
f 30/85/1 29/94/1 53/118/1 54/119/1
f 59/61/4 58/60/4 57/120/4 60/105/4
f 38/73/3 37/71/3 59/121/3 60/122/3
f 37/56/5 28/57/5 58/123/5 59/124/5
f 28/95/1 27/96/1 57/125/1 58/126/1
f 63/98/4 62/127/4 61/59/4 64/58/4
f 27/96/1 26/97/1 61/128/1 62/129/1
f 39/66/3 38/73/3 63/130/3 64/131/3
f 67/132/4 66/133/4 65/77/4 68/76/4
f 39/134/5 26/135/5 66/91/5 67/90/5
f 26/97/1 25/40/1 65/136/1 66/137/1
f 69/138/4 72/139/4 71/140/4 70/17/4
f 21/49/3 40/48/3 69/141/3 70/142/3
f 40/36/5 25/35/5 72/143/5 69/144/5
f 80/145/7 77/146/7 73/147/7 76/148/7
f 79/149/3 80/150/3 76/30/3 75/29/3
f 78/151/2 79/152/2 75/26/2 74/25/2
f 77/153/1 78/154/1 74/22/1 73/21/1
f 10/155/1 12/18/1 78/154/1 77/153/1
f 12/156/2 16/53/2 79/152/2 78/151/2
f 16/24/3 14/157/3 80/150/3 79/149/3
f 14/63/8 10/158/8 77/159/8 80/160/8
f 6/161/4 2/156/4 84/162/4 93/163/4
f 93/163/4 84/162/4 83/164/4 94/165/4
f 94/165/4 83/164/4 82/166/4 95/167/4
f 95/167/4 82/166/4 81/14/4 96/13/4
f 8/168/3 6/169/3 93/170/3 89/171/3
f 89/171/3 93/170/3 94/172/3 90/173/3
f 90/173/3 94/172/3 95/174/3 91/175/3
f 91/175/3 95/174/3 96/10/3 92/9/3
f 4/6/2 8/113/2 89/176/2 85/177/2
f 85/135/9 89/134/9 90/34/9 86/178/9
f 86/158/2 90/5/2 91/8/2 87/179/2
f 87/146/10 91/62/10 92/180/10 88/181/10
f 2/182/1 4/183/1 85/184/1 84/185/1
f 84/185/1 85/184/1 86/186/1 83/187/1
f 83/187/1 86/186/1 87/188/1 82/189/1
f 82/189/1 87/188/1 88/2/1 81/1/1
