# Blender v2.76 (sub 0) OBJ File: 'desert_tower.blend'
# www.blender.org
mtllib desert_tower.mtl
o Cube
v -3.756487 -0.127792 3.862042
v -3.756487 -0.127792 -3.784790
v 3.814697 -0.127792 -3.784789
v 3.814695 -0.127792 3.862044
v -2.141006 15.945662 2.141004
v 2.141007 15.945662 -2.141005
v 2.141006 15.945662 2.141005
v -2.141006 15.945662 1.516905
v -1.477251 15.945662 2.141005
v 1.477248 15.945662 2.141005
v -2.478452 10.444679 0.442650
v 1.477251 15.945662 -2.141006
v 2.141007 15.945662 -1.516906
v 2.141006 15.945662 1.516908
v -1.469776 15.945662 1.469775
v -2.526797 12.924597 2.526795
v 1.469776 15.945662 1.469776
v 1.469777 15.945662 -1.469776
v 1.477248 17.341270 2.141005
v 2.141006 17.341270 2.141005
v 1.477251 17.341270 -2.141006
v 2.141007 17.341270 -2.141005
v 2.141006 17.341270 1.516908
v -2.141006 17.341270 2.141004
v -2.141006 17.341270 1.516905
v -1.477251 17.341270 2.141005
v 2.141007 17.341270 -1.516906
v -1.469776 17.341270 1.469775
v 1.469777 17.341270 -1.469776
v 1.469776 17.341270 1.469776
v -3.408961 -0.134175 3.514516
v -3.408961 -0.134175 -3.437264
v 3.467171 -0.134175 -3.437263
v 3.467169 -0.134175 3.514518
v -1.963579 15.554623 1.963577
v 2.460762 13.128910 -2.460760
v 1.963580 15.554623 -1.963578
v 1.963579 15.554623 1.963579
v -1.963579 15.554623 1.391198
v 0.356825 10.779113 -2.760140
v -1.354829 15.554623 1.963578
v 1.354827 15.554623 1.963579
v 1.354830 15.554623 -1.963579
v 1.963580 15.554623 -1.391199
v 1.963580 15.554623 1.391201
v -2.685514 8.939017 -2.815499
v -2.141005 15.945662 -0.217365
v 0.105489 15.945662 -2.141006
v -1.469775 15.945662 -0.792130
v -0.678396 15.945662 -1.469777
v -2.538191 8.784759 -2.520423
v -1.963578 15.526863 -0.246982
v -0.031528 15.471666 -1.963579
v -2.312763 14.062407 0.454548
v -2.138085 10.369087 0.415120
v -2.268967 13.009490 2.268965
v 0.333702 10.854555 -2.461433
v 2.238910 13.259991 -2.238909
v -2.018297 13.908378 0.222506
v 2.239877 13.251925 2.239877
v 2.098746 14.428127 2.098746
v 2.103271 14.390423 -2.103269
v 2.239215 13.257446 -0.800567
v 2.101896 14.401880 -0.677014
v 2.239476 13.255268 0.383667
v 2.100744 14.411482 0.314440
v 2.462883 13.112289 2.462883
v 2.326945 14.489600 2.326945
v 2.336707 14.413160 -2.336706
v 2.461469 13.123369 -0.869018
v 2.462176 13.117830 0.400311
v 2.333453 14.438641 -0.703161
v 2.330199 14.464121 0.351036
v -1.477251 16.381969 2.141005
v 1.477248 16.381969 2.141005
v 0.105489 16.381969 -2.141006
v 1.477251 16.381969 -2.141006
v 2.141007 16.381969 -1.516906
v 2.141006 16.381969 1.516908
v -1.469776 16.381969 1.469775
v 1.469777 16.381969 -1.469776
v 1.469776 16.381969 1.469776
v -2.141006 16.381969 1.516905
v -2.141005 16.381969 -0.217365
v -1.469775 16.381969 -0.792130
v -0.678396 16.381969 -1.469777
vt -0.191135 -0.594822
vt -0.400252 -0.594822
vt -0.399933 -0.835601
vt -0.190815 -0.835601
vt -3.070406 -3.351455
vt -3.004042 -3.617833
vt -2.794834 -3.617834
vt -1.777850 -3.617833
vt -1.568642 -3.617833
vt -1.507037 -3.364742
vt -2.169406 -3.360313
vt -2.522803 -3.355884
vt -3.002928 1.927355
vt -3.135956 1.410239
vt -3.561383 -0.827582
vt -1.024001 -0.827583
vt -1.463157 1.441927
vt -1.507352 1.678121
vt -1.567867 1.927355
vt -1.790316 1.927355
vt -2.780478 1.927355
vt 1.764257 -1.131777
vt 1.989671 -1.131667
vt 1.989671 -0.890709
vt 1.764258 -0.890819
vt 0.389969 -0.594822
vt -0.191035 -0.670097
vt 0.390069 -0.670097
vt -1.777943 -3.858710
vt -1.568735 -3.858710
vt 3.793237 -1.131777
vt 3.793237 -0.909714
vt 3.716945 -0.909660
vt 3.716945 -1.131724
vt -3.004135 -3.858710
vt -2.794927 -3.858710
vt 1.306004 3.382652
vt 1.306004 3.160156
vt 1.382322 3.160118
vt 1.382322 3.382615
vt 3.113454 -1.131777
vt 3.337933 -1.116187
vt 3.337548 -0.909743
vt 3.115540 -0.909743
vt 3.562028 -0.909743
vt 3.340019 -0.909743
vt 3.337932 -1.131777
vt 3.562411 -1.116187
vt 2.891445 -1.131375
vt 3.113454 -0.925333
vt 2.888946 -0.909336
vt 2.439490 -1.131777
vt 2.664530 -1.131764
vt 2.664530 -0.890887
vt 2.439490 -0.890900
vt -2.780272 2.168200
vt -3.002722 2.168200
vt 2.664530 -1.131487
vt 2.888947 -1.131777
vt 2.888947 -0.890819
vt 2.664530 -0.890528
vt 2.439491 -0.890998
vt 2.214499 -0.890807
vt 2.214499 -1.131587
vt 1.538902 -1.131447
vt 1.764257 -0.890932
vt 1.538902 -0.890602
vt -1.567661 2.168200
vt -1.790110 2.168200
vt 1.989671 -1.131386
vt 2.214499 -1.131777
vt 2.214499 -0.890998
vt 1.989671 -0.890607
vt 0.961839 -3.617753
vt 0.739429 -3.617753
vt 0.739528 -3.858710
vt 0.961938 -3.858710
vt -0.534376 -0.078791
vt 0.162546 -0.272219
vt 0.163916 0.349709
vt 1.538902 -3.858710
vt 3.868244 -3.858710
vt 3.451334 -1.532766
vt 2.829374 -1.532184
vt 2.432573 -1.531804
vt 1.950629 -1.531361
vt -0.496207 2.156571
vt -0.292228 2.156570
vt 0.615719 2.156570
vt 0.819700 2.156570
vt 0.863481 2.350489
vt 0.909195 2.552966
vt 1.306004 4.858710
vt -0.998040 4.858710
vt -0.601946 2.594700
vt 3.471106 -0.399245
vt 2.849265 0.057732
vt 2.783933 -0.551989
vt 3.868641 4.582056
vt 1.564195 4.582056
vt 1.984067 2.257406
vt 2.621032 2.674966
vt 3.583311 3.032806
vt -1.261687 4.223025
vt -2.244886 4.224807
vt -2.244886 3.252441
vt -1.526381 3.251138
vt -1.261687 3.474815
vt -0.998040 -0.835601
vt -0.648788 -2.405153
vt 0.370180 -2.723089
vt 1.072164 -3.130067
vt 1.538901 -0.835602
vt 1.534896 3.160118
vt 1.534896 3.382246
vt 1.458604 3.382251
vt 1.458604 3.160122
vt -0.998040 2.156570
vt 1.253049 0.606693
vt 1.564195 2.156570
vt 0.279781 -3.617753
vt 1.029375 -3.352326
vt 3.894545 1.858386
vt 1.564195 1.858386
vt 1.867095 0.327350
vt 2.030514 2.060833
vt 2.078348 1.858387
vt 2.282363 1.858387
vt 2.746995 1.872703
vt 3.367217 -0.835601
vt 2.626203 -0.830810
vt 3.175346 -0.835601
vt -2.190932 3.155674
vt -2.244886 3.251138
vt -2.161433 2.168200
vt -2.047014 2.180755
vt -1.248731 3.251138
vt -1.254424 3.151786
vt 3.885693 1.922745
vt 3.963364 1.858387
vt 3.963364 2.776601
vt 3.868640 2.741369
vt 4.387793 -2.573099
vt 4.026746 -3.089067
vt 4.122423 -3.131528
vt 4.484330 -2.634986
vt 3.868244 -3.378006
vt 3.961066 -3.359872
vt 4.484330 -3.766163
vt 4.468722 -3.858710
vt 2.475193 -1.332514
vt 1.997283 -1.334509
vt 2.807411 -1.330842
vt 3.405299 -1.327943
vt 3.361209 -1.131777
vt 3.169422 -1.131777
vt 2.237119 -1.131777
vt 2.045331 -1.131777
vt -3.112453 -3.128610
vt -2.578878 -3.127647
vt -2.153381 -3.126684
vt -1.461976 -3.125721
vt -0.998040 -0.827583
vt -1.248731 3.148669
vt -1.172615 3.143614
vt -1.172616 3.563467
vt -1.248562 3.540388
vt 3.570818 -1.094456
vt 3.640018 -1.131777
vt 3.640018 -0.898865
vt 3.562411 -0.890449
vt 3.648124 -0.927569
vt 3.716946 -1.127105
vt 3.716946 -0.890917
vt -1.172013 3.480564
vt -1.172615 3.152482
vt -1.094926 3.143614
vt -1.094926 3.492463
vt -2.913878 2.168200
vt -2.448944 2.168217
vt -2.244889 2.357622
vt -2.244905 3.278339
vt -2.244909 3.467743
vt -2.448967 3.467744
vt -3.357266 3.467745
vt -3.561383 2.736248
vt -3.561321 3.278339
vt -3.561325 3.467745
vt -2.244886 2.168217
vt 4.093188 -1.809706
vt 4.093188 -1.100496
vt 3.868244 -1.098436
vt 3.868244 -1.551317
vt -1.248731 3.143615
vt -1.248730 2.168200
vt -1.023786 2.171074
vt -1.023786 3.141555
vt 1.530512 3.144120
vt 1.306004 3.160118
vt 1.306004 2.156570
vt 1.530512 2.171753
vt 4.092752 -1.809706
vt 3.868244 -1.824889
vt 3.868244 -2.573099
vt 4.092752 -2.383380
vt 3.970807 0.136765
vt 3.970807 1.108982
vt 3.894546 1.108884
vt 3.894546 0.136667
vt -1.790252 2.002650
vt -2.780414 2.002650
vt 0.010019 -3.620609
vt 0.010050 -3.695940
vt 0.279812 -3.693083
vt 1.458604 3.160230
vt 1.458604 3.382670
vt 3.868640 3.525047
vt 3.868641 2.776629
vt 3.944933 2.776601
vt 3.944933 3.525018
vt 0.739459 -3.693083
vt -1.018612 3.143614
vt -1.018612 3.371633
vt -1.094926 3.372410
vt -1.094926 3.144392
vt 3.970827 1.819600
vt 3.894546 1.819664
vt 3.894546 1.109046
vt 3.970864 -0.835571
vt 3.970864 0.136667
vt 3.894546 0.136636
vt 3.894546 -0.835601
vt -2.794863 -3.693139
vt -1.777879 -3.693138
vt 3.944506 -1.098372
vt 3.944506 -0.876292
vt 3.868244 -0.876357
vt -1.094926 3.594297
vt -1.094926 3.372649
vt -1.018644 3.372410
vt -1.018644 3.594057
vn -1.000000 0.000000 -0.000000
vn 0.991900 0.126700 0.000000
vn 0.003300 0.105800 0.994400
vn -0.070000 0.000000 -0.997500
vn 1.000000 0.000000 0.000000
vn 0.999900 0.000000 -0.011100
vn 0.000000 1.000000 0.000000
vn 0.999900 0.000000 0.011100
vn -0.000000 0.000000 1.000000
vn 0.070000 0.000000 -0.997500
vn -0.999900 0.000000 -0.011100
vn 0.070000 0.000000 0.997500
vn -0.999900 0.000000 0.011100
vn 0.000000 0.000000 -1.000000
vn -0.995600 0.082200 -0.044400
vn -0.995800 -0.091300 0.000000
vn -0.000500 -0.097500 -0.995200
vn 0.993600 -0.027700 0.109600
vn 0.009900 -0.092300 0.995700
vn -0.003000 0.098900 -0.995100
vn -0.993500 0.110900 -0.024300
vn 0.001800 0.116800 -0.993200
vn 0.994500 -0.102900 0.020200
vn 0.013400 -0.109500 0.993900
vn 0.996000 -0.078100 0.042600
vn 0.563600 0.715800 -0.412300
vn -0.540800 0.811600 0.220900
vn -0.942100 -0.021200 -0.334600
vn -0.381000 -0.008100 -0.924500
vn -0.648000 -0.197800 -0.735500
vn -0.650300 -0.152600 -0.744200
vn -0.992900 -0.119100 -0.000000
vn 0.994800 0.101600 -0.000000
vn 0.995200 0.097900 0.000100
vn 0.995300 0.096500 0.000200
vn 0.521100 0.853500 0.002500
vn 0.183500 -0.095300 0.978400
vn 0.110400 -0.035100 -0.993300
vn 0.190000 -0.981600 0.017200
vn 0.059600 -0.996200 -0.063400
vn 0.000000 -1.000000 0.000000
vn -0.000000 -0.999900 0.012600
vn -0.015900 -0.999700 0.016900
vn 0.041500 -0.999100 0.000000
vn -0.007500 -0.999700 0.023800
vn 0.014900 -0.999800 0.015900
vn -0.650400 0.000000 -0.759600
vn -0.070000 0.000000 0.997500
usemtl Material
s off
f 8/1/1 5/2/1 24/3/1 25/4/1
f 69/5/2 6/6/2 13/7/2 14/8/2 7/9/2 68/10/2 73/11/2 72/12/2
f 5/13/3 16/14/3 1/15/3 4/16/3 67/17/3 68/18/3 7/19/3 10/20/3 9/21/3
f 15/22/4 8/23/4 25/24/4 28/25/4
f 47/26/1 8/1/1 83/27/1 84/28/1
f 7/9/5 14/8/5 23/29/5 20/30/5
f 10/31/6 17/32/6 82/33/6 75/34/6
f 13/7/5 6/6/5 22/35/5 27/36/5
f 13/37/4 18/38/4 81/39/4 78/40/4
f 29/41/7 27/42/7 22/43/7 21/44/7
f 24/45/7 26/46/7 28/47/7 25/48/7
f 19/49/7 20/41/7 23/50/7 30/51/7
f 9/52/8 15/53/8 28/54/8 26/55/8
f 5/13/9 9/21/9 26/56/9 24/57/9
f 14/58/10 17/59/10 30/60/10 23/61/10
f 12/62/11 18/63/11 29/64/11 21/52/11
f 18/65/12 13/22/12 27/66/12 29/67/12
f 10/20/9 7/19/9 20/68/9 19/69/9
f 17/70/13 10/71/13 19/72/13 30/73/13
f 6/74/14 12/75/14 21/76/14 22/77/14
f 16/78/15 5/2/15 8/1/15 47/26/15 54/79/15 11/80/15
f 33/81/16 34/82/16 60/83/16 65/84/16 63/85/16 58/86/16
f 35/87/17 41/88/17 42/89/17 38/90/17 61/91/17 60/92/17 34/93/17 31/94/17 56/95/17
f 56/96/18 55/97/18 59/98/18
f 32/99/19 33/100/19 58/101/19 57/102/19 51/103/19
f 15/104/7 17/105/7 18/106/7 50/107/7 49/108/7
f 2/109/20 46/110/20 40/111/20 36/112/20 3/113/20
f 18/114/8 12/115/8 77/116/8 81/117/8
f 1/118/21 16/78/21 11/80/21 46/119/21 2/120/21
f 36/112/22 40/111/22 48/121/22 12/75/22 6/74/22 69/122/22
f 31/123/23 32/124/23 51/125/23 55/97/23 56/96/23
f 57/102/24 58/101/24 62/126/24 37/127/24 43/128/24 53/129/24
f 35/130/25 56/96/25 59/98/25 52/131/25 39/132/25
f 51/133/26 46/134/26 11/135/26 55/136/26
f 40/137/27 46/134/27 51/133/27 57/138/27
f 53/139/28 48/140/28 40/141/28 57/142/28
f 11/143/29 54/144/29 59/145/29 55/146/29
f 54/144/30 47/147/30 52/148/30 59/145/30
f 53/149/31 52/148/31 47/147/31 48/150/31
f 58/86/32 63/85/32 64/151/32 62/152/32
f 62/152/32 64/151/32 66/153/32 61/154/32 38/155/32 45/156/32 44/157/32 37/158/32
f 3/15/33 36/159/33 70/160/33 71/161/33 67/162/33 4/163/33
f 65/84/32 60/83/32 61/154/32 66/153/32
f 71/161/34 73/11/34 68/10/34 67/162/34
f 36/159/35 69/5/35 72/12/35 70/160/35
f 65/164/36 71/165/36 70/166/36 63/167/36
f 63/168/37 70/169/37 72/170/37 64/171/37
f 65/172/38 66/169/38 73/173/38 71/174/38
f 66/175/39 64/176/39 72/177/39 73/178/39
f 53/179/40 43/180/40 44/181/40
f 45/182/41 38/183/41 42/184/41
f 42/184/42 41/185/42 52/186/42
f 39/187/43 52/186/43 41/185/43
f 41/185/41 35/188/41 39/187/41
f 44/181/44 45/182/44 53/179/44
f 43/180/41 37/189/41 44/181/41
f 52/186/45 53/179/45 42/184/45
f 45/182/46 42/184/46 53/179/46
f 86/190/7 81/191/7 77/192/7 76/193/7
f 74/194/7 75/195/7 82/196/7 80/197/7
f 82/198/7 79/199/7 78/200/7 81/201/7
f 83/202/7 80/203/7 85/204/7 84/205/7
f 18/206/1 17/207/1 82/208/1 81/209/1
f 9/21/9 10/20/9 75/210/9 74/211/9
f 48/121/47 50/212/47 86/213/47 76/214/47
f 8/40/12 15/39/12 80/215/12 83/216/12
f 15/217/5 49/218/5 85/219/5 80/220/5
f 12/75/14 48/121/14 76/214/14 77/221/14
f 49/222/47 47/223/47 84/224/47 85/225/47
f 50/207/9 18/226/9 81/227/9 86/228/9
f 17/229/14 15/230/14 80/231/14 82/232/14
f 14/8/5 13/7/5 78/233/5 79/234/5
f 15/235/11 9/236/11 74/237/11 80/192/11
f 17/238/48 14/239/48 79/240/48 82/241/48
