# Blender v2.76 (sub 0) OBJ File: 'part_canon.blend'
# www.blender.org
o collider_Cylinder.001
v -0.105883 0.050000 0.100000
v -3.655883 0.050000 0.100000
v -0.105883 0.011732 0.092388
v -3.655883 0.011732 0.092388
v -0.105883 -0.020711 0.070711
v -3.655883 -0.020711 0.070711
v -0.105883 -0.042388 0.038268
v -3.655883 -0.042388 0.038268
v -0.105883 -0.050000 -0.000000
v -3.655883 -0.050000 -0.000000
v -0.105883 -0.042388 -0.038268
v -3.655883 -0.042388 -0.038268
v -0.105883 -0.020711 -0.070711
v -3.655883 -0.020711 -0.070711
v -0.105883 0.011732 -0.092388
v -3.655883 0.011732 -0.092388
v -0.105883 0.050000 -0.100000
v -3.655883 0.050000 -0.100000
v -0.105883 0.088268 -0.092388
v -3.655883 0.088268 -0.092388
v -0.105883 0.120711 -0.070711
v -3.655883 0.120711 -0.070711
v -0.105883 0.142388 -0.038268
v -3.655883 0.142388 -0.038268
v -0.105883 0.150000 0.000000
v -3.655883 0.150000 0.000000
v -0.105883 0.142388 0.038268
v -3.655883 0.142388 0.038268
v -0.105883 0.120711 0.070711
v -3.655883 0.120711 0.070711
v -0.105883 0.088268 0.092388
v -3.655883 0.088268 0.092388
vn 0.000000 -0.195100 0.980800
vn 0.000000 -0.555600 0.831500
vn 0.000000 -0.831500 0.555600
vn 0.000000 -0.980800 0.195100
vn 0.000000 -0.980800 -0.195100
vn 0.000000 -0.831500 -0.555600
vn 0.000000 -0.555600 -0.831500
vn 0.000000 -0.195100 -0.980800
vn -0.000000 0.195100 -0.980800
vn -0.000000 0.555600 -0.831500
vn -0.000000 0.831500 -0.555600
vn -0.000000 0.980800 -0.195100
vn -0.000000 0.980800 0.195100
vn -0.000000 0.831500 0.555600
vn -1.000000 -0.000000 0.000000
vn -0.000000 0.195100 0.980800
vn -0.000000 0.555600 0.831500
vn 1.000000 0.000000 0.000000
s off
f 1//1 2//1 4//1 3//1
f 3//2 4//2 6//2 5//2
f 5//3 6//3 8//3 7//3
f 7//4 8//4 10//4 9//4
f 9//5 10//5 12//5 11//5
f 11//6 12//6 14//6 13//6
f 13//7 14//7 16//7 15//7
f 15//8 16//8 18//8 17//8
f 17//9 18//9 20//9 19//9
f 19//10 20//10 22//10 21//10
f 21//11 22//11 24//11 23//11
f 23//12 24//12 26//12 25//12
f 25//13 26//13 28//13 27//13
f 27//14 28//14 30//14 29//14
f 4//15 2//15 32//15 30//15 28//15 26//15 24//15 22//15 20//15 18//15 16//15 14//15 12//15 10//15 8//15 6//15
f 31//16 32//16 2//16 1//16
f 29//17 30//17 32//17 31//17
f 1//18 3//18 5//18 7//18 9//18 11//18 13//18 15//18 17//18 19//18 21//18 23//18 25//18 27//18 29//18 31//18
