# Blender v2.76 (sub 0) OBJ File: 'track.blend'
# www.blender.org
mtllib track.mtl
o LOD01_t-01
v 4.582913 2.110306 0.504073
v 3.822649 2.145129 0.504073
v 3.830260 2.030236 0.504073
v 4.593909 2.227178 0.504073
v 3.822649 2.145129 -0.518635
v 3.822649 2.145129 0.504073
v 4.593909 2.227178 0.504073
v 4.593909 2.227178 -0.518635
v 3.830260 2.030236 -0.518635
v 3.822649 2.145129 -0.518635
v 4.593909 2.227178 -0.518635
v 4.582913 2.110306 -0.518635
v 3.830260 2.030236 0.504073
v 3.830260 2.030236 -0.518635
v 4.582913 2.110306 -0.518635
v 4.582913 2.110306 0.504073
v 3.206902 2.128926 0.504073
v 3.213907 2.014016 0.504073
v 3.206902 2.128926 -0.518635
v 3.206902 2.128926 0.504073
v 3.213907 2.014016 -0.518635
v 3.206902 2.128926 -0.518635
v 3.213907 2.014016 0.504073
v 3.213907 2.014016 -0.518635
v 2.448208 2.056285 0.504073
v 2.448688 1.940751 0.504073
v 2.448208 2.056285 -0.518635
v 2.448208 2.056285 0.504073
v 2.448688 1.940750 -0.518635
v 2.448208 2.056285 -0.518635
v 2.448688 1.940751 0.504073
v 2.448688 1.940750 -0.518635
v 1.614150 2.129164 0.504073
v 1.612926 2.013778 0.504073
v 1.614149 2.129164 -0.518635
v 1.614150 2.129164 0.504073
v 1.612926 2.013778 -0.518635
v 1.614149 2.129164 -0.518635
v 1.612926 2.013778 0.504073
v 1.612926 2.013778 -0.518635
v 0.754830 2.072416 0.504074
v 0.753789 1.957043 0.504074
v 0.754830 2.072416 -0.518634
v 0.754830 2.072416 0.504074
v 0.753789 1.957043 -0.518634
v 0.754830 2.072416 -0.518634
v 0.753789 1.957043 0.504074
v 0.753789 1.957043 -0.518634
v -0.016230 2.137347 0.504075
v -0.015276 2.021806 0.504075
v -0.016230 2.137347 -0.518634
v -0.016230 2.137347 0.504075
v -0.015276 2.021806 -0.518634
v -0.016230 2.137347 -0.518634
v -0.015276 2.021806 0.504075
v -0.015276 2.021806 -0.518634
v -0.980508 2.040109 0.504075
v -0.980209 1.924502 0.504075
v -0.980508 2.040109 -0.518633
v -0.980508 2.040109 0.504075
v -0.980209 1.924502 -0.518633
v -0.980508 2.040109 -0.518633
v -0.980209 1.924502 0.504075
v -0.980209 1.924502 -0.518633
v -1.912565 2.129263 0.504075
v -1.912513 2.013679 0.504075
v -1.912566 2.129263 -0.518633
v -1.912565 2.129263 0.504075
v -1.912513 2.013679 -0.518633
v -1.912566 2.129263 -0.518633
v -1.912513 2.013679 0.504075
v -1.912513 2.013679 -0.518633
v -2.835875 2.040171 0.504075
v -2.837355 1.924440 0.504075
v -2.835875 2.040171 -0.518633
v -2.835875 2.040171 0.504075
v -2.837355 1.924440 -0.518633
v -2.835875 2.040171 -0.518633
v -2.837355 1.924440 0.504075
v -2.837355 1.924440 -0.518633
v -3.629417 2.137340 0.504075
v -3.632574 2.021814 0.504075
v -3.629418 2.137340 -0.518633
v -3.629417 2.137340 0.504075
v -3.632574 2.021813 -0.518633
v -3.629418 2.137340 -0.518633
v -3.632574 2.021814 0.504075
v -3.632574 2.021813 -0.518633
v -4.590762 2.072712 0.504075
v -4.600441 1.956747 0.504075
v -4.590762 2.072712 -0.518633
v -4.590762 2.072712 0.504075
v -4.600441 1.956747 -0.518633
v -4.590762 2.072712 -0.518633
v -4.600441 1.956747 0.504075
v -4.600441 1.956747 -0.518633
v -5.107729 2.195799 0.504075
v -5.104819 2.076838 0.504075
v -5.107729 2.195799 -0.518633
v -5.107729 2.195799 0.504075
v -5.104819 2.076838 -0.518633
v -5.107729 2.195799 -0.518633
v -5.104819 2.076838 0.504075
v -5.104819 2.076838 -0.518633
v -5.387212 2.114657 0.504075
v -5.327903 2.012072 0.504075
v -5.387212 2.114657 -0.518633
v -5.387212 2.114657 0.504075
v -5.327903 2.012072 -0.518633
v -5.387212 2.114657 -0.518633
v -5.327903 2.012072 0.504075
v -5.327903 2.012072 -0.518633
v -5.621326 1.889549 0.504075
v -5.515298 1.831885 0.504075
v -5.621326 1.889549 -0.518633
v -5.621326 1.889549 0.504075
v -5.515298 1.831885 -0.518633
v -5.621326 1.889549 -0.518633
v -5.515298 1.831885 0.504075
v -5.515298 1.831885 -0.518633
v -5.675509 1.609602 0.504075
v -5.558385 1.609265 0.504075
v -5.675509 1.609602 -0.518633
v -5.675509 1.609602 0.504075
v -5.558385 1.609265 -0.518633
v -5.675509 1.609602 -0.518633
v -5.558385 1.609265 0.504075
v -5.558385 1.609265 -0.518633
v -5.621924 1.323824 0.504075
v -5.514699 1.376263 0.504075
v -5.621924 1.323824 -0.518633
v -5.621924 1.323824 0.504075
v -5.514699 1.376263 -0.518633
v -5.621924 1.323824 -0.518633
v -5.514699 1.376263 0.504075
v -5.514699 1.376263 -0.518633
v -5.418340 1.093687 0.504075
v -5.345411 1.184892 0.504075
v -5.418340 1.093687 -0.518633
v -5.418340 1.093687 0.504075
v -5.345411 1.184892 -0.518633
v -5.418340 1.093687 -0.518633
v -5.345411 1.184892 0.504075
v -5.345411 1.184892 -0.518633
v -4.504661 0.591576 0.504075
v -4.459574 0.698081 0.504075
v -4.504661 0.591576 -0.518633
v -4.504661 0.591576 0.504075
v -4.459574 0.698081 -0.518633
v -4.504661 0.591576 -0.518633
v -4.459574 0.698081 0.504075
v -4.459574 0.698081 -0.518633
v -3.753126 0.360335 0.504075
v -3.735830 0.475390 0.504075
v -3.753126 0.360335 -0.518633
v -3.753126 0.360335 0.504075
v -3.735830 0.475390 -0.518633
v -3.753126 0.360335 -0.518633
v -3.735830 0.475390 0.504075
v -3.735830 0.475390 -0.518633
v -1.896325 0.360336 0.504075
v -1.896330 0.475389 0.504075
v -3.735830 0.475390 0.504075
v -3.753126 0.360335 0.504075
v -1.896326 0.360335 -0.518633
v -1.896325 0.360336 0.504075
v -3.753126 0.360335 0.504075
v -3.753126 0.360335 -0.518633
v -1.896330 0.475389 -0.518633
v -1.896326 0.360335 -0.518633
v -3.753126 0.360335 -0.518633
v -3.735830 0.475390 -0.518633
v -1.896330 0.475389 0.504075
v -1.896330 0.475389 -0.518633
v -3.735830 0.475390 -0.518633
v -3.735830 0.475390 0.504075
v -0.015751 0.360335 0.504074
v -0.015755 0.475389 0.504074
v -0.015751 0.360335 -0.518634
v -0.015751 0.360335 0.504074
v -0.015756 0.475389 -0.518634
v -0.015751 0.360335 -0.518634
v -0.015755 0.475389 0.504074
v -0.015756 0.475389 -0.518634
v 1.605434 0.360335 0.504073
v 1.605429 0.475389 0.504073
v 1.605434 0.360335 -0.518635
v 1.605434 0.360335 0.504073
v 1.605429 0.475389 -0.518635
v 1.605434 0.360335 -0.518635
v 1.605429 0.475389 0.504073
v 1.605429 0.475389 -0.518635
v 3.357038 0.360336 0.504073
v 3.339372 0.475389 0.504073
v 3.357038 0.360336 -0.518635
v 3.357038 0.360336 0.504073
v 3.339372 0.475389 -0.518635
v 3.357038 0.360336 -0.518635
v 3.339372 0.475389 0.504073
v 3.339372 0.475389 -0.518635
v 4.951465 0.861677 0.504073
v 4.890046 0.962971 0.504073
v 4.951465 0.861677 -0.518635
v 4.951465 0.861677 0.504073
v 4.890046 0.962970 -0.518635
v 4.951465 0.861677 -0.518635
v 4.890046 0.962971 0.504073
v 4.890046 0.962970 -0.518635
v 5.222821 1.133036 0.504073
v 5.121254 1.194179 0.504073
v 5.222821 1.133036 -0.518635
v 5.222821 1.133036 0.504073
v 5.121254 1.194178 -0.518635
v 5.222821 1.133036 -0.518635
v 5.121254 1.194179 0.504073
v 5.121254 1.194178 -0.518635
v 5.329312 1.479135 0.504073
v 5.209307 1.480342 0.504073
v 5.329312 1.479135 -0.518635
v 5.329312 1.479135 0.504073
v 5.209307 1.480342 -0.518635
v 5.329312 1.479135 -0.518635
v 5.209307 1.480342 0.504073
v 5.209307 1.480342 -0.518635
v 5.223398 1.849827 0.504073
v 5.120678 1.790547 0.504073
v 5.223398 1.849827 -0.518635
v 5.223398 1.849827 0.504073
v 5.120677 1.790547 -0.518635
v 5.223398 1.849827 -0.518635
v 5.120678 1.790547 0.504073
v 5.120677 1.790547 -0.518635
v 4.967929 2.114103 0.504073
v 4.906003 2.012627 0.504073
v 4.967929 2.114103 -0.518635
v 4.967929 2.114103 0.504073
v 4.906003 2.012627 -0.518635
v 4.967929 2.114103 -0.518635
v 4.906003 2.012627 0.504073
v 4.906003 2.012627 -0.518635
v -5.297332 1.713349 -0.012715
v -5.515298 1.831885 -0.012715
v -5.558385 1.609265 -0.012715
v -5.310274 1.608540 -0.012715
v -5.203723 1.797272 -0.012715
v -5.327903 2.012072 -0.012715
v -5.297332 1.713349 -0.012715
v -5.098765 1.828799 -0.012715
v -5.104819 2.076838 -0.012715
v -5.203723 1.797272 -0.012715
v -4.621086 1.709495 -0.012715
v -4.600441 1.956747 -0.012715
v -5.098765 1.828799 -0.012715
v -3.639361 1.773794 -0.012715
v -3.632574 2.021814 -0.012715
v -2.840536 1.676348 -0.012715
v -2.837355 1.924440 -0.012715
v -1.912410 1.765567 -0.012715
v -1.912513 2.013679 -0.012715
v -0.979571 1.676391 -0.012715
v -0.980209 1.924502 -0.012716
v -0.013231 1.773702 -0.012716
v -0.015276 2.021806 -0.012716
v 0.751547 1.708941 -0.012716
v 0.753789 1.957043 -0.012716
v 1.610294 1.765680 -0.012717
v 1.612926 2.013778 -0.012717
v 2.449717 1.692640 -0.012717
v 2.448688 1.940750 -0.012717
v 3.229003 1.766364 -0.012717
v 3.213907 2.014016 -0.012717
v 3.846660 1.782666 -0.012717
v 3.830260 2.030236 -0.012717
v 4.559673 1.863284 -0.012717
v 4.582913 2.110306 -0.012717
v 4.776748 1.800842 -0.012717
v 4.906003 2.012627 -0.012717
v 4.559673 1.863284 -0.012717
v 4.905778 1.666540 -0.012717
v 5.120678 1.790547 -0.012717
v 4.776748 1.800842 -0.012717
v 4.961208 1.482849 -0.012717
v 5.209307 1.480342 -0.012717
v 4.905778 1.666540 -0.012717
v 4.908696 1.322157 -0.012717
v 5.121254 1.194178 -0.012717
v 4.961208 1.482849 -0.012717
v 4.761415 1.175136 -0.012717
v 4.890046 0.962971 -0.012717
v 5.121254 1.194178 -0.012717
v 4.908696 1.322157 -0.012717
v 3.301724 0.720629 -0.012717
v 3.339372 0.475389 -0.012717
v 4.761415 1.175136 -0.012717
v 1.605429 0.723502 -0.012717
v 1.605429 0.475389 -0.012717
v 3.301724 0.720629 -0.012717
v -0.015756 0.723502 -0.012715
v -0.015756 0.475389 -0.012715
v -1.896330 0.723502 -0.012715
v -1.896330 0.475389 -0.012715
v -3.698937 0.720743 -0.012715
v -3.735830 0.475390 -0.012715
v -4.362841 0.926559 -0.012715
v -4.459574 0.698081 -0.012715
v -3.698937 0.720743 -0.012715
v -5.190459 1.378669 -0.012715
v -5.345411 1.184892 -0.012715
v -4.362841 0.926559 -0.012715
v -5.291808 1.485253 -0.012715
v -5.514699 1.376263 -0.012715
v -5.190459 1.378669 -0.012715
v -5.310274 1.608540 -0.012715
v -5.291808 1.485253 -0.012715
vt -0.078209 0.439804
vt 0.202147 0.481170
vt 0.203984 0.439804
vt -0.075152 0.481170
vt 0.202147 0.848874
vt -0.075152 0.848874
vt 0.203787 0.071867
vt 0.202147 0.030732
vt -0.075152 0.030732
vt -0.076941 0.072099
vt 0.424151 0.481328
vt 0.424811 0.439804
vt 0.423533 0.848874
vt 0.424811 0.072099
vt 0.423533 0.030732
vt 0.696314 0.481170
vt 0.694854 0.439804
vt 0.696315 0.848874
vt 0.694854 0.072099
vt 0.696315 0.030732
vt 0.996192 0.481170
vt 0.996477 0.439804
vt 0.996192 0.848874
vt 0.996477 0.072099
vt 0.996192 0.030732
vt 1.303710 0.481409
vt 1.303932 0.439804
vt 1.305152 0.848874
vt 1.303932 0.072099
vt 1.305152 0.030732
vt 1.582379 0.481170
vt 1.580549 0.439804
vt 1.582379 0.848874
vt 1.580549 0.072099
vt 1.582379 0.030732
vt 1.929075 0.481170
vt 1.932069 0.439804
vt 1.929075 0.848874
vt 1.930801 0.072733
vt 1.929075 0.030732
vt 2.264187 0.481170
vt 2.266956 0.439804
vt 2.264187 0.848874
vt 2.264340 0.071907
vt 2.264187 0.030732
vt 2.596154 0.481170
vt 2.597579 0.439804
vt 2.596154 0.848874
vt 2.597579 0.072099
vt 2.596154 0.030732
vt 2.881464 0.481170
vt 2.883269 0.439804
vt 2.881464 0.848874
vt 2.882206 0.072005
vt 2.881464 0.030732
vt 3.227107 0.481170
vt 3.228557 0.439804
vt 3.227107 0.848874
vt 3.228557 0.072099
vt 3.227107 0.030732
vt 3.413126 0.481818
vt 3.412533 0.439804
vt 3.412977 0.848874
vt 3.412533 0.072099
vt 3.412977 0.030732
vt 3.514780 0.481993
vt 3.515235 0.439804
vt 3.513462 0.848874
vt 3.515235 0.072099
vt 3.513462 0.030732
vt 3.597636 0.481170
vt 3.597225 0.439804
vt 3.597636 0.848874
vt 3.597225 0.072099
vt 3.597636 0.030732
vt 3.698288 0.481170
vt 3.699020 0.439804
vt 3.698288 0.848874
vt 3.699020 0.072099
vt 3.698288 0.030733
vt 3.801037 0.481170
vt 3.803241 0.439804
vt 3.801037 0.848874
vt 3.803241 0.072099
vt 3.801037 0.030733
vt 3.883780 0.481170
vt 3.885255 0.439804
vt 3.883780 0.848874
vt 3.885255 0.072099
vt 3.883780 0.030733
vt 4.212284 0.481170
vt 4.212984 0.439804
vt 4.212284 0.848874
vt 4.212984 0.072099
vt 4.212284 0.030732
vt 4.482491 0.481170
vt 4.482138 0.439804
vt 4.482491 0.848874
vt 4.482138 0.072099
vt 4.482491 0.030732
vt -3.121981 0.481324
vt -3.121983 0.439803
vt -3.788300 0.439803
vt -3.789576 0.481170
vt -3.121981 0.848874
vt -3.789578 0.848874
vt -3.121983 0.072099
vt -3.121981 0.030732
vt -3.789578 0.030732
vt -3.789403 0.072099
vt -2.445839 0.481170
vt -2.445840 0.439803
vt -2.445839 0.848874
vt -2.445840 0.072099
vt -2.445839 0.030732
vt -1.862957 0.481170
vt -1.862959 0.439804
vt -1.862957 0.848874
vt -1.862959 0.072099
vt -1.862957 0.030732
vt -1.233185 0.481170
vt -1.232206 0.439804
vt -1.233185 0.848874
vt -1.232206 0.072099
vt -1.233185 0.030732
vt -0.659925 0.481170
vt -0.658141 0.439804
vt -0.659925 0.848874
vt -0.658141 0.072099
vt -0.659925 0.030732
vt -0.562361 0.481170
vt -0.561923 0.439804
vt -0.562361 0.848874
vt -0.561923 0.072099
vt -0.562361 0.030732
vt -0.437924 0.481170
vt -0.436304 0.439804
vt -0.437924 0.848874
vt -0.436304 0.072099
vt -0.437924 0.030732
vt -0.304645 0.481170
vt -0.306069 0.439804
vt -0.304645 0.848874
vt -0.306069 0.072099
vt -0.304645 0.030732
vt -0.209627 0.481170
vt -0.209608 0.439804
vt -0.209627 0.848874
vt -0.209608 0.072099
vt -0.209627 0.030732
vt 0.426961 0.980366
vt 0.399726 0.886619
vt 0.482111 0.886619
vt 0.465240 0.980366
vt 0.346214 0.980366
vt 0.330377 0.886619
vt 0.379730 0.980366
vt 0.270332 0.980366
vt 0.247822 0.886619
vt 0.309278 0.980366
vt 0.061339 0.980366
vt 0.061168 0.886619
vt 0.225019 0.980366
vt -0.296986 0.980366
vt -0.297008 0.886619
vt -0.591279 0.980366
vt -0.591293 0.886619
vt -0.933547 0.980366
vt -0.933546 0.886619
vt -1.278564 0.980366
vt -1.278562 0.886619
vt -1.635658 0.980366
vt -1.635652 0.886619
vt -1.920253 0.980366
vt -1.920258 0.886619
vt -2.238191 0.980366
vt -2.238197 0.886619
vt -2.547487 0.980366
vt -2.547485 0.886619
vt -2.830674 0.980366
vt -2.830667 0.886619
vt -3.058769 0.980366
vt -3.058759 0.886619
vt -3.319171 0.980366
vt -3.337292 0.886619
vt -3.434739 0.980366
vt -3.456857 0.886619
vt -3.354734 0.980366
vt -3.523023 0.980366
vt -3.539041 0.886619
vt -3.473469 0.980366
vt -3.628728 0.980366
vt -3.653838 0.886619
vt -3.560462 0.980366
vt -3.738583 0.980366
vt -3.759738 0.886619
vt -3.678797 0.980366
vt 4.442417 0.980366
vt 4.426960 0.886619
vt 4.512524 0.886619
vt 4.496873 0.980366
vt 3.866397 0.980366
vt 3.853107 0.886619
vt 4.406108 0.980366
vt 3.211433 0.980366
vt 3.211433 0.886619
vt 3.839174 0.980366
vt 2.611486 0.980366
vt 2.611486 0.886619
vt 1.915548 0.980366
vt 1.915548 0.886619
vt 1.248462 0.980366
vt 1.234809 0.886619
vt 0.975912 0.980366
vt 0.966976 0.886619
vt 1.221760 0.980366
vt 0.652932 0.980366
vt 0.639157 0.886619
vt 0.958783 0.980366
vt 0.586645 0.980366
vt 0.568337 0.886619
vt 0.627385 0.980366
vt 0.499000 0.980366
vt 0.544313 0.980366
vn -0.000000 -0.000000 1.000000
vn -0.105800 0.994400 0.000000
vn -0.000000 -0.000000 -1.000000
vn 0.105800 -0.994400 0.000000
vn -0.026300 0.999700 0.000000
vn 0.026300 -0.999700 0.000000
vn -0.095300 0.995400 0.000000
vn 0.095300 -0.995400 0.000000
vn 0.087000 0.996200 -0.000000
vn -0.087000 -0.996200 0.000000
vn -0.065900 0.997800 0.000000
vn 0.065900 -0.997800 0.000000
vn 0.083900 0.996500 0.000000
vn -0.083900 -0.996500 0.000000
vn -0.100300 0.995000 0.000000
vn 0.100300 -0.995000 0.000000
vn 0.095200 0.995500 -0.000000
vn -0.095200 -0.995500 0.000000
vn -0.096000 0.995400 0.000000
vn 0.096000 -0.995400 0.000000
vn 0.121500 0.992600 -0.000000
vn -0.121500 -0.992600 0.000000
vn -0.067100 0.997700 0.000000
vn 0.067100 -0.997700 0.000000
vn 0.231600 0.972800 0.000000
vn -0.231600 -0.972800 0.000000
vn -0.278800 0.960300 0.000000
vn 0.278800 -0.960300 0.000000
vn -0.693100 0.720800 0.000000
vn 0.693100 -0.720800 0.000000
vn -0.981800 0.190000 0.000000
vn 0.981800 -0.190000 0.000000
vn -0.982900 -0.184300 0.000000
vn 0.982900 0.184300 0.000000
vn -0.749000 -0.662600 0.000000
vn 0.749000 0.662600 0.000000
vn -0.481600 -0.876400 0.000000
vn 0.481600 0.876400 0.000000
vn -0.294100 -0.955800 0.000000
vn 0.294100 0.955800 0.000000
vn 0.000000 -1.000000 0.000000
vn 0.000000 1.000000 0.000000
vn 0.300000 -0.954000 0.000000
vn -0.300000 0.954000 -0.000000
vn 0.707100 -0.707100 0.000000
vn -0.707100 0.707100 -0.000000
vn 0.955800 -0.294100 0.000000
vn -0.955800 0.294100 0.000000
vn 0.961500 0.274700 0.000000
vn -0.961500 -0.274700 0.000000
vn 0.719000 0.695000 0.000000
vn -0.719000 -0.695000 0.000000
vn 0.289400 0.957200 0.000000
vn -0.289400 -0.957200 0.000000
usemtl 07_-_Default
s 1
f 1/1/1 2/2/1 3/3/1
f 1/1/1 4/4/1 2/2/1
f 5/5/2 6/2/2 7/4/2
f 7/4/2 8/6/2 5/5/2
f 9/7/3 10/8/3 11/9/3
f 11/9/3 12/10/3 9/7/3
f 13/3/4 14/7/4 15/10/4
f 15/10/4 16/1/4 13/3/4
f 17/11/1 18/12/1 3/3/1
f 3/3/1 2/2/1 17/11/1
f 19/13/5 20/11/5 6/2/5
f 6/2/5 5/5/5 19/13/5
f 21/14/3 22/15/3 10/8/3
f 10/8/3 9/7/3 21/14/3
f 23/12/6 24/14/6 14/7/6
f 14/7/6 13/3/6 23/12/6
f 25/16/1 26/17/1 18/12/1
f 18/12/1 17/11/1 25/16/1
f 27/18/7 28/16/7 20/11/7
f 20/11/7 19/13/7 27/18/7
f 29/19/3 30/20/3 22/15/3
f 22/15/3 21/14/3 29/19/3
f 31/17/8 32/19/8 24/14/8
f 24/14/8 23/12/8 31/17/8
f 33/21/1 34/22/1 26/17/1
f 26/17/1 25/16/1 33/21/1
f 35/23/9 36/21/9 28/16/9
f 28/16/9 27/18/9 35/23/9
f 37/24/3 38/25/3 30/20/3
f 30/20/3 29/19/3 37/24/3
f 39/22/10 40/24/10 32/19/10
f 32/19/10 31/17/10 39/22/10
f 41/26/1 42/27/1 34/22/1
f 34/22/1 33/21/1 41/26/1
f 43/28/11 44/26/11 36/21/11
f 36/21/11 35/23/11 43/28/11
f 45/29/3 46/30/3 38/25/3
f 38/25/3 37/24/3 45/29/3
f 47/27/12 48/29/12 40/24/12
f 40/24/12 39/22/12 47/27/12
f 49/31/1 50/32/1 42/27/1
f 42/27/1 41/26/1 49/31/1
f 51/33/13 52/31/13 44/26/13
f 44/26/13 43/28/13 51/33/13
f 53/34/3 54/35/3 46/30/3
f 46/30/3 45/29/3 53/34/3
f 55/32/14 56/34/14 48/29/14
f 48/29/14 47/27/14 55/32/14
f 57/36/1 58/37/1 50/32/1
f 50/32/1 49/31/1 57/36/1
f 59/38/15 60/36/15 52/31/15
f 52/31/15 51/33/15 59/38/15
f 61/39/3 62/40/3 54/35/3
f 54/35/3 53/34/3 61/39/3
f 63/37/16 64/39/16 56/34/16
f 56/34/16 55/32/16 63/37/16
f 65/41/1 66/42/1 58/37/1
f 58/37/1 57/36/1 65/41/1
f 67/43/17 68/41/17 60/36/17
f 60/36/17 59/38/17 67/43/17
f 69/44/3 70/45/3 62/40/3
f 62/40/3 61/39/3 69/44/3
f 71/42/18 72/44/18 64/39/18
f 64/39/18 63/37/18 71/42/18
f 73/46/1 74/47/1 66/42/1
f 66/42/1 65/41/1 73/46/1
f 75/48/19 76/46/19 68/41/19
f 68/41/19 67/43/19 75/48/19
f 77/49/3 78/50/3 70/45/3
f 70/45/3 69/44/3 77/49/3
f 79/47/20 80/49/20 72/44/20
f 72/44/20 71/42/20 79/47/20
f 81/51/1 82/52/1 74/47/1
f 74/47/1 73/46/1 81/51/1
f 83/53/21 84/51/21 76/46/21
f 76/46/21 75/48/21 83/53/21
f 85/54/3 86/55/3 78/50/3
f 78/50/3 77/49/3 85/54/3
f 87/52/22 88/54/22 80/49/22
f 80/49/22 79/47/22 87/52/22
f 89/56/1 90/57/1 82/52/1
f 82/52/1 81/51/1 89/56/1
f 91/58/23 92/56/23 84/51/23
f 84/51/23 83/53/23 91/58/23
f 93/59/3 94/60/3 86/55/3
f 86/55/3 85/54/3 93/59/3
f 95/57/24 96/59/24 88/54/24
f 88/54/24 87/52/24 95/57/24
f 97/61/1 98/62/1 90/57/1
f 90/57/1 89/56/1 97/61/1
f 99/63/25 100/61/25 92/56/25
f 92/56/25 91/58/25 99/63/25
f 101/64/3 102/65/3 94/60/3
f 94/60/3 93/59/3 101/64/3
f 103/62/26 104/64/26 96/59/26
f 96/59/26 95/57/26 103/62/26
f 105/66/1 106/67/1 98/62/1
f 98/62/1 97/61/1 105/66/1
f 107/68/27 108/66/27 100/61/27
f 100/61/27 99/63/27 107/68/27
f 109/69/3 110/70/3 102/65/3
f 102/65/3 101/64/3 109/69/3
f 111/67/28 112/69/28 104/64/28
f 104/64/28 103/62/28 111/67/28
f 113/71/1 114/72/1 106/67/1
f 106/67/1 105/66/1 113/71/1
f 115/73/29 116/71/29 108/66/29
f 108/66/29 107/68/29 115/73/29
f 117/74/3 118/75/3 110/70/3
f 110/70/3 109/69/3 117/74/3
f 119/72/30 120/74/30 112/69/30
f 112/69/30 111/67/30 119/72/30
f 121/76/1 122/77/1 114/72/1
f 114/72/1 113/71/1 121/76/1
f 123/78/31 124/76/31 116/71/31
f 116/71/31 115/73/31 123/78/31
f 125/79/3 126/80/3 118/75/3
f 118/75/3 117/74/3 125/79/3
f 127/77/32 128/79/32 120/74/32
f 120/74/32 119/72/32 127/77/32
f 129/81/1 130/82/1 122/77/1
f 122/77/1 121/76/1 129/81/1
f 131/83/33 132/81/33 124/76/33
f 124/76/33 123/78/33 131/83/33
f 133/84/3 134/85/3 126/80/3
f 126/80/3 125/79/3 133/84/3
f 135/82/34 136/84/34 128/79/34
f 128/79/34 127/77/34 135/82/34
f 137/86/1 138/87/1 130/82/1
f 130/82/1 129/81/1 137/86/1
f 139/88/35 140/86/35 132/81/35
f 132/81/35 131/83/35 139/88/35
f 141/89/3 142/90/3 134/85/3
f 134/85/3 133/84/3 141/89/3
f 143/87/36 144/89/36 136/84/36
f 136/84/36 135/82/36 143/87/36
f 145/91/1 146/92/1 138/87/1
f 138/87/1 137/86/1 145/91/1
f 147/93/37 148/91/37 140/86/37
f 140/86/37 139/88/37 147/93/37
f 149/94/3 150/95/3 142/90/3
f 142/90/3 141/89/3 149/94/3
f 151/92/38 152/94/38 144/89/38
f 144/89/38 143/87/38 151/92/38
f 153/96/1 154/97/1 146/92/1
f 146/92/1 145/91/1 153/96/1
f 155/98/39 156/96/39 148/91/39
f 148/91/39 147/93/39 155/98/39
f 157/99/3 158/100/3 150/95/3
f 150/95/3 149/94/3 157/99/3
f 159/97/40 160/99/40 152/94/40
f 152/94/40 151/92/40 159/97/40
f 161/101/1 162/102/1 163/103/1
f 163/103/1 164/104/1 161/101/1
f 165/105/41 166/101/41 167/104/41
f 167/104/41 168/106/41 165/105/41
f 169/107/3 170/108/3 171/109/3
f 171/109/3 172/110/3 169/107/3
f 173/102/42 174/107/42 175/110/42
f 175/110/42 176/103/42 173/102/42
f 177/111/1 178/112/1 162/102/1
f 162/102/1 161/101/1 177/111/1
f 179/113/41 180/111/41 166/101/41
f 166/101/41 165/105/41 179/113/41
f 181/114/3 182/115/3 170/108/3
f 170/108/3 169/107/3 181/114/3
f 183/112/42 184/114/42 174/107/42
f 174/107/42 173/102/42 183/112/42
f 185/116/1 186/117/1 178/112/1
f 178/112/1 177/111/1 185/116/1
f 187/118/41 188/116/41 180/111/41
f 180/111/41 179/113/41 187/118/41
f 189/119/3 190/120/3 182/115/3
f 182/115/3 181/114/3 189/119/3
f 191/117/42 192/119/42 184/114/42
f 184/114/42 183/112/42 191/117/42
f 193/121/1 194/122/1 186/117/1
f 186/117/1 185/116/1 193/121/1
f 195/123/41 196/121/41 188/116/41
f 188/116/41 187/118/41 195/123/41
f 197/124/3 198/125/3 190/120/3
f 190/120/3 189/119/3 197/124/3
f 199/122/42 200/124/42 192/119/42
f 192/119/42 191/117/42 199/122/42
f 201/126/1 202/127/1 194/122/1
f 194/122/1 193/121/1 201/126/1
f 203/128/43 204/126/43 196/121/43
f 196/121/43 195/123/43 203/128/43
f 205/129/3 206/130/3 198/125/3
f 198/125/3 197/124/3 205/129/3
f 207/127/44 208/129/44 200/124/44
f 200/124/44 199/122/44 207/127/44
f 209/131/1 210/132/1 202/127/1
f 202/127/1 201/126/1 209/131/1
f 211/133/45 212/131/45 204/126/45
f 204/126/45 203/128/45 211/133/45
f 213/134/3 214/135/3 206/130/3
f 206/130/3 205/129/3 213/134/3
f 215/132/46 216/134/46 208/129/46
f 208/129/46 207/127/46 215/132/46
f 217/136/1 218/137/1 210/132/1
f 210/132/1 209/131/1 217/136/1
f 219/138/47 220/136/47 212/131/47
f 212/131/47 211/133/47 219/138/47
f 221/139/3 222/140/3 214/135/3
f 214/135/3 213/134/3 221/139/3
f 223/137/48 224/139/48 216/134/48
f 216/134/48 215/132/48 223/137/48
f 225/141/1 226/142/1 218/137/1
f 218/137/1 217/136/1 225/141/1
f 227/143/49 228/141/49 220/136/49
f 220/136/49 219/138/49 227/143/49
f 229/144/3 230/145/3 222/140/3
f 222/140/3 221/139/3 229/144/3
f 231/142/50 232/144/50 224/139/50
f 224/139/50 223/137/50 231/142/50
f 233/146/1 234/147/1 226/142/1
f 226/142/1 225/141/1 233/146/1
f 235/148/51 236/146/51 228/141/51
f 228/141/51 227/143/51 235/148/51
f 237/149/3 238/150/3 230/145/3
f 230/145/3 229/144/3 237/149/3
f 239/147/52 240/149/52 232/144/52
f 232/144/52 231/142/52 239/147/52
f 4/4/1 1/1/1 234/147/1
f 234/147/1 233/146/1 4/4/1
f 8/6/53 7/4/53 236/146/53
f 236/146/53 235/148/53 8/6/53
f 12/10/3 11/9/3 238/150/3
f 238/150/3 237/149/3 12/10/3
f 16/1/54 15/10/54 240/149/54
f 240/149/54 239/147/54 16/1/54
f 241/151/1 242/152/1 243/153/1
f 243/153/1 244/154/1 241/151/1
f 245/155/1 246/156/1 242/152/1
f 242/152/1 247/157/1 245/155/1
f 248/158/1 249/159/1 246/156/1
f 246/156/1 250/160/1 248/158/1
f 251/161/1 252/162/1 249/159/1
f 249/159/1 253/163/1 251/161/1
f 254/164/1 255/165/1 252/162/1
f 252/162/1 251/161/1 254/164/1
f 256/166/1 257/167/1 255/165/1
f 255/165/1 254/164/1 256/166/1
f 258/168/1 259/169/1 257/167/1
f 257/167/1 256/166/1 258/168/1
f 260/170/1 261/171/1 259/169/1
f 259/169/1 258/168/1 260/170/1
f 262/172/1 263/173/1 261/171/1
f 261/171/1 260/170/1 262/172/1
f 264/174/1 265/175/1 263/173/1
f 263/173/1 262/172/1 264/174/1
f 266/176/1 267/177/1 265/175/1
f 265/175/1 264/174/1 266/176/1
f 268/178/1 269/179/1 267/177/1
f 267/177/1 266/176/1 268/178/1
f 270/180/1 271/181/1 269/179/1
f 269/179/1 268/178/1 270/180/1
f 272/182/1 273/183/1 271/181/1
f 271/181/1 270/180/1 272/182/1
f 274/184/1 275/185/1 273/183/1
f 273/183/1 272/182/1 274/184/1
f 276/186/1 277/187/1 275/185/1
f 275/185/1 278/188/1 276/186/1
f 279/189/1 280/190/1 277/187/1
f 277/187/1 281/191/1 279/189/1
f 282/192/1 283/193/1 280/190/1
f 280/190/1 284/194/1 282/192/1
f 285/195/1 286/196/1 283/193/1
f 283/193/1 287/197/1 285/195/1
f 288/198/1 289/199/1 290/200/1
f 290/200/1 291/201/1 288/198/1
f 292/202/1 293/203/1 289/199/1
f 289/199/1 294/204/1 292/202/1
f 295/205/1 296/206/1 293/203/1
f 293/203/1 297/207/1 295/205/1
f 298/208/1 299/209/1 296/206/1
f 296/206/1 295/205/1 298/208/1
f 300/210/1 301/211/1 299/209/1
f 299/209/1 298/208/1 300/210/1
f 302/212/1 303/213/1 301/211/1
f 301/211/1 300/210/1 302/212/1
f 304/214/1 305/215/1 303/213/1
f 303/213/1 306/216/1 304/214/1
f 307/217/1 308/218/1 305/215/1
f 305/215/1 309/219/1 307/217/1
f 310/220/1 311/221/1 308/218/1
f 308/218/1 312/222/1 310/220/1
f 313/223/1 243/153/1 311/221/1
f 311/221/1 314/224/1 313/223/1
