# Blender v2.76 (sub 0) OBJ File: 'wheel_front.blend'
# www.blender.org
mtllib wheel_front.mtl
o LOD01_t-35
v 0.004824 0.002913 -0.386410
v -0.245304 -0.142560 -0.292599
v -0.284529 0.001994 -0.292599
v -0.139057 -0.248134 -0.292599
v 0.005743 -0.286440 -0.292599
v 0.150297 -0.247215 -0.292599
v 0.255871 -0.140968 -0.292599
v 0.294177 0.003832 -0.292599
v 0.254952 0.148386 -0.292599
v 0.148705 0.253960 -0.292599
v 0.003905 0.292266 -0.292599
v -0.140649 0.253041 -0.292599
v -0.246223 0.146793 -0.292599
v -0.489685 0.001342 -0.345912
v -0.422648 -0.245702 -0.345912
v -0.422649 -0.245702 0.257503
v -0.489686 0.001342 0.257503
v -0.241070 -0.426130 -0.338902
v -0.241070 -0.426130 0.257503
v 0.006395 -0.491596 -0.338902
v 0.006396 -0.491596 0.257503
v 0.006395 -0.491596 -0.338902
v 0.253439 -0.424559 -0.338901
v 0.253439 -0.424559 0.257503
v 0.006396 -0.491596 0.257503
v 0.433867 -0.242981 -0.345912
v 0.433867 -0.242981 0.257503
v 0.499333 0.004484 -0.345912
v 0.499334 0.004484 0.257503
v 0.432296 0.251528 -0.345912
v 0.432296 0.251528 0.257503
v 0.250718 0.431955 -0.338901
v 0.250718 0.431956 0.257503
v 0.003253 0.497422 -0.338901
v 0.003253 0.497422 0.257503
v -0.243791 0.430385 -0.338902
v -0.243790 0.430385 0.257503
v -0.424219 0.248807 -0.345912
v -0.424218 0.248807 0.257503
v 0.003905 0.292266 0.257503
v -0.140649 0.253041 0.257503
v 0.004824 0.002913 0.257503
v -0.246223 0.146793 0.257503
v -0.422648 -0.245702 -0.345912
v -0.489685 0.001342 -0.345912
v -0.424219 0.248807 -0.345912
v -0.243791 0.430385 -0.338902
v 0.003253 0.497422 -0.338901
v 0.250718 0.431955 -0.338901
v 0.432296 0.251528 -0.345912
v 0.499333 0.004484 -0.345912
v 0.433867 -0.242981 -0.345912
v 0.253439 -0.424559 -0.338901
v 0.006395 -0.491596 -0.338902
v -0.241070 -0.426130 -0.338902
v -0.489686 0.001342 0.257503
v -0.422649 -0.245702 0.257503
v -0.241070 -0.426130 0.257503
v 0.006396 -0.491596 0.257503
v 0.253439 -0.424559 0.257503
v 0.433867 -0.242981 0.257503
v 0.499334 0.004484 0.257503
v 0.432296 0.251528 0.257503
v 0.250718 0.431956 0.257503
v 0.003253 0.497422 0.257503
v -0.243790 0.430385 0.257503
v -0.424218 0.248807 0.257503
v 0.004824 0.002913 0.060829
v -0.422648 -0.245702 0.060829
v -0.489685 0.001342 0.060829
v -0.241070 -0.426130 0.060829
v 0.006396 -0.491596 0.060829
v 0.253439 -0.424559 0.060829
v 0.433867 -0.242981 0.060829
v 0.499334 0.004484 0.060829
v 0.432296 0.251528 0.060829
v 0.250718 0.431956 0.060829
v 0.003253 0.497422 0.060829
v -0.243790 0.430385 0.060829
v -0.424218 0.248807 0.060829
vt 0.271792 0.273663
vt 0.254205 0.120993
vt 0.332896 0.132654
vt 0.180227 0.150241
vt 0.130783 0.212559
vt 0.119123 0.291249
vt 0.148370 0.365228
vt 0.210688 0.414671
vt 0.289379 0.426332
vt 0.363357 0.397084
vt 0.412801 0.334766
vt 0.424461 0.256076
vt 0.395214 0.182097
vt 0.636833 0.284923
vt 0.693746 0.225987
vt 0.875667 0.401666
vt 0.818753 0.460602
vt 0.750660 0.167051
vt 0.932581 0.342730
vt 0.807574 0.108116
vt 0.989494 0.283794
vt 0.124610 0.815345
vt 0.181524 0.756409
vt 0.363444 0.932088
vt 0.306530 0.991024
vt 0.238437 0.697474
vt 0.420358 0.873152
vt 0.295351 0.638538
vt 0.477271 0.814216
vt 0.352264 0.579602
vt 0.534185 0.755281
vt 0.409178 0.520666
vt 0.591099 0.696345
vt 0.466092 0.461730
vt 0.648012 0.637409
vt 0.523005 0.402795
vt 0.704926 0.578473
vt 0.579919 0.343859
vt 0.761840 0.519537
vt 0.696665 0.863457
vt 0.675707 0.805853
vt 0.793678 0.795548
vt 0.686360 0.745487
vt 0.241736 0.012749
vt 0.376219 0.032676
vt 0.482722 0.117176
vt 0.532706 0.243606
vt 0.512778 0.378090
vt 0.428279 0.484592
vt 0.301848 0.534576
vt 0.167365 0.514649
vt 0.060862 0.430149
vt 0.010878 0.303719
vt 0.030806 0.169235
vt 0.115306 0.062733
vt 0.677620 0.629751
vt 0.776067 0.593935
vt 0.879233 0.612141
vt 0.959474 0.679490
vt 0.995291 0.777938
vt 0.977085 0.881103
vt 0.909735 0.961345
vt 0.811288 0.997161
vt 0.708122 0.978955
vt 0.627881 0.911606
vt 0.592065 0.813159
vt 0.610270 0.709993
vn -0.307100 -0.083300 -0.948000
vn -0.224300 -0.225700 -0.948000
vn -0.081400 -0.307600 -0.948000
vn 0.083300 -0.307100 -0.948000
vn 0.225700 -0.224300 -0.948000
vn 0.307600 -0.081400 -0.948000
vn 0.307100 0.083300 -0.948000
vn 0.224300 0.225700 -0.948000
vn 0.081400 0.307600 -0.948000
vn -0.083300 0.307100 -0.948000
vn -0.225700 0.224300 -0.948000
vn -0.307600 0.081400 -0.948000
vn -0.965100 -0.261900 -0.000000
vn -0.704900 -0.709400 0.000000
vn -0.704900 -0.709300 0.000000
vn -0.255700 -0.966700 0.000000
vn 0.261900 -0.965100 -0.000000
vn 0.709300 -0.704900 -0.000000
vn 0.966700 -0.255700 -0.000000
vn 0.965100 0.261900 -0.000000
vn 0.704900 0.709400 -0.000000
vn 0.704900 0.709300 -0.000000
vn 0.255700 0.966700 -0.000000
vn -0.261900 0.965100 -0.000000
vn -0.709300 0.704900 0.000000
vn -0.966700 0.255800 -0.000000
vn 0.000000 0.000000 1.000000
vn 0.250700 0.068000 -0.965700
vn 0.251200 -0.066400 -0.965700
vn 0.184900 -0.146200 -0.971800
vn 0.184300 -0.183100 -0.965700
vn 0.059600 -0.219600 -0.973800
vn -0.058200 -0.220000 -0.973800
vn -0.197200 -0.160900 -0.967100
vn -0.160400 -0.161400 -0.973800
vn -0.250700 -0.068000 -0.965700
vn -0.251200 0.066400 -0.965700
vn -0.184900 0.146200 -0.971800
vn -0.184300 0.183100 -0.965700
vn -0.059600 0.219600 -0.973800
vn 0.058200 0.220000 -0.973800
vn 0.197200 0.160900 -0.967100
vn 0.160400 0.161400 -0.973800
vn 0.605100 0.001300 -0.796100
vn 0.633200 0.001100 -0.774000
vn 0.663600 0.001400 -0.748100
vn -0.000000 -0.000000 -1.000000
usemtl 04_-_Default
s 1
f 1/1/1 2/2/1 3/3/1
f 1/1/2 4/4/2 2/2/2
f 1/1/3 5/5/3 4/4/3
f 1/1/4 6/6/4 5/5/4
f 1/1/5 7/7/5 6/6/5
f 1/1/6 8/8/6 7/7/6
f 1/1/7 9/9/7 8/8/7
f 1/1/8 10/10/8 9/9/8
f 1/1/9 11/11/9 10/10/9
f 1/1/10 12/12/10 11/11/10
f 1/1/11 13/13/11 12/12/11
f 1/1/12 3/3/12 13/13/12
f 14/14/13 15/15/13 16/16/13
f 16/16/13 17/17/13 14/14/13
f 15/15/14 18/18/15 19/19/14
f 19/19/14 16/16/14 15/15/14
f 18/18/16 20/20/16 21/21/16
f 21/21/16 19/19/16 18/18/16
f 22/22/17 23/23/17 24/24/17
f 24/24/17 25/25/17 22/22/17
f 23/23/18 26/26/18 27/27/18
f 27/27/18 24/24/18 23/23/18
f 26/26/19 28/28/19 29/29/19
f 29/29/19 27/27/19 26/26/19
f 28/28/20 30/30/20 31/31/20
f 31/31/20 29/29/20 28/28/20
f 30/30/21 32/32/21 33/33/22
f 33/33/22 31/31/22 30/30/21
f 32/32/23 34/34/23 35/35/23
f 35/35/23 33/33/23 32/32/23
f 34/34/24 36/36/24 37/37/24
f 37/37/24 35/35/24 34/34/24
f 36/36/25 38/38/25 39/39/25
f 39/39/25 37/37/25 36/36/25
f 38/38/26 14/14/26 17/17/26
f 17/17/26 39/39/26 38/38/26
f 40/40/27 41/41/27 42/42/27
f 41/41/27 43/43/27 42/42/27
f 44/44/28 45/45/28 3/3/28
f 3/3/28 2/2/28 44/44/28
f 45/45/29 46/46/29 13/13/29
f 13/13/29 3/3/29 45/45/29
f 46/46/30 47/47/30 12/12/30
f 12/12/31 13/13/31 46/46/31
f 47/47/32 48/48/32 11/11/32
f 11/11/32 12/12/32 47/47/32
f 48/48/33 49/49/33 10/10/33
f 10/10/33 11/11/33 48/48/33
f 49/49/34 50/50/34 9/9/34
f 9/9/35 10/10/35 49/49/35
f 50/50/36 51/51/36 8/8/36
f 8/8/36 9/9/36 50/50/36
f 51/51/37 52/52/37 7/7/37
f 7/7/37 8/8/37 51/51/37
f 52/52/38 53/53/38 6/6/38
f 6/6/39 7/7/39 52/52/39
f 53/53/40 54/54/40 5/5/40
f 5/5/40 6/6/40 53/53/40
f 54/54/41 55/55/41 4/4/41
f 4/4/41 5/5/41 54/54/41
f 55/55/42 44/44/42 2/2/42
f 2/2/43 4/4/43 55/55/43
f 56/56/27 57/57/27 42/42/27
f 57/57/27 58/58/27 42/42/27
f 58/58/27 59/59/27 42/42/27
f 59/59/27 60/60/27 42/42/27
f 60/60/27 61/61/27 42/42/27
f 61/61/27 62/62/27 42/42/27
f 62/62/27 63/63/27 42/42/27
f 63/63/27 64/64/27 42/42/27
f 64/64/27 65/65/27 40/40/27
f 40/40/27 42/42/27 64/64/27
f 65/65/27 66/66/27 41/41/27
f 41/41/27 40/40/27 65/65/27
f 66/66/27 67/67/27 43/43/27
f 43/43/27 41/41/27 66/66/27
f 67/67/27 56/56/27 42/42/27
f 42/42/44 43/43/45 67/67/46
f 68/1/47 69/44/47 70/45/47
f 68/1/47 71/55/47 69/44/47
f 68/1/47 72/54/47 71/55/47
f 68/1/47 73/53/47 72/54/47
f 68/1/47 74/52/47 73/53/47
f 68/1/47 75/51/47 74/52/47
f 68/1/47 76/50/47 75/51/47
f 68/1/47 77/49/47 76/50/47
f 68/1/47 78/48/47 77/49/47
f 68/1/47 79/47/47 78/48/47
f 68/1/47 80/46/47 79/47/47
f 68/1/47 70/45/47 80/46/47
