# Blender v2.76 (sub 0) OBJ File: 'wheel_right.blend'
# www.blender.org
mtllib wheel_r.mtl
o LOD01_t-44
v 0.787974 -0.015919 -0.289513
v 0.724790 -0.314918 -0.289513
v 0.724790 -0.314918 0.331030
v 0.787974 -0.015919 0.331030
v 0.551994 -0.566977 -0.289513
v 0.551994 -0.566977 0.331030
v 0.551994 -0.566977 -0.289513
v 0.295893 -0.733723 -0.289513
v 0.295893 -0.733723 0.331030
v 0.551994 -0.566977 0.331030
v -0.004525 -0.789770 -0.289513
v -0.004525 -0.789770 0.331030
v -0.303525 -0.726586 -0.289513
v -0.303525 -0.726586 0.331031
v -0.555584 -0.553790 -0.289513
v -0.555584 -0.553790 0.331031
v -0.722330 -0.297688 -0.289513
v -0.722330 -0.297688 0.331031
v -0.778377 0.002730 -0.289514
v -0.778377 0.002730 0.331031
v -0.715193 0.301729 -0.289514
v -0.715193 0.301729 0.331031
v -0.542397 0.553788 -0.289514
v -0.542397 0.553788 0.331031
v -0.286295 0.720534 -0.289514
v -0.286295 0.720534 0.331031
v 0.014123 0.776581 -0.289514
v 0.014123 0.776581 0.331031
v 0.313122 0.713397 -0.289513
v 0.313122 0.713397 0.331031
v 0.565181 0.540601 -0.289513
v 0.565181 0.540601 0.331031
v 0.731927 0.284499 -0.289513
v 0.731927 0.284499 0.331030
v 0.724790 -0.314918 -0.289513
v 0.787974 -0.015919 -0.289513
v 0.698014 -0.014848 -0.289513
v 0.642087 -0.279501 -0.289513
v 0.551994 -0.566977 -0.289513
v 0.489140 -0.502607 -0.289513
v 0.295893 -0.733723 -0.289513
v 0.262455 -0.650200 -0.289513
v -0.004525 -0.789770 -0.289513
v -0.003454 -0.699809 -0.289513
v -0.303525 -0.726586 -0.289513
v -0.268108 -0.643883 -0.289513
v -0.555584 -0.553790 -0.289513
v -0.491214 -0.490935 -0.289513
v -0.722330 -0.297688 -0.289513
v -0.638806 -0.264251 -0.289513
v -0.778377 0.002730 -0.289514
v -0.688416 0.001659 -0.289513
v -0.715193 0.301729 -0.289514
v -0.632490 0.266312 -0.289514
v -0.542397 0.553788 -0.289514
v -0.479542 0.489418 -0.289514
v -0.286295 0.720534 -0.289514
v -0.252858 0.637011 -0.289514
v 0.014123 0.776581 -0.289514
v 0.013052 0.686620 -0.289513
v 0.313122 0.713397 -0.289513
v 0.277706 0.630694 -0.289513
v 0.565181 0.540601 -0.289513
v 0.500812 0.477746 -0.289513
v 0.731927 0.284499 -0.289513
v 0.648404 0.251062 -0.289513
v 0.583016 -0.254205 -0.125795
v 0.633758 -0.014083 -0.125795
v 0.174800 0.025122 -0.125795
v 0.147435 -0.104377 -0.125795
v 0.444245 -0.456631 -0.125795
v 0.238573 -0.590542 -0.125795
v 0.036515 -0.176596 -0.125795
v -0.002689 -0.635554 -0.125795
v -0.242812 -0.584811 -0.125795
v -0.092983 -0.149230 -0.125795
v -0.445238 -0.446041 -0.125795
v -0.579149 -0.240368 -0.125795
v -0.165202 -0.038311 -0.125795
v -0.624160 0.000894 -0.125795
v -0.573418 0.241016 -0.125795
v -0.137837 0.091188 -0.125795
v -0.434647 0.443442 -0.125795
v -0.228975 0.577354 -0.125795
v -0.026917 0.163407 -0.125795
v 0.012288 0.622364 -0.125795
v 0.252409 0.571622 -0.125795
v 0.102581 0.136041 -0.125795
v 0.454835 0.432852 -0.125795
v 0.588747 0.227179 -0.125795
v 0.133094 -0.094546 -0.255133
v 0.157709 0.021933 -0.255133
v 0.004799 -0.006594 -0.255133
v 0.033327 -0.159504 -0.255133
v -0.083152 -0.134890 -0.255133
v -0.148111 -0.035122 -0.255133
v -0.123496 0.081357 -0.255133
v -0.023728 0.146315 -0.255133
v 0.092750 0.121701 -0.255133
v 0.787974 -0.015919 0.331030
v 0.724790 -0.314918 0.331030
v 0.004799 -0.006594 0.331030
v 0.551994 -0.566977 0.331030
v 0.295893 -0.733723 0.331030
v -0.004525 -0.789770 0.331030
v -0.303525 -0.726586 0.331031
v -0.555584 -0.553790 0.331031
v -0.722330 -0.297688 0.331031
v -0.778377 0.002730 0.331031
v -0.715193 0.301729 0.331031
v -0.542397 0.553788 0.331031
v -0.286295 0.720534 0.331031
v 0.014123 0.776581 0.331031
v 0.313122 0.713397 0.331031
v 0.565181 0.540601 0.331031
v 0.731927 0.284499 0.331030
v 0.724790 -0.314918 0.091057
v 0.787975 -0.015919 0.091057
v 0.004799 -0.006594 0.092520
v 0.551994 -0.566977 0.091057
v 0.295893 -0.733723 0.091057
v -0.004525 -0.789770 0.091057
v -0.303524 -0.726586 0.091057
v -0.552035 -0.554756 0.091057
v -0.722330 -0.297688 0.091057
v -0.778377 0.002730 0.091057
v -0.715193 0.301729 0.091057
v -0.542397 0.553788 0.091057
v -0.286295 0.720534 0.091057
v 0.014123 0.776581 0.091057
v 0.313122 0.713397 0.091057
v 0.565182 0.540601 0.091057
v 0.731927 0.284499 0.091057
vt 0.870500 0.812164
vt 0.936646 0.986955
vt 0.936646 0.812164
vt 0.870500 0.986955
vt 0.992722 0.986955
vt 0.992722 0.812164
vt 0.010397 0.812164
vt 0.066473 0.986956
vt 0.066473 0.812164
vt 0.010397 0.986956
vt 0.132619 0.986956
vt 0.132619 0.812164
vt 0.198765 0.986956
vt 0.198765 0.812164
vt 0.255483 0.986956
vt 0.255483 0.812164
vt 0.312201 0.986956
vt 0.312201 0.812164
vt 0.378347 0.986956
vt 0.378347 0.812164
vt 0.444493 0.986956
vt 0.444493 0.812164
vt 0.500569 0.986956
vt 0.500569 0.812164
vt 0.556645 0.986955
vt 0.556645 0.812164
vt 0.622791 0.986955
vt 0.622791 0.812164
vt 0.688937 0.986955
vt 0.688937 0.812164
vt 0.746645 0.986955
vt 0.746645 0.812164
vt 0.804353 0.986955
vt 0.804353 0.812164
vt 0.991394 0.425864
vt 0.906255 0.531567
vt 0.940222 0.553684
vt 0.951549 0.418430
vt 0.989757 0.288191
vt 0.950099 0.296571
vt 0.935559 0.161625
vt 0.902127 0.184543
vt 0.837052 0.065433
vt 0.814935 0.099401
vt 0.709232 0.014261
vt 0.701798 0.054106
vt 0.571559 0.015898
vt 0.579939 0.055556
vt 0.444993 0.070096
vt 0.467911 0.103528
vt 0.348801 0.168604
vt 0.382769 0.190720
vt 0.297629 0.296423
vt 0.337474 0.303858
vt 0.299266 0.434096
vt 0.338924 0.425716
vt 0.353464 0.560663
vt 0.386896 0.537744
vt 0.451971 0.656854
vt 0.474088 0.622887
vt 0.579791 0.708026
vt 0.587225 0.668181
vt 0.717464 0.706389
vt 0.709084 0.666732
vt 0.844030 0.652191
vt 0.821112 0.618759
vt 0.895482 0.407969
vt 0.694731 0.410183
vt 0.858459 0.500447
vt 0.714698 0.360309
vt 0.894297 0.308363
vt 0.855085 0.216791
vt 0.693550 0.310924
vt 0.783815 0.147196
vt 0.691337 0.110173
vt 0.643677 0.290958
vt 0.591730 0.111358
vt 0.500159 0.150570
vt 0.594292 0.312105
vt 0.430564 0.221840
vt 0.393541 0.314318
vt 0.574326 0.361978
vt 0.394726 0.413925
vt 0.433938 0.505496
vt 0.595473 0.411363
vt 0.505208 0.575091
vt 0.597686 0.612114
vt 0.645346 0.431330
vt 0.697293 0.610930
vt 0.788864 0.571717
vt 0.689285 0.360611
vt 0.644511 0.361144
vt 0.676547 0.392426
vt 0.675794 0.329108
vt 0.643979 0.316371
vt 0.612476 0.329861
vt 0.599739 0.361676
vt 0.613229 0.393179
vt 0.645044 0.405917
vt 0.200023 0.464302
vt 0.181330 0.632540
vt 0.262982 0.484262
vt 0.313510 0.526796
vt 0.343915 0.585428
vt 0.349568 0.651233
vt 0.329608 0.714192
vt 0.287074 0.764720
vt 0.228441 0.795125
vt 0.162637 0.800778
vt 0.099678 0.780818
vt 0.049149 0.738284
vt 0.018745 0.679651
vt 0.013092 0.613847
vt 0.033052 0.550888
vt 0.075586 0.500359
vt 0.134218 0.469955
vt 0.571925 0.013831
vn 0.978400 -0.206800 -0.000000
vn 0.824800 -0.565400 -0.000000
vn 0.545600 -0.838000 -0.000000
vn 0.183400 -0.983000 -0.000000
vn -0.206800 -0.978400 -0.000000
vn -0.565400 -0.824800 -0.000000
vn -0.838000 -0.545600 -0.000000
vn -0.983000 -0.183400 -0.000000
vn -0.978400 0.206800 0.000000
vn -0.824800 0.565400 0.000000
vn -0.545600 0.838000 0.000000
vn -0.183400 0.983000 0.000000
vn 0.206800 0.978400 0.000000
vn 0.565400 0.824800 0.000000
vn 0.838000 0.545600 0.000000
vn 0.983000 0.183400 0.000000
vn -0.000000 0.000000 -1.000000
vn -0.000000 0.000000 1.000000
vn -0.913100 0.192900 -0.359300
vn -0.913100 0.193000 -0.359300
vn -0.917400 -0.171200 -0.359300
vn -0.782100 -0.509200 -0.359300
vn -0.527700 -0.769700 -0.359300
vn -0.192900 -0.913100 -0.359300
vn 0.171200 -0.917400 -0.359300
vn 0.509200 -0.782100 -0.359300
vn 0.769700 -0.527700 -0.359300
vn 0.913100 -0.192900 -0.359300
vn 0.917400 0.171200 -0.359300
vn 0.782100 0.509200 -0.359300
vn 0.527700 0.769700 -0.359300
vn 0.192900 0.913100 -0.359300
vn 0.193000 0.913100 -0.359300
vn -0.171200 0.917400 -0.359300
vn -0.509200 0.782100 -0.359300
vn -0.769700 0.527700 -0.359300
vn 0.970900 -0.205200 -0.123200
vn 0.970900 -0.205200 -0.123300
vn 0.831600 0.541500 -0.123200
vn 0.205200 0.970900 -0.123200
vn -0.541500 0.831600 -0.123300
vn -0.970900 0.205200 -0.123200
vn -0.970900 0.205200 -0.123300
vn -0.831600 -0.541500 -0.123200
vn -0.205200 -0.970900 -0.123200
vn -0.205200 -0.970900 -0.123300
vn 0.541500 -0.831600 -0.123200
vn 0.541500 -0.831600 -0.123300
vn -0.001700 0.000700 -1.000000
vn -0.001500 0.001000 -1.000000
vn -0.001900 0.000400 -1.000000
vn -0.001300 0.001300 -1.000000
vn -0.001000 0.001600 -1.000000
vn 0.000000 0.001900 -1.000000
vn 0.000400 0.001800 -1.000000
vn -0.000300 0.001900 -1.000000
vn 0.000700 0.001700 -1.000000
vn 0.001100 0.001600 -1.000000
vn 0.001700 0.000700 -1.000000
vn 0.001600 0.001100 -1.000000
vn 0.001900 0.000300 -1.000000
vn 0.001700 -0.000700 -1.000000
vn 0.001900 -0.000400 -1.000000
vn 0.001600 -0.001100 -1.000000
vn 0.000700 -0.001700 -1.000000
vn 0.001000 -0.001600 -1.000000
vn 0.000300 -0.001900 -1.000000
vn -0.000700 -0.001700 -1.000000
vn -0.000400 -0.001900 -1.000000
vn -0.001100 -0.001600 -1.000000
vn -0.001700 -0.000700 -1.000000
vn -0.001600 -0.001000 -1.000000
vn -0.001900 -0.000300 -1.000000
usemtl 03_-_Default
s 1
f 1/1/1 3/2/1 2/3/1
f 1/1/1 4/4/1 3/2/1
f 2/3/2 6/5/2 5/6/2
f 6/5/2 2/3/2 3/2/2
f 7/7/3 9/8/3 8/9/3
f 9/8/3 7/7/3 10/10/3
f 8/9/4 12/11/4 11/12/4
f 12/11/4 8/9/4 9/8/4
f 11/12/5 14/13/5 13/14/5
f 14/13/5 11/12/5 12/11/5
f 13/14/6 16/15/6 15/16/6
f 16/15/6 13/14/6 14/13/6
f 15/16/7 18/17/7 17/18/7
f 18/17/7 15/16/7 16/15/7
f 17/18/8 20/19/8 19/20/8
f 20/19/8 17/18/8 18/17/8
f 19/20/9 22/21/9 21/22/9
f 22/21/9 19/20/9 20/19/9
f 21/22/10 24/23/10 23/24/10
f 24/23/10 21/22/10 22/21/10
f 23/24/11 26/25/11 25/26/11
f 26/25/11 23/24/11 24/23/11
f 25/26/12 28/27/12 27/28/12
f 28/27/12 25/26/12 26/25/12
f 27/28/13 30/29/13 29/30/13
f 30/29/13 27/28/13 28/27/13
f 29/30/14 32/31/14 31/32/14
f 32/31/14 29/30/14 30/29/14
f 31/32/15 34/33/15 33/34/15
f 34/33/15 31/32/15 32/31/15
f 33/34/16 4/4/16 1/1/16
f 4/4/16 33/34/16 34/33/16
f 35/35/17 37/36/17 36/37/17
f 37/36/17 35/35/17 38/38/17
f 39/39/17 38/38/17 35/35/17
f 38/38/17 39/39/17 40/40/17
f 41/41/17 40/40/17 39/39/17
f 40/40/17 41/41/17 42/42/17
f 43/43/17 42/42/17 41/41/17
f 42/42/17 43/43/17 44/44/17
f 45/45/17 44/44/17 43/43/17
f 44/44/17 45/45/17 46/46/17
f 47/47/17 46/46/17 45/45/17
f 46/46/17 47/47/17 48/48/17
f 49/49/17 48/48/17 47/47/17
f 48/48/17 49/49/17 50/50/17
f 51/51/17 50/50/17 49/49/17
f 50/50/17 51/51/17 52/52/17
f 53/53/17 52/52/17 51/51/17
f 52/52/17 53/53/17 54/54/17
f 55/55/17 54/54/17 53/53/17
f 54/54/17 55/55/17 56/56/17
f 57/57/17 56/56/17 55/55/17
f 56/56/17 57/57/17 58/58/17
f 59/59/17 58/58/17 57/57/17
f 58/58/17 59/59/17 60/60/17
f 61/61/17 60/60/17 59/59/17
f 60/60/17 61/61/17 62/62/17
f 63/63/17 62/62/17 61/61/17
f 62/62/17 63/63/17 64/64/17
f 65/65/17 64/64/17 63/63/17
f 64/64/17 65/65/17 66/66/17
f 36/37/17 66/66/17 65/65/17
f 66/66/17 36/37/17 37/36/17
f 67/67/17 69/68/17 68/69/17
f 69/68/17 67/67/17 70/70/17
f 71/71/17 70/70/17 67/67/17
f 72/72/17 70/70/17 71/71/17
f 70/70/17 72/72/17 73/73/17
f 74/74/17 73/73/17 72/72/17
f 75/75/17 73/73/17 74/74/17
f 73/73/17 75/75/17 76/76/17
f 77/77/17 76/76/17 75/75/17
f 78/78/17 76/76/17 77/77/17
f 76/76/17 78/78/17 79/79/17
f 80/80/17 79/79/17 78/78/17
f 81/81/17 79/79/17 80/80/17
f 79/79/17 81/81/17 82/82/17
f 83/83/17 82/82/17 81/81/17
f 84/84/17 82/82/17 83/83/17
f 82/82/17 84/84/17 85/85/17
f 86/86/17 85/85/17 84/84/17
f 87/87/17 85/85/17 86/86/17
f 85/85/17 87/87/17 88/88/17
f 89/89/17 88/88/17 87/87/17
f 90/90/17 88/88/17 89/89/17
f 88/88/17 90/90/17 69/68/17
f 68/69/17 69/68/17 90/90/17
f 91/91/17 93/92/17 92/93/17
f 94/94/17 93/92/17 91/91/17
f 95/95/17 93/92/17 94/94/17
f 96/96/17 93/92/17 95/95/17
f 97/97/17 93/92/17 96/96/17
f 98/98/17 93/92/17 97/97/17
f 99/99/17 93/92/17 98/98/17
f 92/93/17 93/92/17 99/99/17
f 100/100/18 102/101/18 101/102/18
f 101/102/18 102/101/18 103/103/18
f 103/103/18 102/101/18 104/104/18
f 104/104/18 102/101/18 105/105/18
f 105/105/18 102/101/18 106/106/18
f 106/106/18 102/101/18 107/107/18
f 107/107/18 102/101/18 108/108/18
f 108/108/18 102/101/18 109/109/18
f 109/109/18 102/101/18 110/110/18
f 110/110/18 102/101/18 111/111/18
f 111/111/18 102/101/18 112/112/18
f 112/112/18 102/101/18 113/113/18
f 113/113/18 102/101/18 114/114/18
f 114/114/18 102/101/18 115/115/18
f 115/115/18 102/101/18 116/116/18
f 116/116/18 102/101/18 100/100/18
f 38/38/19 68/69/20 37/36/20
f 68/69/20 38/38/19 67/67/19
f 37/36/21 90/90/21 66/66/21
f 90/90/21 37/36/21 68/69/21
f 66/66/22 89/89/22 64/64/22
f 89/89/22 66/66/22 90/90/22
f 64/64/23 87/87/23 62/62/23
f 87/87/23 64/64/23 89/89/23
f 62/62/24 86/86/24 60/60/24
f 86/86/24 62/62/24 87/87/24
f 60/60/25 84/84/25 58/58/25
f 84/84/25 60/60/25 86/86/25
f 58/58/26 83/83/26 56/56/26
f 83/83/26 58/58/26 84/84/26
f 56/56/27 81/81/27 54/54/27
f 81/81/27 56/56/27 83/83/27
f 54/54/28 80/80/28 52/52/28
f 80/80/28 54/54/28 81/81/28
f 52/52/29 78/78/29 50/50/29
f 78/78/29 52/52/29 80/80/29
f 50/50/30 77/77/30 48/48/30
f 77/77/30 50/50/30 78/78/30
f 48/48/31 75/75/31 46/46/31
f 75/75/31 48/48/31 77/77/31
f 46/46/32 74/74/32 44/44/32
f 74/74/32 46/46/32 75/75/33
f 44/44/34 72/72/34 42/42/34
f 72/72/34 44/44/34 74/74/34
f 42/42/35 71/71/35 40/40/35
f 71/71/35 42/42/35 72/72/35
f 40/40/36 67/67/36 38/38/36
f 67/67/36 40/40/36 71/71/36
f 70/70/37 92/93/37 69/68/37
f 92/93/37 70/70/37 91/91/38
f 69/68/39 99/99/39 88/88/39
f 99/99/39 69/68/39 92/93/39
f 88/88/40 98/98/40 85/85/40
f 98/98/40 88/88/40 99/99/40
f 85/85/41 97/97/41 82/82/41
f 97/97/41 85/85/41 98/98/41
f 82/82/42 96/96/42 79/79/42
f 96/96/42 82/82/42 97/97/43
f 79/79/44 95/95/44 76/76/44
f 95/95/44 79/79/44 96/96/44
f 76/76/45 94/94/45 73/73/46
f 94/94/45 76/76/45 95/95/45
f 73/73/47 91/91/47 70/70/48
f 91/91/47 73/73/47 94/94/47
f 117/35/49 119/92/50 118/37/51
f 120/39/52 119/92/50 117/35/49
f 121/41/53 119/92/50 120/39/52
f 122/43/54 119/92/55 121/41/56
f 123/45/57 119/92/55 122/43/54
f 123/45/57 124/117/58 119/92/55
f 125/49/59 119/92/59 124/117/60
f 126/51/61 119/92/59 125/49/59
f 127/53/62 119/92/62 126/51/63
f 128/55/64 119/92/62 127/53/62
f 129/57/65 119/92/65 128/55/66
f 130/59/67 119/92/65 129/57/65
f 131/61/68 119/92/68 130/59/69
f 132/63/70 119/92/68 131/61/68
f 133/65/71 119/92/71 132/63/72
f 118/37/73 119/92/71 133/65/71
