# Blender v2.76 (sub 0) OBJ File: 'HEAT.blend'
# www.blender.org
mtllib HEAT.mtl
o Cylinder01
v -0.000926 0.000953 0.015243
v -0.000926 0.010799 0.012044
v -0.000926 0.016885 0.003668
v -0.000926 0.016885 -0.006686
v -0.000926 0.010799 -0.015062
v -0.000926 0.000953 -0.018262
v -0.000926 -0.008894 -0.015062
v -0.000926 -0.014980 -0.006686
v -0.000926 -0.014980 0.003668
v -0.000926 -0.008894 0.012044
v -0.112570 0.000953 0.015902
v -0.112570 0.011187 0.012577
v -0.112570 0.017511 0.003871
v -0.112570 0.017511 -0.006889
v -0.112570 0.011187 -0.015595
v -0.112570 0.000953 -0.018920
v -0.112570 -0.009281 -0.015595
v -0.112570 -0.015606 -0.006889
v -0.112570 -0.015606 0.003871
v -0.112570 -0.009281 0.012577
v -0.182684 0.000953 0.050313
v -0.182684 0.031413 0.040416
v -0.182684 0.050238 0.014505
v -0.182684 0.050238 -0.017523
v -0.182684 0.031413 -0.043434
v -0.182684 0.000953 -0.053331
v -0.182684 -0.029508 -0.043434
v -0.182684 -0.048333 -0.017523
v -0.182684 -0.048333 0.014505
v -0.182684 -0.029508 0.040416
v -0.248207 0.000953 0.050313
v -0.248207 0.031413 0.040416
v -0.248207 0.050238 0.014505
v -0.248207 0.050238 -0.017523
v -0.248207 0.031413 -0.043434
v -0.248207 0.000953 -0.053331
v -0.248207 -0.029508 -0.043434
v -0.248207 -0.048333 -0.017523
v -0.248207 -0.048333 0.014505
v -0.248207 -0.029508 0.040416
v -0.382716 0.000953 0.011678
v -0.382716 0.008704 0.009160
v -0.382716 0.013494 0.002566
v -0.382716 0.013494 -0.005584
v -0.382716 0.008704 -0.012178
v -0.382716 0.000953 -0.014696
v -0.382716 -0.006799 -0.012178
v -0.382716 -0.011589 -0.005584
v -0.382716 -0.011589 0.002566
v -0.382716 -0.006799 0.009160
v -0.415506 0.000953 0.010593
v -0.415506 0.008066 0.008282
v -0.415506 0.012463 0.002231
v -0.415506 0.012463 -0.005249
v -0.415506 0.008066 -0.011300
v -0.415506 0.000953 -0.013611
v -0.415506 -0.006161 -0.011300
v -0.415506 -0.010557 -0.005249
v -0.415506 -0.010557 0.002231
v -0.415506 -0.006161 0.008282
v -0.083169 0.010993 0.012310
v -0.083169 0.000953 0.015573
v -0.083169 0.017198 0.003769
v -0.083169 0.017198 -0.006788
v -0.083169 0.010993 -0.015329
v -0.083169 0.000953 -0.018591
v -0.083169 -0.009088 -0.015329
v -0.083169 -0.015293 -0.006788
v -0.083169 -0.015293 0.003769
v -0.083169 -0.009088 0.012310
v -0.003143 0.000000 -0.017794
v -0.003143 0.000000 -0.036303
v -0.086244 -0.000000 -0.017794
v -0.037705 -0.000000 -0.036303
v -0.003143 0.002252 -0.017794
v -0.003143 0.002252 -0.036303
v -0.086244 0.002252 -0.017794
v -0.037705 0.002252 -0.036303
v -0.003143 0.000000 0.015021
v -0.003143 0.000000 0.033531
v -0.086244 -0.000000 0.015021
v -0.037705 -0.000000 0.033531
v -0.003143 0.002252 0.015021
v -0.003143 0.002252 0.033531
v -0.086244 0.002252 0.015021
v -0.037705 0.002252 0.033531
v -0.003143 0.013560 0.007600
v -0.003143 0.028123 0.019023
v -0.086244 0.013560 0.007600
v -0.037705 0.028123 0.019023
v -0.003143 0.014949 0.005828
v -0.003143 0.029513 0.017251
v -0.086244 0.014949 0.005828
v -0.037705 0.029513 0.017251
v -0.003143 0.012955 -0.012485
v -0.003143 0.028529 -0.022487
v -0.086244 0.012955 -0.012485
v -0.037705 0.028529 -0.022487
v -0.003143 0.014172 -0.010590
v -0.003143 0.029746 -0.020592
v -0.086244 0.014172 -0.010590
v -0.037705 0.029746 -0.020592
v -0.003143 -0.010994 0.007866
v -0.003143 -0.025558 0.019289
v -0.086244 -0.010994 0.007866
v -0.037705 -0.025558 0.019289
v -0.003143 -0.012384 0.006094
v -0.003143 -0.026947 0.017518
v -0.086244 -0.012384 0.006094
v -0.037705 -0.026947 0.017518
v -0.003143 -0.010893 -0.011896
v -0.003143 -0.025457 -0.023319
v -0.086244 -0.010893 -0.011896
v -0.037705 -0.025457 -0.023319
v -0.003143 -0.012283 -0.010124
v -0.003143 -0.026847 -0.021547
v -0.086244 -0.012283 -0.010124
v -0.037705 -0.026847 -0.021547
v -0.083169 0.017198 -0.006788
v -0.083169 0.017198 -0.006788
v -0.000926 0.016885 -0.006686
v -0.112570 0.017511 -0.006889
v -0.182684 0.050238 -0.017523
v -0.112570 0.017511 -0.006889
v -0.182684 0.050238 -0.017523
v -0.248207 0.050238 -0.017523
v -0.182684 0.050238 -0.017523
v -0.248207 0.050238 -0.017523
v -0.382716 0.013494 -0.005584
v -0.248207 0.050238 -0.017523
v -0.382716 0.013494 -0.005584
v -0.415506 0.012463 -0.005249
v -0.382716 0.013494 -0.005584
v -0.000926 -0.014980 0.003668
v -0.000926 -0.014980 -0.006686
v -0.000926 -0.008894 -0.015062
v -0.000926 -0.008894 -0.015062
v -0.000926 0.000953 -0.018262
v -0.000926 0.010799 -0.015062
v -0.000926 0.010799 -0.015062
v -0.000926 0.016885 -0.006686
v -0.000926 0.016885 0.003668
v -0.000926 0.016885 0.003668
v -0.000926 0.010799 0.012044
v -0.000926 0.000953 0.015243
v -0.000926 0.010799 -0.015062
v -0.000926 0.016885 0.003668
v -0.000926 0.000953 0.015243
v -0.000926 -0.008894 -0.015062
v -0.000926 0.010799 -0.015062
v -0.000926 0.000953 0.015243
v -0.000926 -0.014980 0.003668
v -0.000926 -0.008894 -0.015062
v -0.000926 0.000953 0.015243
v -0.000926 -0.008894 0.012044
v -0.000926 -0.014980 0.003668
v -0.000926 0.000953 0.015243
v -0.415506 0.008066 0.008282
v -0.415506 0.012463 0.002231
v -0.415506 0.012463 -0.005249
v -0.415506 0.012463 -0.005249
v -0.415506 0.008066 -0.011300
v -0.415506 0.000953 -0.013611
v -0.415506 0.000953 -0.013611
v -0.415506 -0.006161 -0.011300
v -0.415506 -0.010557 -0.005249
v -0.415506 -0.010557 -0.005249
v -0.415506 -0.010557 0.002231
v -0.415506 -0.006161 0.008282
v -0.415506 0.000953 -0.013611
v -0.415506 -0.010557 -0.005249
v -0.415506 -0.006161 0.008282
v -0.415506 0.012463 -0.005249
v -0.415506 0.000953 -0.013611
v -0.415506 -0.006161 0.008282
v -0.415506 0.008066 0.008282
v -0.415506 0.012463 -0.005249
v -0.415506 -0.006161 0.008282
v -0.415506 0.000953 0.010593
v -0.415506 0.008066 0.008282
v -0.415506 -0.006161 0.008282
v -0.112570 0.017511 -0.006889
v -0.083169 0.017198 -0.006788
v -0.083169 0.017198 -0.006788
v -0.003143 0.000000 -0.017794
v -0.003143 0.000000 -0.036303
v -0.003143 0.002252 -0.036303
v -0.003143 0.002252 -0.036303
v -0.003143 0.002252 -0.017794
v -0.003143 0.000000 -0.017794
v -0.003143 0.000000 -0.036303
v -0.037705 -0.000000 -0.036303
v -0.037705 0.002252 -0.036303
v -0.037705 0.002252 -0.036303
v -0.003143 0.002252 -0.036303
v -0.003143 0.000000 -0.036303
v -0.037705 -0.000000 -0.036303
v -0.086244 -0.000000 -0.017794
v -0.086244 0.002252 -0.017794
v -0.086244 0.002252 -0.017794
v -0.037705 0.002252 -0.036303
v -0.037705 -0.000000 -0.036303
v -0.003143 0.000000 0.015021
v -0.003143 0.002252 0.015021
v -0.003143 0.002252 0.033531
v -0.003143 0.002252 0.033531
v -0.003143 0.000000 0.033531
v -0.003143 0.000000 0.015021
v -0.003143 0.000000 0.033531
v -0.003143 0.002252 0.033531
v -0.037705 0.002252 0.033531
v -0.037705 0.002252 0.033531
v -0.037705 -0.000000 0.033531
v -0.003143 0.000000 0.033531
v -0.037705 -0.000000 0.033531
v -0.037705 0.002252 0.033531
v -0.086244 0.002252 0.015021
v -0.086244 0.002252 0.015021
v -0.086244 -0.000000 0.015021
v -0.037705 -0.000000 0.033531
v -0.003143 0.013560 0.007600
v -0.003143 0.014949 0.005828
v -0.003143 0.029513 0.017251
v -0.003143 0.029513 0.017251
v -0.003143 0.028123 0.019023
v -0.003143 0.013560 0.007600
v -0.003143 0.028123 0.019023
v -0.003143 0.029513 0.017251
v -0.037705 0.029513 0.017251
v -0.037705 0.029513 0.017251
v -0.037705 0.028123 0.019023
v -0.003143 0.028123 0.019023
v -0.037705 0.028123 0.019023
v -0.037705 0.029513 0.017251
v -0.086244 0.014949 0.005828
v -0.086244 0.014949 0.005828
v -0.086244 0.013560 0.007600
v -0.037705 0.028123 0.019023
v -0.003143 0.012955 -0.012485
v -0.003143 0.028529 -0.022487
v -0.003143 0.029746 -0.020592
v -0.003143 0.029746 -0.020592
v -0.003143 0.014172 -0.010590
v -0.003143 0.012955 -0.012485
v -0.003143 0.028529 -0.022487
v -0.037705 0.028529 -0.022487
v -0.037705 0.029746 -0.020592
v -0.037705 0.029746 -0.020592
v -0.003143 0.029746 -0.020592
v -0.003143 0.028529 -0.022487
v -0.037705 0.028529 -0.022487
v -0.086244 0.012955 -0.012485
v -0.086244 0.014172 -0.010590
v -0.086244 0.014172 -0.010590
v -0.037705 0.029746 -0.020592
v -0.037705 0.028529 -0.022487
v -0.003143 -0.010994 0.007866
v -0.003143 -0.025558 0.019289
v -0.003143 -0.026947 0.017518
v -0.003143 -0.026947 0.017518
v -0.003143 -0.012384 0.006094
v -0.003143 -0.010994 0.007866
v -0.003143 -0.025558 0.019289
v -0.037705 -0.025558 0.019289
v -0.037705 -0.026947 0.017518
v -0.037705 -0.026947 0.017518
v -0.003143 -0.026947 0.017518
v -0.003143 -0.025558 0.019289
v -0.037705 -0.025558 0.019289
v -0.086244 -0.010994 0.007866
v -0.086244 -0.012384 0.006094
v -0.086244 -0.012384 0.006094
v -0.037705 -0.026947 0.017518
v -0.037705 -0.025558 0.019289
v -0.003143 -0.010893 -0.011896
v -0.003143 -0.012283 -0.010124
v -0.003143 -0.026847 -0.021547
v -0.003143 -0.026847 -0.021547
v -0.003143 -0.025457 -0.023319
v -0.003143 -0.010893 -0.011896
v -0.003143 -0.025457 -0.023319
v -0.003143 -0.026847 -0.021547
v -0.037705 -0.026847 -0.021547
v -0.037705 -0.026847 -0.021547
v -0.037705 -0.025457 -0.023319
v -0.003143 -0.025457 -0.023319
v -0.037705 -0.025457 -0.023319
v -0.037705 -0.026847 -0.021547
v -0.086244 -0.012283 -0.010124
v -0.086244 -0.012283 -0.010124
v -0.086244 -0.010893 -0.011896
v -0.037705 -0.025457 -0.023319
vt 0.852486 0.261789
vt 0.852486 0.306208
vt 0.808067 0.306208
vt 0.808067 0.261789
vt 0.896905 0.261789
vt 0.896905 0.306208
vt 0.941325 0.261789
vt 0.941325 0.306208
vt 0.541553 0.261789
vt 0.541553 0.306208
vt 0.497134 0.306208
vt 0.497134 0.261789
vt 0.585972 0.261789
vt 0.585972 0.306208
vt 0.630391 0.261789
vt 0.630391 0.306208
vt 0.674810 0.261789
vt 0.674810 0.306208
vt 0.719229 0.261789
vt 0.719229 0.306208
vt 0.763648 0.261789
vt 0.763648 0.306208
vt 0.808067 0.350627
vt 0.852486 0.350627
vt 0.852486 0.439465
vt 0.808067 0.439465
vt 0.896905 0.350627
vt 0.896905 0.439465
vt 0.941325 0.350627
vt 0.941325 0.439465
vt 0.497134 0.350627
vt 0.541553 0.350627
vt 0.541553 0.439465
vt 0.497134 0.439465
vt 0.585972 0.350627
vt 0.585972 0.439465
vt 0.630391 0.350627
vt 0.630391 0.439465
vt 0.674810 0.350627
vt 0.674810 0.439465
vt 0.719229 0.350627
vt 0.719229 0.439465
vt 0.763648 0.350627
vt 0.763648 0.439465
vt 0.852486 0.528303
vt 0.808067 0.528303
vt 0.896905 0.528303
vt 0.941325 0.528303
vt 0.541553 0.528303
vt 0.497134 0.528303
vt 0.585972 0.528303
vt 0.630391 0.528303
vt 0.674810 0.528303
vt 0.719229 0.528303
vt 0.763648 0.528303
vt 0.852486 0.617141
vt 0.808067 0.617141
vt 0.896905 0.617141
vt 0.941325 0.617141
vt 0.541553 0.617141
vt 0.497134 0.617141
vt 0.585972 0.617141
vt 0.630391 0.617141
vt 0.674810 0.617141
vt 0.719229 0.617141
vt 0.763648 0.617141
vt 0.852486 0.705980
vt 0.808067 0.705980
vt 0.896905 0.705980
vt 0.941325 0.705980
vt 0.541553 0.705980
vt 0.497134 0.705980
vt 0.585972 0.705980
vt 0.630391 0.705980
vt 0.674810 0.705980
vt 0.719229 0.705980
vt 0.763648 0.705980
vt 0.937737 0.811804
vt 0.937737 0.776309
vt 0.916874 0.747593
vt 0.883117 0.736625
vt 0.849359 0.747593
vt 0.828496 0.776309
vt 0.828496 0.811804
vt 0.849359 0.840519
vt 0.883117 0.851488
vt 0.916874 0.840519
vt 0.645260 0.816834
vt 0.634972 0.802674
vt 0.634972 0.785170
vt 0.645260 0.771009
vt 0.661907 0.765601
vt 0.678554 0.771009
vt 0.688843 0.785170
vt 0.688843 0.802674
vt 0.678554 0.816834
vt 0.661907 0.822243
vt 0.018459 0.814674
vt 0.487221 0.814674
vt 0.213420 0.895508
vt 0.018459 0.895508
vt 0.018617 0.801220
vt 0.018617 0.721133
vt 0.211093 0.721133
vt 0.481403 0.801220
vt 0.019296 0.963746
vt 0.124036 0.963746
vt 0.124036 0.976488
vt 0.019296 0.976488
vt 0.017417 0.907502
vt 0.213000 0.907502
vt 0.213000 0.920245
vt 0.017417 0.920245
vt 0.487674 0.907502
vt 0.487674 0.920245
vt 0.017862 0.801600
vt 0.017862 0.720169
vt 0.210213 0.720169
vt 0.480349 0.801600
vt 0.019405 0.814731
vt 0.487420 0.814731
vt 0.214055 0.895565
vt 0.019405 0.895565
vt 0.124079 0.964095
vt 0.124079 0.976838
vt 0.019340 0.976838
vt 0.019340 0.964095
vt 0.018765 0.919540
vt 0.018765 0.906797
vt 0.214348 0.906797
vt 0.214348 0.919540
vt 0.489021 0.906797
vt 0.489021 0.919540
vt 0.018374 0.802088
vt 0.018374 0.720624
vt 0.211705 0.720624
vt 0.483216 0.802087
vt 0.018374 0.814547
vt 0.483216 0.814547
vt 0.211705 0.896011
vt 0.018374 0.896011
vt 0.122063 0.964274
vt 0.122025 0.976870
vt 0.018492 0.976561
vt 0.018530 0.963965
vt 0.488630 0.908470
vt 0.487485 0.918315
vt 0.295449 0.918315
vt 0.296594 0.908471
vt 0.018374 0.917396
vt 0.016605 0.907551
vt 0.019405 0.814295
vt 0.487420 0.814295
vt 0.214055 0.895702
vt 0.019405 0.895702
vt 0.018554 0.801049
vt 0.018554 0.720388
vt 0.210719 0.720388
vt 0.480593 0.801049
vt 0.123412 0.976934
vt 0.018673 0.976474
vt 0.018729 0.963732
vt 0.123468 0.964192
vt 0.016730 0.906982
vt 0.212313 0.906982
vt 0.212313 0.917704
vt 0.016730 0.917704
vt 0.486986 0.906766
vt 0.486986 0.917488
vt 0.018626 0.814523
vt 0.484026 0.814523
vt 0.212189 0.896488
vt 0.018626 0.896488
vt 0.018626 0.800778
vt 0.018626 0.720756
vt 0.210977 0.720756
vt 0.481112 0.800778
vt 0.019208 0.963867
vt 0.123947 0.963881
vt 0.123945 0.976624
vt 0.019206 0.976609
vt 0.486984 0.907670
vt 0.294979 0.908888
vt 0.293886 0.918632
vt 0.485891 0.917415
vt 0.015366 0.909033
vt 0.017186 0.918777
vt 0.018125 0.802088
vt 0.018125 0.720624
vt 0.211456 0.720624
vt 0.482967 0.802088
vt 0.018125 0.814865
vt 0.482967 0.814865
vt 0.211456 0.896329
vt 0.018125 0.896329
vt 0.019236 0.977482
vt 0.019156 0.964886
vt 0.122687 0.964222
vt 0.122768 0.976818
vt 0.488382 0.909107
vt 0.487236 0.918951
vt 0.295200 0.918952
vt 0.296345 0.909107
vt 0.018125 0.918032
vt 0.016357 0.908188
vn 0.003800 0.309000 0.951000
vn 0.003800 0.809000 0.587800
vn 0.003800 1.000000 -0.000000
vn 0.003800 0.809000 -0.587800
vn 0.003800 0.309000 -0.951000
vn 0.003800 -0.309000 -0.951000
vn 0.003800 -0.809000 -0.587800
vn 0.003800 -1.000000 -0.000000
vn 0.003800 -0.809000 0.587800
vn 0.003800 -0.309000 0.951000
vn 0.423000 0.280000 0.861800
vn 0.423000 0.733100 0.532600
vn 0.423000 0.906200 0.000000
vn 0.423000 0.733100 -0.532600
vn 0.423000 0.280000 -0.861800
vn 0.423000 -0.280000 -0.861800
vn 0.423000 -0.733100 -0.532600
vn 0.423000 -0.906200 0.000000
vn 0.423000 -0.733100 0.532600
vn 0.423000 -0.280000 0.861800
vn -0.000000 0.309000 0.951100
vn -0.000000 0.809000 0.587800
vn -0.000000 1.000000 0.000000
vn 0.000000 0.809000 -0.587800
vn -0.000000 0.309000 -0.951100
vn 0.000000 -0.309000 -0.951100
vn 0.000000 -0.809000 -0.587800
vn 0.000000 -1.000000 0.000000
vn -0.000000 -0.809000 0.587800
vn -0.000000 -0.309000 0.951100
vn -0.263500 0.298100 0.917400
vn -0.263500 0.780400 0.567000
vn -0.263500 0.964700 0.000000
vn -0.263500 0.780400 -0.567000
vn -0.263500 0.298100 -0.917400
vn -0.263500 -0.298100 -0.917400
vn -0.263500 -0.780400 -0.567000
vn -0.263500 -0.964700 0.000000
vn -0.263500 -0.780400 0.567000
vn -0.263500 -0.298100 0.917400
vn -0.031500 0.308900 0.950600
vn -0.031500 0.808600 0.587500
vn -0.031500 0.999500 0.000000
vn -0.031500 0.808600 -0.587500
vn -0.031500 0.308900 -0.950600
vn -0.031500 -0.308900 -0.950600
vn -0.031500 -0.808600 -0.587500
vn -0.031500 -0.999500 0.000000
vn -0.031500 -0.808600 0.587500
vn -0.031500 -0.308900 0.950600
vn 1.000000 0.000000 0.000000
vn -1.000000 0.000000 0.000000
vn 0.010700 0.309000 0.951000
vn 0.010700 0.809000 0.587800
vn 0.010700 0.999900 -0.000000
vn 0.010700 0.809000 -0.587800
vn 0.010700 0.309000 -0.951000
vn 0.010700 -0.309000 -0.951000
vn 0.010700 -0.809000 -0.587800
vn 0.010700 -0.999900 0.000000
vn 0.010700 -0.809000 0.587800
vn 0.010700 -0.309000 0.951000
vn -0.000000 0.000000 -1.000000
vn -0.356300 0.000000 -0.934400
vn 0.000000 0.000000 1.000000
vn -0.356300 0.000000 0.934400
vn 0.000000 -0.617200 0.786800
vn 0.000000 0.617200 -0.786800
vn -0.000000 0.786800 0.617200
vn -0.356300 0.735200 0.576700
vn 0.000000 -0.540400 -0.841400
vn -0.000000 0.540400 0.841400
vn 0.000000 0.841400 -0.540400
vn -0.356300 0.786200 -0.504900
vn -0.000000 0.617200 0.786800
vn 0.000000 -0.617200 -0.786800
vn -0.000000 -0.786800 0.617200
vn -0.356300 -0.735200 0.576700
vn 0.000000 -0.786800 -0.617200
vn -0.356300 -0.735200 -0.576700
usemtl 03_-_Default
s off
f 2/1/1 61/2/1 62/3/1
f 62/3/1 1/4/1 2/1/1
f 3/5/2 63/6/2 61/2/2
f 61/2/2 2/1/2 3/5/2
f 4/7/3 64/8/3 63/6/3
f 63/6/3 3/5/3 4/7/3
f 5/9/4 65/10/4 119/11/4
f 120/11/4 121/12/4 5/9/4
f 6/13/5 66/14/5 65/10/5
f 65/10/5 5/9/5 6/13/5
f 7/15/6 67/16/6 66/14/6
f 66/14/6 6/13/6 7/15/6
f 8/17/7 68/18/7 67/16/7
f 67/16/7 7/15/7 8/17/7
f 9/19/8 69/20/8 68/18/8
f 68/18/8 8/17/8 9/19/8
f 10/21/9 70/22/9 69/20/9
f 69/20/9 9/19/9 10/21/9
f 1/4/10 62/3/10 70/22/10
f 1/4/10 70/22/10 10/21/10
f 11/23/11 12/24/11 22/25/11
f 22/25/11 21/26/11 11/23/11
f 12/24/12 13/27/12 23/28/12
f 23/28/12 22/25/12 12/24/12
f 13/27/13 14/29/13 24/30/13
f 24/30/13 23/28/13 13/27/13
f 122/31/14 15/32/14 25/33/14
f 25/33/14 123/34/14 124/31/14
f 15/32/15 16/35/15 26/36/15
f 26/36/15 25/33/15 15/32/15
f 16/35/16 17/37/16 27/38/16
f 27/38/16 26/36/16 16/35/16
f 17/37/17 18/39/17 28/40/17
f 28/40/17 27/38/17 17/37/17
f 18/39/18 19/41/18 29/42/18
f 29/42/18 28/40/18 18/39/18
f 19/41/19 20/43/19 30/44/19
f 30/44/19 29/42/19 19/41/19
f 20/43/20 11/23/20 21/26/20
f 21/26/20 30/44/20 20/43/20
f 21/26/21 22/25/21 32/45/21
f 32/45/21 31/46/21 21/26/21
f 22/25/22 23/28/22 33/47/22
f 33/47/22 32/45/22 22/25/22
f 23/28/23 24/30/23 34/48/23
f 34/48/23 33/47/23 23/28/23
f 125/34/24 25/33/24 35/49/24
f 35/49/24 126/50/24 127/34/24
f 25/33/25 26/36/25 36/51/25
f 36/51/25 35/49/25 25/33/25
f 26/36/26 27/38/26 37/52/26
f 37/52/26 36/51/26 26/36/26
f 27/38/27 28/40/27 38/53/27
f 38/53/27 37/52/27 27/38/27
f 28/40/28 29/42/28 39/54/28
f 39/54/28 38/53/28 28/40/28
f 29/42/29 30/44/29 40/55/29
f 40/55/29 39/54/29 29/42/29
f 30/44/30 21/26/30 31/46/30
f 31/46/30 40/55/30 30/44/30
f 31/46/31 32/45/31 42/56/31
f 42/56/31 41/57/31 31/46/31
f 32/45/32 33/47/32 43/58/32
f 43/58/32 42/56/32 32/45/32
f 33/47/33 34/48/33 44/59/33
f 44/59/33 43/58/33 33/47/33
f 128/50/34 35/49/34 45/60/34
f 45/60/34 129/61/34 130/50/34
f 35/49/35 36/51/35 46/62/35
f 46/62/35 45/60/35 35/49/35
f 36/51/36 37/52/36 47/63/36
f 47/63/36 46/62/36 36/51/36
f 37/52/37 38/53/37 48/64/37
f 48/64/37 47/63/37 37/52/37
f 38/53/38 39/54/38 49/65/38
f 49/65/38 48/64/38 38/53/38
f 39/54/39 40/55/39 50/66/39
f 50/66/39 49/65/39 39/54/39
f 40/55/40 31/46/40 41/57/40
f 41/57/40 50/66/40 40/55/40
f 41/57/41 42/56/41 52/67/41
f 52/67/41 51/68/41 41/57/41
f 42/56/42 43/58/42 53/69/42
f 53/69/42 52/67/42 42/56/42
f 43/58/43 44/59/43 54/70/43
f 54/70/43 53/69/43 43/58/43
f 131/61/44 45/60/44 55/71/44
f 55/71/44 132/72/44 133/61/44
f 45/60/45 46/62/45 56/73/45
f 56/73/45 55/71/45 45/60/45
f 46/62/46 47/63/46 57/74/46
f 57/74/46 56/73/46 46/62/46
f 47/63/47 48/64/47 58/75/47
f 58/75/47 57/74/47 47/63/47
f 48/64/48 49/65/48 59/76/48
f 59/76/48 58/75/48 48/64/48
f 49/65/49 50/66/49 60/77/49
f 60/77/49 59/76/49 49/65/49
f 50/66/50 41/57/50 51/68/50
f 51/68/50 60/77/50 50/66/50
f 134/78/51 135/79/51 136/80/51
f 137/80/51 138/81/51 139/82/51
f 140/82/51 141/83/51 142/84/51
f 143/84/51 144/85/51 145/86/51
f 146/82/51 147/84/51 148/86/51
f 149/80/51 150/82/51 151/86/51
f 152/78/51 153/80/51 154/86/51
f 155/87/51 156/78/51 157/86/51
f 158/88/52 159/89/52 160/90/52
f 161/90/52 162/91/52 163/92/52
f 164/92/52 165/93/52 166/94/52
f 167/94/52 168/95/52 169/96/52
f 170/92/52 171/94/52 172/96/52
f 173/90/52 174/92/52 175/96/52
f 176/88/52 177/90/52 178/96/52
f 179/97/52 180/88/52 181/96/52
f 12/24/53 11/23/53 62/3/53
f 62/3/53 61/2/53 12/24/53
f 13/27/54 12/24/54 61/2/54
f 61/2/54 63/6/54 13/27/54
f 14/29/55 13/27/55 63/6/55
f 63/6/55 64/8/55 14/29/55
f 15/32/56 182/31/56 183/11/56
f 184/11/56 65/10/56 15/32/56
f 16/35/57 15/32/57 65/10/57
f 65/10/57 66/14/57 16/35/57
f 17/37/58 16/35/58 66/14/58
f 66/14/58 67/16/58 17/37/58
f 18/39/59 17/37/59 67/16/59
f 67/16/59 68/18/59 18/39/59
f 19/41/60 18/39/60 68/18/60
f 68/18/60 69/20/60 19/41/60
f 20/43/61 19/41/61 69/20/61
f 69/20/61 70/22/61 20/43/61
f 11/23/62 20/43/62 70/22/62
f 70/22/62 62/3/62 11/23/62
f 71/98/28 73/99/28 74/100/28
f 74/100/28 72/101/28 71/98/28
f 75/102/23 76/103/23 78/104/23
f 78/104/23 77/105/23 75/102/23
f 185/106/51 186/107/51 187/108/51
f 188/108/51 189/109/51 190/106/51
f 191/110/63 192/111/63 193/112/63
f 194/112/63 195/113/63 196/110/63
f 197/111/64 198/114/64 199/115/64
f 200/115/64 201/112/64 202/111/64
f 79/116/28 80/117/28 82/118/28
f 82/118/28 81/119/28 79/116/28
f 83/120/23 85/121/23 86/122/23
f 86/122/23 84/123/23 83/120/23
f 203/124/51 204/125/51 205/126/51
f 206/126/51 207/127/51 208/124/51
f 209/128/65 210/129/65 211/130/65
f 212/130/65 213/131/65 214/128/65
f 215/131/66 216/130/66 217/132/66
f 218/132/66 219/133/66 220/131/66
f 87/134/67 88/135/67 90/136/67
f 90/136/67 89/137/67 87/134/67
f 91/138/68 93/139/68 94/140/68
f 94/140/68 92/141/68 91/138/68
f 221/142/51 222/143/51 223/144/51
f 224/144/51 225/145/51 226/142/51
f 227/146/69 228/147/69 229/148/69
f 230/148/69 231/149/69 232/146/69
f 233/149/70 234/148/70 235/150/70
f 236/150/70 237/151/70 238/149/70
f 95/152/71 97/153/71 98/154/71
f 98/154/71 96/155/71 95/152/71
f 99/156/72 100/157/72 102/158/72
f 102/158/72 101/159/72 99/156/72
f 239/160/51 240/161/51 241/162/51
f 242/162/51 243/163/51 244/160/51
f 245/164/73 246/165/73 247/166/73
f 248/166/73 249/167/73 250/164/73
f 251/165/74 252/168/74 253/169/74
f 254/169/74 255/166/74 256/165/74
f 103/170/75 105/171/75 106/172/75
f 106/172/75 104/173/75 103/170/75
f 107/174/76 108/175/76 110/176/76
f 110/176/76 109/177/76 107/174/76
f 257/178/51 258/179/51 259/180/51
f 260/180/51 261/181/51 262/178/51
f 263/182/77 264/183/77 265/184/77
f 266/184/77 267/185/77 268/182/77
f 269/183/78 270/186/78 271/187/78
f 272/187/78 273/184/78 274/183/78
f 111/188/68 112/189/68 114/190/68
f 114/190/68 113/191/68 111/188/68
f 115/192/67 117/193/67 118/194/67
f 118/194/67 116/195/67 115/192/67
f 275/196/51 276/197/51 277/198/51
f 278/198/51 279/199/51 280/196/51
f 281/200/79 282/201/79 283/202/79
f 284/202/79 285/203/79 286/200/79
f 287/203/80 288/202/80 289/204/80
f 290/204/80 291/205/80 292/203/80
