# Blender v2.76 (sub 0) OBJ File: 'l_w.blend'
# www.blender.org
mtllib l_w.mtl
o Cylinder01.005
v 0.735233 0.004473 -0.777508
v 0.635680 0.376007 -0.777508
v 0.635681 0.376007 0.660156
v 0.735233 0.004473 0.660156
v 0.363700 0.647988 -0.777508
v 0.363699 0.647988 0.660156
v -0.007835 0.747541 -0.777508
v -0.007834 0.747540 0.660156
v -0.379368 0.647988 -0.777508
v -0.379368 0.647988 0.660156
v -0.651350 0.376007 -0.777508
v -0.651350 0.376007 0.660156
v -0.750901 0.004473 -0.777508
v -0.750901 0.004473 0.660156
v -0.651350 -0.367061 -0.777508
v -0.651350 -0.367061 0.660156
v -0.379368 -0.639042 -0.777508
v -0.379368 -0.639042 0.660156
v -0.007834 -0.738594 -0.777508
v -0.007834 -0.738594 0.660156
v -0.007834 -0.738594 -0.777508
v 0.363700 -0.639042 -0.777508
v 0.363700 -0.639042 0.660156
v -0.007834 -0.738594 0.660156
v -0.007834 -0.738594 -0.777508
v 0.635680 -0.367060 -0.777508
v 0.635681 -0.367060 0.660156
v 0.363700 -0.639042 -0.777508
v -0.007834 -0.738594 -0.777508
v -0.379368 -0.639042 -0.777508
v -0.379368 -0.639042 -0.777508
v -0.651350 -0.367061 -0.777508
v -0.750901 0.004473 -0.777508
v -0.750901 0.004473 -0.777508
v -0.651350 0.376007 -0.777508
v -0.379368 0.647988 -0.777508
v -0.379368 -0.639042 -0.777508
v -0.750901 0.004473 -0.777508
v -0.379368 0.647988 -0.777508
v -0.379368 0.647988 -0.777508
v -0.007835 0.747541 -0.777508
v 0.363700 0.647988 -0.777508
v 0.363700 0.647988 -0.777508
v 0.635680 0.376007 -0.777508
v 0.735233 0.004473 -0.777508
v -0.379368 0.647988 -0.777508
v 0.363700 0.647988 -0.777508
v 0.735233 0.004473 -0.777508
v -0.379368 -0.639042 -0.777508
v -0.379368 0.647988 -0.777508
v 0.735233 0.004473 -0.777508
v 0.363700 -0.639042 -0.777508
v -0.379368 -0.639042 -0.777508
v 0.735233 0.004473 -0.777508
v 0.635680 -0.367060 -0.777508
v 0.363700 -0.639042 -0.777508
v 0.735233 0.004473 -0.777508
v 0.483005 0.287859 0.432214
v 0.207198 0.128622 0.432214
v 0.240464 0.004473 0.432214
v 0.558938 0.004473 0.432214
v 0.275552 0.495312 0.432214
v 0.116315 0.219506 0.432214
v -0.007835 0.571245 0.432214
v -0.007835 0.252771 0.432214
v -0.291219 0.495312 0.432214
v -0.131983 0.219506 0.432214
v -0.498673 0.287859 0.432214
v -0.222866 0.128622 0.432214
v -0.574606 0.004473 0.432214
v -0.256132 0.004473 0.432214
v -0.498673 -0.278913 0.432214
v -0.222866 -0.119676 0.432214
v -0.291219 -0.486366 0.432214
v -0.131983 -0.210559 0.432214
v -0.007835 -0.562299 0.432214
v -0.007835 -0.243825 0.432214
v 0.275552 -0.486366 0.432214
v 0.116315 -0.210559 0.432214
v 0.483005 -0.278913 0.432214
v 0.207198 -0.119676 0.432214
v 0.735233 0.004473 0.660156
v 0.635681 0.376007 0.660156
v 0.534957 0.317854 0.660156
v 0.618928 0.004473 0.660156
v 0.735233 0.004473 0.660156
v 0.635681 0.376007 0.660156
v 0.363699 0.647988 0.660156
v 0.305547 0.547265 0.660156
v 0.635681 0.376007 0.660156
v 0.363699 0.647988 0.660156
v -0.007834 0.747540 0.660156
v -0.007834 0.631235 0.660156
v 0.363699 0.647988 0.660156
v -0.007834 0.747540 0.660156
v -0.379368 0.647988 0.660156
v -0.321215 0.547265 0.660156
v -0.007834 0.747540 0.660156
v -0.379368 0.647988 0.660156
v -0.651350 0.376007 0.660156
v -0.550626 0.317854 0.660156
v -0.379368 0.647988 0.660156
v -0.651350 0.376007 0.660156
v -0.750901 0.004473 0.660156
v -0.634596 0.004473 0.660156
v -0.651350 0.376007 0.660156
v -0.750901 0.004473 0.660156
v -0.651350 -0.367061 0.660156
v -0.550626 -0.308908 0.660156
v -0.750901 0.004473 0.660156
v -0.651350 -0.367061 0.660156
v -0.379368 -0.639042 0.660156
v -0.321215 -0.538319 0.660156
v -0.651350 -0.367061 0.660156
v -0.379368 -0.639042 0.660156
v -0.007834 -0.738594 0.660156
v -0.007834 -0.622289 0.660156
v -0.379368 -0.639042 0.660156
v -0.007834 -0.738594 0.660156
v 0.363700 -0.639042 0.660156
v 0.305547 -0.538318 0.660156
v -0.007834 -0.738594 0.660156
v 0.363700 -0.639042 0.660156
v 0.635681 -0.367060 0.660156
v 0.534957 -0.308908 0.660156
v 0.363700 -0.639042 0.660156
v 0.635681 -0.367060 0.660156
v 0.735233 0.004473 0.660156
v 0.635681 -0.367060 0.660156
v 0.618928 0.004473 0.660156
v 0.534957 0.317854 0.660156
v 0.483005 0.287859 0.432214
v 0.483005 0.287859 0.432214
v 0.558938 0.004473 0.432214
v 0.618928 0.004473 0.660156
v 0.534957 0.317854 0.660156
v 0.305547 0.547265 0.660156
v 0.275552 0.495312 0.432214
v 0.275552 0.495312 0.432214
v 0.483005 0.287859 0.432214
v 0.534957 0.317854 0.660156
v 0.305547 0.547265 0.660156
v -0.007834 0.631235 0.660156
v -0.007835 0.571245 0.432214
v -0.007835 0.571245 0.432214
v 0.275552 0.495312 0.432214
v 0.305547 0.547265 0.660156
v -0.007834 0.631235 0.660156
v -0.321215 0.547265 0.660156
v -0.291219 0.495312 0.432214
v -0.291219 0.495312 0.432214
v -0.007835 0.571245 0.432214
v -0.007834 0.631235 0.660156
v -0.321215 0.547265 0.660156
v -0.550626 0.317854 0.660156
v -0.498673 0.287859 0.432214
v -0.498673 0.287859 0.432214
v -0.291219 0.495312 0.432214
v -0.321215 0.547265 0.660156
v -0.550626 0.317854 0.660156
v -0.634596 0.004473 0.660156
v -0.574606 0.004473 0.432214
v -0.574606 0.004473 0.432214
v -0.498673 0.287859 0.432214
v -0.550626 0.317854 0.660156
v -0.634596 0.004473 0.660156
v -0.550626 -0.308908 0.660156
v -0.498673 -0.278913 0.432214
v -0.498673 -0.278913 0.432214
v -0.574606 0.004473 0.432214
v -0.634596 0.004473 0.660156
v -0.550626 -0.308908 0.660156
v -0.321215 -0.538319 0.660156
v -0.291219 -0.486366 0.432214
v -0.291219 -0.486366 0.432214
v -0.498673 -0.278913 0.432214
v -0.550626 -0.308908 0.660156
v -0.321215 -0.538319 0.660156
v -0.007834 -0.622289 0.660156
v -0.007835 -0.562299 0.432214
v -0.007835 -0.562299 0.432214
v -0.291219 -0.486366 0.432214
v -0.321215 -0.538319 0.660156
v -0.007834 -0.622289 0.660156
v 0.305547 -0.538318 0.660156
v 0.275552 -0.486366 0.432214
v 0.275552 -0.486366 0.432214
v -0.007835 -0.562299 0.432214
v -0.007834 -0.622289 0.660156
v 0.305547 -0.538318 0.660156
v 0.534957 -0.308908 0.660156
v 0.483005 -0.278913 0.432214
v 0.483005 -0.278913 0.432214
v 0.275552 -0.486366 0.432214
v 0.305547 -0.538318 0.660156
v 0.534957 -0.308908 0.660156
v 0.618928 0.004473 0.660156
v 0.558938 0.004473 0.432214
v 0.558938 0.004473 0.432214
v 0.483005 -0.278913 0.432214
v 0.534957 -0.308908 0.660156
v 0.132774 0.004473 0.516213
v 0.113936 0.074777 0.516213
v 0.062469 0.126243 0.516213
v -0.007835 0.145081 0.516213
v -0.078138 0.126243 0.516213
v -0.129604 0.074777 0.516213
v -0.148441 0.004473 0.516213
v -0.129604 -0.065831 0.516213
v -0.078138 -0.117297 0.516213
v -0.007835 -0.136134 0.516213
v 0.062469 -0.117297 0.516213
v 0.113936 -0.065831 0.516213
vt 0.124735 0.057722
vt 0.124735 0.067409
vt 0.164429 0.067409
vt 0.164429 0.057722
vt 0.124735 0.077096
vt 0.164429 0.077096
vt 0.124735 0.086783
vt 0.164429 0.086783
vt 0.124735 0.096470
vt 0.164429 0.096470
vt 0.124735 0.106157
vt 0.164429 0.106157
vt 0.124734 0.115843
vt 0.164429 0.115844
vt 0.124734 0.125530
vt 0.164429 0.125530
vt 0.124734 0.135217
vt 0.164429 0.135217
vt 0.124734 0.144904
vt 0.164429 0.144904
vt 0.124735 0.028662
vt 0.124735 0.038349
vt 0.164429 0.038349
vt 0.164429 0.028662
vt 0.124735 0.048036
vt 0.164429 0.048036
vt 0.271699 0.056970
vt 0.278087 0.058682
vt 0.284475 0.056970
vt 0.289151 0.052294
vt 0.290863 0.045906
vt 0.289151 0.039518
vt 0.284475 0.034842
vt 0.278087 0.033130
vt 0.271699 0.034842
vt 0.267022 0.039518
vt 0.265311 0.045906
vt 0.267022 0.052294
vt 0.205353 0.046546
vt 0.216786 0.053147
vt 0.215407 0.058294
vt 0.202205 0.058294
vt 0.213953 0.037946
vt 0.220554 0.049380
vt 0.225701 0.034798
vt 0.225701 0.048001
vt 0.237449 0.037946
vt 0.230848 0.049380
vt 0.246049 0.046546
vt 0.234615 0.053148
vt 0.249197 0.058294
vt 0.235994 0.058294
vt 0.246049 0.070042
vt 0.234615 0.063441
vt 0.237449 0.078643
vt 0.230847 0.067209
vt 0.225701 0.081790
vt 0.225701 0.068588
vt 0.213953 0.078642
vt 0.220554 0.067209
vt 0.205352 0.070042
vt 0.216786 0.063441
vt 0.194896 0.058294
vt 0.199023 0.042892
vt 0.203199 0.045303
vt 0.199718 0.058294
vt 0.210298 0.031617
vt 0.212709 0.035792
vt 0.225701 0.027490
vt 0.225701 0.032311
vt 0.241103 0.031617
vt 0.238692 0.035792
vt 0.252379 0.042892
vt 0.248203 0.045303
vt 0.256506 0.058294
vt 0.251684 0.058294
vt 0.252378 0.073697
vt 0.248203 0.071286
vt 0.241103 0.084972
vt 0.238692 0.080796
vt 0.225701 0.089099
vt 0.225701 0.084277
vt 0.210298 0.084972
vt 0.212709 0.080796
vt 0.199023 0.073696
vt 0.203199 0.071286
vt 0.180139 0.006835
vt 0.193434 0.006835
vt 0.193434 0.016894
vt 0.180139 0.016894
vt 0.206730 0.006835
vt 0.206730 0.016894
vt 0.220025 0.006835
vt 0.220025 0.016894
vt 0.233321 0.006835
vt 0.233321 0.016894
vt 0.246617 0.006836
vt 0.246617 0.016894
vt 0.259912 0.006836
vt 0.259912 0.016894
vt 0.273208 0.006836
vt 0.273208 0.016894
vt 0.286503 0.006836
vt 0.286503 0.016894
vt 0.299799 0.006836
vt 0.299799 0.016894
vt 0.313095 0.006836
vt 0.313095 0.016894
vt 0.326390 0.006836
vt 0.326390 0.016895
vt 0.339686 0.006836
vt 0.339686 0.016895
vt 0.219872 0.058294
vt 0.220653 0.055380
vt 0.222786 0.053246
vt 0.225701 0.052465
vt 0.228615 0.053246
vt 0.230749 0.055380
vt 0.231530 0.058294
vt 0.230749 0.061209
vt 0.228615 0.063342
vt 0.225701 0.064123
vt 0.222786 0.063342
vt 0.220653 0.061209
vn 0.965900 0.258800 -0.000000
vn 0.707100 0.707100 0.000000
vn 0.258800 0.965900 0.000000
vn -0.258800 0.965900 0.000000
vn -0.707100 0.707100 0.000000
vn -0.965900 0.258800 0.000000
vn -0.965900 -0.258800 0.000000
vn -0.707100 -0.707100 0.000000
vn -0.258800 -0.965900 0.000000
vn 0.258800 -0.965900 -0.000000
vn 0.707100 -0.707100 -0.000000
vn 0.965900 -0.258800 -0.000000
vn -0.000000 0.000000 -1.000000
vn 0.000000 -0.000000 1.000000
vn -0.936200 -0.250800 0.246400
vn -0.685300 -0.685300 0.246400
vn -0.250800 -0.936200 0.246400
vn 0.250800 -0.936200 0.246400
vn 0.685300 -0.685300 0.246400
vn 0.936200 -0.250800 0.246400
vn 0.936200 0.250800 0.246400
vn 0.685300 0.685300 0.246400
vn 0.250800 0.936200 0.246400
vn 0.250800 0.936100 0.246400
vn -0.250800 0.936200 0.246400
vn -0.685300 0.685300 0.246400
vn -0.936100 0.250800 0.246400
vn -0.936200 0.250800 0.246400
vn 0.606900 0.162600 0.778000
vn 0.444200 0.444200 0.778000
vn 0.444200 0.444300 0.778000
vn 0.162600 0.606800 0.778000
vn 0.162600 0.606900 0.778000
vn -0.162600 0.606800 0.778000
vn -0.444200 0.444200 0.778000
vn -0.606800 0.162600 0.778000
vn -0.606900 0.162600 0.778000
vn -0.606800 -0.162600 0.778000
vn -0.444200 -0.444200 0.778000
vn -0.162600 -0.606800 0.778000
vn -0.162600 -0.606900 0.778000
vn 0.162600 -0.606800 0.778000
vn 0.162600 -0.606900 0.778000
vn 0.444200 -0.444200 0.778000
vn 0.606900 -0.162600 0.778000
vn 0.606800 -0.162600 0.778000
usemtl M1_Abrams
s 1
f 1/1/1 2/2/1 3/3/1
f 3/3/1 4/4/1 1/1/1
f 2/2/2 5/5/2 6/6/2
f 6/6/2 3/3/2 2/2/2
f 5/5/3 7/7/3 8/8/3
f 8/8/3 6/6/3 5/5/3
f 7/7/4 9/9/4 10/10/4
f 10/10/4 8/8/4 7/7/4
f 9/9/5 11/11/5 12/12/5
f 12/12/5 10/10/5 9/9/5
f 11/11/6 13/13/6 14/14/6
f 14/14/6 12/12/6 11/11/6
f 13/13/7 15/15/7 16/16/7
f 16/16/7 14/14/7 13/13/7
f 15/15/8 17/17/8 18/18/8
f 18/18/8 16/16/8 15/15/8
f 17/17/9 19/19/9 20/20/9
f 20/20/9 18/18/9 17/17/9
f 21/21/10 22/22/10 23/23/10
f 23/23/10 24/24/10 25/21/10
f 22/22/11 26/25/11 27/26/11
f 27/26/11 23/23/11 22/22/11
f 26/25/12 1/1/12 4/4/12
f 4/4/12 27/26/12 26/25/12
f 28/27/13 29/28/13 30/29/13
f 31/29/13 32/30/13 33/31/13
f 34/31/13 35/32/13 36/33/13
f 37/29/13 38/31/13 39/33/13
f 40/33/13 41/34/13 42/35/13
f 43/35/13 44/36/13 45/37/13
f 46/33/13 47/35/13 48/37/13
f 49/29/13 50/33/13 51/37/13
f 52/27/13 53/29/13 54/37/13
f 55/38/13 56/27/13 57/37/13
f 58/39/14 59/40/14 60/41/14
f 60/41/14 61/42/14 58/39/14
f 62/43/14 63/44/14 59/40/14
f 59/40/14 58/39/14 62/43/14
f 64/45/14 65/46/14 63/44/14
f 63/44/14 62/43/14 64/45/14
f 66/47/14 67/48/14 65/46/14
f 65/46/14 64/45/14 66/47/14
f 68/49/14 69/50/14 67/48/14
f 67/48/14 66/47/14 68/49/14
f 70/51/14 71/52/14 69/50/14
f 69/50/14 68/49/14 70/51/14
f 72/53/14 73/54/14 71/52/14
f 71/52/14 70/51/14 72/53/14
f 74/55/14 75/56/14 73/54/14
f 73/54/14 72/53/14 74/55/14
f 76/57/14 77/58/14 75/56/14
f 75/56/14 74/55/14 76/57/14
f 78/59/14 79/60/14 77/58/14
f 77/58/14 76/57/14 78/59/14
f 80/61/14 81/62/14 79/60/14
f 79/60/14 78/59/14 80/61/14
f 61/42/14 60/41/14 81/62/14
f 81/62/14 80/61/14 61/42/14
f 82/63/14 83/64/14 84/65/14
f 84/65/14 85/66/14 86/63/14
f 87/64/14 88/67/14 89/68/14
f 89/68/14 84/65/14 90/64/14
f 91/67/14 92/69/14 93/70/14
f 93/70/14 89/68/14 94/67/14
f 95/69/14 96/71/14 97/72/14
f 97/72/14 93/70/14 98/69/14
f 99/71/14 100/73/14 101/74/14
f 101/74/14 97/72/14 102/71/14
f 103/73/14 104/75/14 105/76/14
f 105/76/14 101/74/14 106/73/14
f 107/75/14 108/77/14 109/78/14
f 109/78/14 105/76/14 110/75/14
f 111/77/14 112/79/14 113/80/14
f 113/80/14 109/78/14 114/77/14
f 115/79/14 116/81/14 117/82/14
f 117/82/14 113/80/14 118/79/14
f 119/81/14 120/83/14 121/84/14
f 121/84/14 117/82/14 122/81/14
f 123/83/14 124/85/14 125/86/14
f 125/86/14 121/84/14 126/83/14
f 127/85/14 128/63/14 85/66/14
f 85/66/14 125/86/14 129/85/14
f 130/87/15 131/88/15 132/89/15
f 133/89/15 134/90/15 135/87/15
f 136/88/16 137/91/16 138/92/16
f 139/92/16 140/89/16 141/88/16
f 142/91/17 143/93/17 144/94/17
f 145/94/17 146/92/17 147/91/17
f 148/93/18 149/95/18 150/96/18
f 151/96/18 152/94/18 153/93/18
f 154/95/19 155/97/19 156/98/19
f 157/98/19 158/96/19 159/95/19
f 160/97/20 161/99/20 162/100/20
f 163/100/20 164/98/20 165/97/20
f 166/99/21 167/101/21 168/102/21
f 169/102/21 170/100/21 171/99/21
f 172/101/22 173/103/22 174/104/22
f 175/104/22 176/102/22 177/101/22
f 178/103/23 179/105/23 180/106/23
f 181/106/24 182/104/24 183/103/24
f 184/105/25 185/107/25 186/108/25
f 187/108/25 188/106/25 189/105/25
f 190/107/26 191/109/26 192/110/26
f 193/110/26 194/108/26 195/107/26
f 196/109/27 197/111/27 198/112/27
f 199/112/28 200/110/28 201/109/28
f 202/113/14 203/114/14 204/115/14
f 202/113/14 204/115/14 205/116/14
f 202/113/14 205/116/14 206/117/14
f 202/113/14 206/117/14 207/118/14
f 202/113/14 207/118/14 208/119/14
f 202/113/14 208/119/14 209/120/14
f 202/113/14 209/120/14 210/121/14
f 202/113/14 210/121/14 211/122/14
f 202/113/14 211/122/14 212/123/14
f 202/113/14 212/123/14 213/124/14
f 60/41/29 59/40/29 203/114/29
f 203/114/29 202/113/29 60/41/29
f 59/40/30 63/44/30 204/115/30
f 204/115/30 203/114/31 59/40/30
f 63/44/32 65/46/33 205/116/32
f 205/116/32 204/115/32 63/44/32
f 65/46/34 67/48/34 206/117/34
f 206/117/34 205/116/34 65/46/34
f 67/48/35 69/50/35 207/118/35
f 207/118/35 206/117/35 67/48/35
f 69/50/36 71/52/36 208/119/37
f 208/119/37 207/118/37 69/50/36
f 71/52/38 73/54/38 209/120/38
f 209/120/38 208/119/38 71/52/38
f 73/54/39 75/56/39 210/121/39
f 210/121/39 209/120/39 73/54/39
f 75/56/40 77/58/40 211/122/40
f 211/122/40 210/121/41 75/56/40
f 77/58/42 79/60/43 212/123/42
f 212/123/42 211/122/42 77/58/42
f 79/60/44 81/62/44 213/124/44
f 213/124/44 212/123/44 79/60/44
f 81/62/45 60/41/46 202/113/45
f 202/113/45 213/124/45 81/62/45
