# Blender v2.76 (sub 0) OBJ File: 'm1_track.blend'
# www.blender.org
mtllib m1_track.mtl
o Cylinder01
v -4.591726 0.366613 0.729850
v -4.591726 0.366614 -0.707814
v -4.220193 0.267061 0.729850
v -4.220193 0.267061 -0.707814
v -6.774773 2.677849 -0.756484
v -7.020043 2.430586 -0.756484
v -6.912933 2.368172 -0.756484
v -6.689578 2.593340 -0.756484
v -6.912933 2.368171 0.719515
v -6.689579 2.593339 0.719515
v -7.020043 2.430586 0.719515
v -6.774774 2.677849 0.719515
v -7.125848 2.054053 -0.756484
v -7.001398 2.053347 -0.756484
v -7.001399 2.053346 0.719515
v -7.125848 2.054053 0.719515
v -7.023210 1.672265 -0.756484
v -6.915832 1.735067 -0.756484
v -6.915832 1.735067 0.719515
v -7.023210 1.672264 0.719515
v -6.758690 1.413216 -0.756484
v -6.686473 1.510452 -0.756484
v -6.686473 1.510451 0.719515
v -6.758690 1.413216 0.719515
v -4.635084 0.245555 -0.756485
v -4.590704 0.358097 -0.756485
v -4.590703 0.358096 0.719515
v -4.635084 0.245555 0.719515
v -4.231538 0.143156 -0.756485
v -4.216552 0.263156 -0.756485
v -4.216552 0.263156 0.719515
v -4.231538 0.143155 0.719515
v 5.963905 0.143382 -0.756486
v 5.948692 0.263381 -0.756486
v 5.948692 0.263381 0.719514
v 5.963905 0.143381 0.719514
v 6.371968 0.248522 -0.756486
v 6.325084 0.360361 -0.756486
v 6.325084 0.360361 0.719514
v 6.371968 0.248522 0.719514
v 7.943848 1.194449 -0.756486
v 7.877745 1.294724 -0.756486
v 7.877747 1.294724 0.719514
v 7.943848 1.194449 0.719514
v 8.322932 1.467299 -0.756486
v 8.221229 1.541947 -0.756486
v 8.221229 1.541947 0.719514
v 8.322932 1.467299 0.719514
v 8.476918 1.932841 -0.756486
v 8.350143 1.931696 -0.756486
v 8.350143 1.931696 0.719514
v 8.476918 1.932841 0.719514
v 8.313094 2.399593 -0.756486
v 8.212089 2.325024 -0.756486
v 8.212089 2.325024 0.719514
v 8.313094 2.399593 0.719514
v 7.955806 2.663586 -0.756486
v 7.884496 2.567072 -0.756486
v 7.884496 2.567072 0.719514
v 7.955806 2.663585 0.719514
v 6.318220 0.366614 0.729849
v 6.318219 0.366614 -0.707816
v -6.689579 2.593339 0.719515
v -6.912933 2.368171 0.719515
v -6.689579 2.593339 0.719515
v -6.912933 2.368171 0.719515
v -7.001399 2.053346 0.719515
v -6.912933 2.368171 0.719515
v -7.001399 2.053346 0.719515
v -6.915832 1.735067 0.719515
v -7.001399 2.053346 0.719515
v -6.915832 1.735067 0.719515
v -6.686473 1.510451 0.719515
v -6.915832 1.735067 0.719515
v -6.686473 1.510451 0.719515
v -4.590703 0.358096 0.719515
v -6.686473 1.510451 0.719515
v -4.590703 0.358096 0.719515
v -4.216552 0.263156 0.719515
v -4.590703 0.358096 0.719515
v -4.216552 0.263156 0.719515
v 5.948692 0.263381 0.719514
v -4.216552 0.263156 0.719515
v 5.948692 0.263381 0.719514
v 6.325084 0.360361 0.719514
v 5.948692 0.263381 0.719514
v 6.325084 0.360361 0.719514
v 7.877747 1.294724 0.719514
v 6.325084 0.360361 0.719514
v 7.877747 1.294724 0.719514
v 8.221229 1.541947 0.719514
v 7.877747 1.294724 0.719514
v 8.221229 1.541947 0.719514
v 8.350143 1.931696 0.719514
v 8.221229 1.541947 0.719514
v 8.350143 1.931696 0.719514
v 8.212089 2.325024 0.719514
v 8.350143 1.931696 0.719514
v 8.212089 2.325024 0.719514
v 7.884496 2.567072 0.719514
v 8.212089 2.325024 0.719514
v -6.774773 2.677849 -0.756484
v -6.774773 2.677849 -0.756484
v -6.774774 2.677849 0.719515
v 7.955806 2.663586 -0.756486
v 7.884496 2.567072 -0.756486
v 7.884496 2.567072 0.719514
v 7.884496 2.567072 0.719514
v 7.955806 2.663585 0.719514
v 7.955806 2.663586 -0.756486
v 5.946685 0.267062 0.729849
v 5.946685 0.267062 -0.707816
v 5.946685 0.267062 0.729849
vt 0.979685 0.884689
vt 0.979685 0.508393
vt 0.997758 0.508394
vt 0.997757 0.884690
vt 0.028834 0.493948
vt 0.028834 0.460275
vt 0.046019 0.460276
vt 0.046019 0.493948
vt 0.028834 0.045804
vt 0.046019 0.045805
vt 0.028834 0.942090
vt 0.028834 0.908394
vt 0.046018 0.908394
vt 0.046018 0.942090
vt 0.064565 0.460276
vt 0.064565 0.493949
vt 0.064565 0.045806
vt 0.064565 0.908395
vt 0.064565 0.942091
vt 0.083286 0.460277
vt 0.083286 0.493949
vt 0.083287 0.045806
vt 0.083286 0.908395
vt 0.083286 0.942091
vt 0.101138 0.460277
vt 0.101138 0.493950
vt 0.101138 0.045806
vt 0.101138 0.908396
vt 0.101138 0.942092
vt 0.225490 0.460281
vt 0.225490 0.493954
vt 0.225491 0.045810
vt 0.225490 0.908400
vt 0.225490 0.942096
vt 0.246211 0.460282
vt 0.246211 0.493954
vt 0.246211 0.045811
vt 0.246211 0.908400
vt 0.246211 0.942096
vt 0.772031 0.460295
vt 0.772031 0.493968
vt 0.772031 0.045824
vt 0.772031 0.908414
vt 0.772031 0.942110
vt 0.792952 0.460296
vt 0.792952 0.493969
vt 0.792952 0.045825
vt 0.792951 0.908414
vt 0.792951 0.942111
vt 0.887128 0.460298
vt 0.887128 0.493971
vt 0.887128 0.045827
vt 0.887128 0.908417
vt 0.887128 0.942113
vt 0.910120 0.460299
vt 0.910120 0.493972
vt 0.910120 0.045828
vt 0.910120 0.908418
vt 0.910120 0.942114
vt 0.933385 0.460300
vt 0.933385 0.493972
vt 0.933385 0.045829
vt 0.933384 0.908418
vt 0.933384 0.942114
vt 0.956925 0.460300
vt 0.956925 0.493973
vt 0.956925 0.045829
vt 0.956925 0.908419
vt 0.956925 0.942115
vt 0.978917 0.460301
vt 0.978917 0.493974
vt 0.978917 0.045830
vt 0.978917 0.908420
vt 0.978917 0.942115
vt 0.022511 0.460275
vt 0.022511 0.045804
vt 0.986813 0.045686
vt 0.986813 0.459716
vt 0.005597 0.889162
vt 0.005597 0.512866
vt 0.023669 0.512866
vt 0.023669 0.889162
vn -0.258800 -0.965900 -0.000000
vn 0.000000 0.000000 -1.000000
vn 0.710000 -0.704200 0.000000
vn 0.000000 0.000000 1.000000
vn -0.710000 0.704200 -0.000000
vn 0.962700 -0.270500 -0.000000
vn -0.962700 0.270500 0.000000
vn 0.965700 0.259600 0.000000
vn -0.965700 -0.259600 -0.000000
vn 0.699700 0.714500 0.000000
vn -0.699700 -0.714500 -0.000000
vn 0.481800 0.876300 0.000000
vn -0.481800 -0.876300 -0.000000
vn 0.246000 0.969300 -0.000000
vn -0.246000 -0.969300 -0.000000
vn -0.000000 1.000000 0.000000
vn 0.000000 -1.000000 -0.000000
vn -0.249500 0.968400 0.000000
vn 0.249500 -0.968400 -0.000000
vn -0.515600 0.856800 0.000000
vn 0.515600 -0.856800 0.000000
vn -0.584200 0.811600 0.000000
vn 0.584200 -0.811600 0.000000
vn -0.949400 0.314000 0.000000
vn 0.949400 -0.314000 0.000000
vn -0.943600 -0.331200 0.000000
vn 0.943600 0.331200 0.000000
vn -0.594300 -0.804300 0.000000
vn 0.594300 0.804300 0.000000
vn 0.704200 0.710000 0.000000
vn -0.804300 0.594300 0.000000
vn 0.258800 -0.965900 -0.000000
usemtl M1_Abrams
s off
f 1/1/1 2/2/1 4/3/1
f 4/3/1 3/4/1 1/1/1
f 5/5/2 8/6/2 7/7/2
f 7/7/2 6/8/2 5/5/2
f 8/6/3 10/9/3 9/10/3
f 9/10/3 7/7/3 8/6/3
f 63/11/4 12/12/4 11/13/4
f 11/13/4 64/14/4 65/11/4
f 12/12/5 5/5/5 6/8/5
f 6/8/5 11/13/5 12/12/5
f 6/8/2 7/7/2 14/15/2
f 14/15/2 13/16/2 6/8/2
f 7/7/6 9/10/6 15/17/6
f 15/17/6 14/15/6 7/7/6
f 66/14/4 11/13/4 16/18/4
f 16/18/4 67/19/4 68/14/4
f 11/13/7 6/8/7 13/16/7
f 13/16/7 16/18/7 11/13/7
f 13/16/2 14/15/2 18/20/2
f 18/20/2 17/21/2 13/16/2
f 14/15/8 15/17/8 19/22/8
f 19/22/8 18/20/8 14/15/8
f 69/19/4 16/18/4 20/23/4
f 20/23/4 70/24/4 71/19/4
f 16/18/9 13/16/9 17/21/9
f 17/21/9 20/23/9 16/18/9
f 17/21/2 18/20/2 22/25/2
f 22/25/2 21/26/2 17/21/2
f 18/20/10 19/22/10 23/27/10
f 23/27/10 22/25/10 18/20/10
f 72/24/4 20/23/4 24/28/4
f 24/28/4 73/29/4 74/24/4
f 20/23/11 17/21/11 21/26/11
f 21/26/11 24/28/11 20/23/11
f 21/26/2 22/25/2 26/30/2
f 26/30/2 25/31/2 21/26/2
f 22/25/12 23/27/12 27/32/12
f 27/32/12 26/30/12 22/25/12
f 75/29/4 24/28/4 28/33/4
f 28/33/4 76/34/4 77/29/4
f 24/28/13 21/26/13 25/31/13
f 25/31/13 28/33/13 24/28/13
f 25/31/2 26/30/2 30/35/2
f 30/35/2 29/36/2 25/31/2
f 26/30/14 27/32/14 31/37/14
f 31/37/14 30/35/14 26/30/14
f 78/34/4 28/33/4 32/38/4
f 32/38/4 79/39/4 80/34/4
f 28/33/15 25/31/15 29/36/15
f 29/36/15 32/38/15 28/33/15
f 29/36/2 30/35/2 34/40/2
f 34/40/2 33/41/2 29/36/2
f 30/35/16 31/37/16 35/42/16
f 35/42/16 34/40/16 30/35/16
f 81/39/4 32/38/4 36/43/4
f 36/43/4 82/44/4 83/39/4
f 32/38/17 29/36/17 33/41/17
f 33/41/17 36/43/17 32/38/17
f 33/41/2 34/40/2 38/45/2
f 38/45/2 37/46/2 33/41/2
f 34/40/18 35/42/18 39/47/18
f 39/47/18 38/45/18 34/40/18
f 84/44/4 36/43/4 40/48/4
f 40/48/4 85/49/4 86/44/4
f 36/43/19 33/41/19 37/46/19
f 37/46/19 40/48/19 36/43/19
f 37/46/2 38/45/2 42/50/2
f 42/50/2 41/51/2 37/46/2
f 38/45/20 39/47/20 43/52/20
f 43/52/20 42/50/20 38/45/20
f 87/49/4 40/48/4 44/53/4
f 44/53/4 88/54/4 89/49/4
f 40/48/21 37/46/21 41/51/21
f 41/51/21 44/53/21 40/48/21
f 41/51/2 42/50/2 46/55/2
f 46/55/2 45/56/2 41/51/2
f 42/50/22 43/52/22 47/57/22
f 47/57/22 46/55/22 42/50/22
f 90/54/4 44/53/4 48/58/4
f 48/58/4 91/59/4 92/54/4
f 44/53/23 41/51/23 45/56/23
f 45/56/23 48/58/23 44/53/23
f 45/56/2 46/55/2 50/60/2
f 50/60/2 49/61/2 45/56/2
f 46/55/24 47/57/24 51/62/24
f 51/62/24 50/60/24 46/55/24
f 93/59/4 48/58/4 52/63/4
f 52/63/4 94/64/4 95/59/4
f 48/58/25 45/56/25 49/61/25
f 49/61/25 52/63/25 48/58/25
f 49/61/2 50/60/2 54/65/2
f 54/65/2 53/66/2 49/61/2
f 50/60/26 51/62/26 55/67/26
f 55/67/26 54/65/26 50/60/26
f 96/64/4 52/63/4 56/68/4
f 56/68/4 97/69/4 98/64/4
f 52/63/27 49/61/27 53/66/27
f 53/66/27 56/68/27 52/63/27
f 53/66/2 54/65/2 58/70/2
f 58/70/2 57/71/2 53/66/2
f 54/65/28 55/67/28 59/72/28
f 59/72/28 58/70/28 54/65/28
f 99/69/4 56/68/4 60/73/4
f 60/73/4 100/74/4 101/69/4
f 56/68/29 53/66/29 57/71/29
f 57/71/29 60/73/29 56/68/29
f 10/9/30 8/6/30 102/75/30
f 103/75/30 104/76/30 10/9/30
f 105/77/31 106/72/31 107/70/31
f 108/70/31 109/78/31 110/77/31
f 111/79/32 112/80/32 62/81/32
f 62/81/32 61/82/32 113/79/32
