# Blender v2.76 (sub 0) OBJ File: 'building.blend'
# www.blender.org
mtllib building.mtl
o building.000
v 15.160515 130.534500 -18.004967
v 15.160515 130.534500 21.995033
v -14.839485 130.534500 -18.004967
v -14.839485 130.534500 21.995033
vt 0.990194 0.015009
vt 0.990194 0.986203
vt 0.012393 0.986203
vt 0.012393 0.015009
vn 0.000000 1.000000 0.000000
usemtl Material
s off
f 3/1/1 4/2/1 2/3/1
f 3/1/1 2/3/1 1/4/1
o building.001
v 15.160515 -0.004218 -18.004967
v 15.160515 -0.004218 -18.004967
v 15.160515 130.534500 -18.004967
v 15.160515 130.534500 -18.004967
v 15.160515 -0.004218 21.995033
v 15.160515 -0.004218 21.995033
v 15.160515 130.534500 21.995033
v 15.160515 130.534500 21.995033
v -14.839485 -0.004218 -18.004967
v -14.839485 -0.004218 -18.004967
v -14.839485 130.534500 -18.004967
v -14.839485 130.534500 -18.004967
v -14.839485 -0.004218 21.995033
v -14.839485 -0.004218 21.995033
v -14.839485 130.534500 21.995033
v -14.839485 130.534500 21.995033
vt 0.995625 0.001564
vt 0.713185 0.001564
vt 0.713185 0.992490
vt 0.995625 0.992490
vt 0.502496 0.992490
vt 0.714325 0.992490
vt 0.714325 0.001564
vt 0.502496 0.001564
vt 0.286042 0.992490
vt 0.003602 0.992490
vt 0.003602 0.001564
vt 0.286042 0.001564
vt 0.290665 0.001564
vt 0.290665 0.992490
vn 1.000000 0.000000 0.000000
vn 0.000000 0.000000 1.000000
vn -1.000000 0.000000 0.000000
vn 0.000000 0.000000 -1.000000
usemtl Material.003
s off
f 9/5/2 5/6/2 7/7/2
f 9/5/2 7/7/2 11/8/2
f 12/9/3 19/10/3 17/11/3
f 12/9/3 17/11/3 10/12/3
f 20/13/4 15/14/4 13/15/4
f 20/13/4 13/15/4 18/16/4
f 6/17/5 14/12/5 16/9/5
f 6/17/5 16/9/5 8/18/5
