# Blender v2.76 (sub 0) OBJ File: 'prism_track.blend'
# www.blender.org
mtllib prism_track.mtl
o track.001_Cylinder.003
v 3.708463 1.750436 0.624255
v 3.708463 1.750436 -0.443634
v -3.246225 1.766789 0.624255
v -3.246225 1.766789 -0.443634
v -3.479641 1.704606 0.624255
v -3.479641 1.704606 -0.443634
v -3.620172 1.553560 0.624255
v -3.620172 1.553560 -0.443634
v -3.663579 1.358049 0.624255
v -3.663579 1.358049 -0.443634
v -3.617145 1.148346 0.624255
v -3.617145 1.148346 -0.443634
v -2.959450 0.265885 0.624255
v -2.959450 0.265886 -0.443634
v -2.560279 0.074007 0.624255
v -2.560279 0.074007 -0.443634
v 3.445606 0.059052 0.624255
v 3.445606 0.059052 -0.443634
v 3.766817 0.218779 0.624255
v 3.766817 0.218779 -0.443634
v 4.436925 1.071874 0.624255
v 4.436925 1.071874 -0.443634
v 4.542204 1.232919 0.624255
v 4.542204 1.232919 -0.443634
v 4.549882 1.420375 0.624255
v 4.549882 1.420375 -0.443634
v 4.435780 1.654933 0.624255
v 4.435780 1.654933 -0.443634
v 4.298129 1.744827 0.624255
v 4.298129 1.744828 -0.443634
v 4.006752 1.762689 0.624255
v 4.006752 1.762689 -0.443634
v 3.740153 1.788973 0.609782
v -3.302431 1.806405 0.609782
v -3.302431 1.806406 -0.429160
v 3.740153 1.788973 -0.429160
v -3.538797 1.740118 0.609782
v -3.538797 1.740118 -0.429160
v -3.681104 1.579104 0.609782
v -3.681104 1.579104 -0.429160
v -3.725059 1.370689 0.609782
v -3.725059 1.370689 -0.429160
v -3.678038 1.147146 0.609782
v -3.678038 1.147146 -0.429160
v -3.012031 0.206444 0.609781
v -3.012031 0.206444 -0.429160
v -2.607816 0.001901 0.609782
v -2.607816 0.001902 -0.429160
v 3.473974 -0.014040 0.609782
v 3.473974 -0.014040 -0.429160
v 3.799244 0.156228 0.609782
v 3.799244 0.156228 -0.429160
v 4.477821 1.065627 0.609781
v 4.477821 1.065627 -0.429160
v 4.584431 1.237300 0.609782
v 4.584431 1.237300 -0.429160
v 4.592206 1.437128 0.609782
v 4.592206 1.437128 -0.429160
v 4.476661 1.687167 0.609782
v 4.476661 1.687167 -0.429160
v 4.337270 1.782994 0.609782
v 4.337270 1.782994 -0.429160
v 4.042212 1.802035 0.609782
v 4.042212 1.802035 -0.429160
vt -0.024820 0.929084
vt 0.502616 0.929084
vt 0.502616 0.530510
vt -0.024820 0.530510
vt 0.520969 0.929084
vt 0.520969 0.530510
vt 0.536840 0.929084
vt 0.536840 0.530510
vt 0.552413 0.929084
vt 0.552413 0.530510
vt 0.569114 0.929084
vt 0.569114 0.530510
vt 0.654017 0.929084
vt 0.654017 0.530510
vt 0.687776 0.929084
vt 0.687776 0.530510
vt 1.143257 0.929084
vt 1.143257 0.530510
vt -0.242835 0.929084
vt -0.215483 0.929084
vt -0.215483 0.530510
vt -0.242835 0.530510
vt -0.131850 0.929084
vt -0.131850 0.530510
vt -0.116985 0.929084
vt -0.116985 0.530510
vt -0.102380 0.929084
vt -0.102380 0.530510
vt -0.082172 0.929084
vt -0.082172 0.530510
vt -0.069603 0.929084
vt -0.069603 0.530510
vt -0.047462 0.929084
vt -0.047462 0.530510
vt -0.024820 0.052679
vt -0.024820 0.440449
vt 0.502616 0.440449
vt 0.502616 0.052679
vt 0.520969 0.440449
vt 0.520969 0.052679
vt 0.536840 0.440449
vt 0.536840 0.052679
vt 0.552413 0.440449
vt 0.552413 0.052679
vt 0.569114 0.440449
vt 0.569114 0.052679
vt 0.654017 0.440449
vt 0.654017 0.052679
vt 0.687776 0.440449
vt 0.687776 0.052679
vt 1.143257 0.440448
vt 1.143257 0.052678
vt -0.242835 0.052679
vt -0.242835 0.440449
vt -0.215483 0.440449
vt -0.215483 0.052679
vt -0.131850 0.440449
vt -0.131850 0.052679
vt -0.116985 0.440449
vt -0.116985 0.052679
vt -0.102380 0.440449
vt -0.102380 0.052679
vt -0.082172 0.440449
vt -0.082172 0.052679
vt -0.069603 0.440449
vt -0.069603 0.052679
vt -0.047462 0.052679
vt -0.047462 0.440449
vt 0.687776 0.029137
vt 0.654017 0.029137
vt -0.024820 0.029137
vt -0.047462 0.029137
vt 0.536840 0.029137
vt 0.520969 0.029137
vt -0.102380 0.029137
vt -0.116985 0.029137
vt 1.143257 0.029137
vt 0.552413 0.029137
vt -0.082172 0.029137
vt -0.215483 0.029137
vt -0.242835 0.029137
vt 0.569114 0.029137
vt -0.069603 0.029137
vt 0.502616 0.029137
vt -0.131850 0.029137
vn -0.002400 -1.000000 -0.000000
vn 0.257400 -0.966300 -0.000000
vn 0.732100 -0.681200 -0.000000
vn 0.976200 -0.216700 0.000000
vn 0.976400 0.216200 0.000000
vn 0.801800 0.597600 0.000000
vn 0.433200 0.901300 0.000000
vn 0.002500 1.000000 0.000000
vn -0.445300 0.895400 0.000000
vn -0.786400 0.617700 0.000000
vn -0.837000 0.547200 0.000000
vn -0.999200 0.040900 0.000000
vn -0.899200 -0.437400 -0.000000
vn -0.546800 -0.837300 -0.000000
vn 0.041000 -0.999200 -0.000000
vn -0.061200 -0.998100 -0.000000
vn -0.270000 0.962900 0.000000
vn -0.749300 0.662200 0.000000
vn -0.978500 0.206400 0.000000
vn -0.978600 -0.205800 -0.000000
vn -0.816200 -0.577800 -0.000000
vn -0.451500 -0.892300 -0.000000
vn -0.002600 -1.000000 -0.000000
vn 0.463800 -0.886000 -0.000000
vn 0.801500 -0.598000 -0.000000
vn 0.849500 -0.527600 -0.000000
vn 0.999200 -0.038900 -0.000000
vn 0.907800 0.419500 0.000000
vn 0.566500 0.824100 0.000000
vn -0.043200 0.999100 0.000000
vn 0.064400 0.997900 0.000000
vn -0.077700 -0.157500 0.984500
vn -0.015200 0.359800 0.932900
vn -0.077700 -0.157500 -0.984500
vn -0.015200 0.359800 -0.932900
vn -0.161100 0.146000 0.976100
vn 0.326800 -0.013000 0.945000
vn -0.161100 0.146000 -0.976100
vn 0.326800 -0.013000 -0.945000
vn -0.000500 -0.195400 0.980700
vn -0.000500 -0.195400 -0.980700
vn -0.216000 0.046700 0.975300
vn 0.260500 0.123400 0.957600
vn -0.216000 0.046700 -0.975300
vn 0.260500 0.123400 -0.957600
vn 0.087000 -0.170500 0.981500
vn 0.087000 -0.170500 -0.981500
vn -0.234400 -0.050600 0.970800
vn 0.150600 0.224700 0.962700
vn 0.000800 0.347600 0.937700
vn -0.234400 -0.050600 -0.970800
vn 0.150600 0.224700 -0.962700
vn 0.000800 0.347600 -0.937700
vn 0.220700 -0.168900 0.960600
vn 0.220700 -0.168900 -0.960600
vn -0.179200 -0.130100 0.975200
vn 0.020900 0.332100 0.943000
vn -0.179200 -0.130100 -0.975200
vn 0.020900 0.332100 -0.943000
vn -0.071400 0.261200 0.962600
vn 0.318000 -0.202500 0.926200
vn -0.071400 0.261200 -0.962600
vn 0.318000 -0.202500 -0.926200
usemtl track
s off
f 1/1/1 3/2/1 4/3/1 2/4/1
f 3/2/2 5/5/2 6/6/2 4/3/2
f 5/5/3 7/7/3 8/8/3 6/6/3
f 7/7/4 9/9/4 10/10/4 8/8/4
f 9/9/5 11/11/5 12/12/5 10/10/5
f 11/11/6 13/13/6 14/14/6 12/12/6
f 13/13/7 15/15/7 16/16/7 14/14/7
f 15/15/8 17/17/8 18/18/8 16/16/8
f 17/19/9 19/20/9 20/21/9 18/22/9
f 19/20/10 21/23/10 22/24/10 20/21/10
f 21/23/11 23/25/11 24/26/11 22/24/11
f 23/25/12 25/27/12 26/28/12 24/26/12
f 25/27/13 27/29/13 28/30/13 26/28/13
f 27/29/14 29/31/14 30/32/14 28/30/14
f 31/33/15 1/1/15 2/4/15 32/34/15
f 29/31/16 31/33/16 32/34/16 30/32/16
f 33/35/8 36/36/8 35/37/8 34/38/8
f 34/38/17 35/37/17 38/39/17 37/40/17
f 37/40/18 38/39/18 40/41/18 39/42/18
f 39/42/19 40/41/19 42/43/19 41/44/19
f 41/44/20 42/43/20 44/45/20 43/46/20
f 43/46/21 44/45/21 46/47/21 45/48/21
f 45/48/22 46/47/22 48/49/22 47/50/22
f 47/50/23 48/49/23 50/51/23 49/52/23
f 49/53/24 50/54/24 52/55/24 51/56/24
f 51/56/25 52/55/25 54/57/25 53/58/25
f 53/58/26 54/57/26 56/59/26 55/60/26
f 55/60/27 56/59/27 58/61/27 57/62/27
f 57/62/28 58/61/28 60/63/28 59/64/28
f 59/64/29 60/63/29 62/65/29 61/66/29
f 63/67/30 64/68/30 36/36/30 33/35/30
f 61/66/31 62/65/31 64/68/31 63/67/31
f 15/69/32 13/70/32 45/48/32 47/50/32
f 1/71/33 31/72/33 63/67/33 33/35/33
f 14/14/34 16/16/34 48/49/34 46/47/34
f 32/34/35 2/4/35 36/36/35 64/68/35
f 7/73/36 5/74/36 37/40/36 39/42/36
f 25/75/37 23/76/37 55/60/37 57/62/37
f 6/6/38 8/8/38 40/41/38 38/39/38
f 24/26/39 26/28/39 58/61/39 56/59/39
f 17/77/40 15/69/40 47/50/40 49/52/40
f 16/16/41 18/18/41 50/51/41 48/49/41
f 9/78/42 7/73/42 39/42/42 41/44/42
f 27/79/43 25/75/43 57/62/43 59/64/43
f 8/8/44 10/10/44 42/43/44 40/41/44
f 26/28/45 28/30/45 60/63/45 58/61/45
f 19/80/46 17/81/46 49/53/46 51/56/46
f 18/22/47 20/21/47 52/55/47 50/54/47
f 11/82/48 9/78/48 41/44/48 43/46/48
f 29/83/49 27/79/49 59/64/49 61/66/49
f 3/84/50 1/71/50 33/35/50 34/38/50
f 10/10/51 12/12/51 44/45/51 42/43/51
f 28/30/52 30/32/52 62/65/52 60/63/52
f 2/4/53 4/3/53 35/37/53 36/36/53
f 21/85/54 19/80/54 51/56/54 53/58/54
f 20/21/55 22/24/55 54/57/55 52/55/55
f 13/70/56 11/82/56 43/46/56 45/48/56
f 31/72/57 29/83/57 61/66/57 63/67/57
f 12/12/58 14/14/58 46/47/58 44/45/58
f 30/32/59 32/34/59 64/68/59 62/65/59
f 5/74/60 3/84/60 34/38/60 37/40/60
f 23/76/61 21/85/61 53/58/61 55/60/61
f 4/3/62 6/6/62 38/39/62 35/37/62
f 22/24/63 24/26/63 56/59/63 54/57/63
