# Blender v2.76 (sub 0) OBJ File: 'prism_canon.blend'
# www.blender.org
mtllib prism_canon.mtl
o canon_Cylinder.005
v 0.804550 -0.249461 0.358359
v 0.804550 -0.249461 -0.388524
v -0.622265 1.162884 0.358359
v -0.622265 1.162884 -0.388525
v -0.622265 -0.225323 0.358359
v -0.622265 -0.225323 -0.388525
v -1.018872 1.109043 0.295181
v -1.018872 1.109043 -0.325347
v -1.018872 -0.418828 0.295181
v -1.018872 -0.418828 -0.325347
v -1.018872 1.162884 0.358359
v -1.018872 1.162884 -0.388525
v -1.020808 -0.495735 0.358359
v -1.020808 -0.495735 -0.388525
v -1.210073 1.002279 0.283556
v -1.210073 1.002279 -0.313721
v -1.210073 -0.312064 0.283556
v -1.210073 -0.312064 -0.313721
v 0.802614 -0.519874 0.358359
v 0.802614 -0.519874 -0.388524
v -0.624201 -0.495735 0.358359
v -0.624201 -0.495735 -0.388525
v 0.767529 -0.248632 -0.339328
v 0.767529 -0.248632 0.309163
v 0.675191 0.157061 0.309163
v 0.675191 0.157061 -0.339328
v 0.484207 0.546573 0.309163
v 0.484207 0.546573 -0.339328
v 0.186742 0.855692 0.309163
v 0.186742 0.855692 -0.339328
v -0.188085 1.054158 0.309163
v -0.188085 1.054158 -0.339328
v -0.617254 1.122545 0.309163
v -0.617254 1.122545 -0.339328
v -0.617128 -0.231087 0.305855
v -0.606139 -0.224682 -0.319022
v 0.977091 -0.248632 0.309163
v 0.977091 -0.248632 -0.339328
v 0.983157 -0.519874 0.310032
v 0.983157 -0.519874 -0.345545
v 0.773671 0.413665 -0.339328
v 0.773671 0.413665 0.309163
v 0.884753 0.157061 0.309163
v 0.884753 0.157061 -0.339328
v 0.693769 0.546573 0.309163
v 0.693769 0.546573 -0.339328
v 0.396304 0.855692 0.309163
v 0.396304 0.855692 -0.339328
v 1.235300 -0.249461 0.306169
v 1.235300 -0.249461 -0.337268
v 1.198279 -0.248632 -0.339328
v 1.233364 -0.519874 0.294771
v 1.233364 -0.519874 -0.327962
v 1.105941 0.157061 -0.339328
v 1.105941 0.157061 0.309163
v 0.891950 0.546573 0.309163
v 1.198279 -0.248632 0.309163
v 0.891950 0.546573 -0.339328
v 0.617492 0.777949 0.309163
v 0.617492 0.777949 -0.339328
v 0.693769 0.546573 0.228431
v 0.693769 0.546573 -0.238393
v 0.773671 0.413665 -0.238393
v 0.773671 0.413665 0.228431
v 0.435364 0.584891 0.228431
v 0.435364 0.584891 -0.238393
v 0.515266 0.451983 -0.238393
v 0.515266 0.451983 0.228431
v 0.946312 -0.113401 0.309163
v 0.915532 0.021830 0.309163
v 0.915532 0.021830 -0.339328
v 0.946312 -0.113401 -0.339328
v 0.884753 0.157061 0.233860
v 0.884753 0.157061 -0.222201
v 0.915532 0.021830 -0.222201
v 0.915532 0.021830 0.233860
v 0.977091 -0.248632 0.215743
v 0.977091 -0.248632 -0.231750
v 0.946312 -0.113401 -0.231750
v 0.946312 -0.113401 0.215743
v 0.649865 0.157061 0.233860
v 0.649865 0.157061 -0.222201
v 0.680644 0.021830 -0.222201
v 0.680644 0.021830 0.233860
v 0.744270 -0.248632 0.215743
v 0.744270 -0.248632 -0.231750
v 0.713491 -0.113401 -0.231750
v 0.713491 -0.113401 0.215743
v -1.120456 -0.886143 -0.467944
v -1.120456 -0.666829 -0.467944
v -1.120456 -0.886143 0.425037
v -1.120456 -0.666829 0.425037
v -2.596730 -0.886143 -0.467944
v -2.734144 -0.666829 -0.467944
v -2.596730 -0.886143 0.425037
v -2.734144 -0.666829 0.425037
v -2.702492 -0.719304 0.425037
v -2.702492 -0.719304 -0.467944
v -2.596730 -0.886143 -0.345547
v -2.596730 -0.886143 0.309435
v -2.702492 -0.719304 -0.345547
v -2.702492 -0.719304 0.309435
v -2.330526 -0.886143 -0.345547
v -2.333298 -0.886143 0.309103
v -2.436287 -0.719304 -0.345547
v -2.436287 -0.719304 0.309435
v -2.333298 -0.886143 0.425037
v -2.333298 -0.886143 -0.467944
v -2.596730 -0.886143 -0.347541
v -1.307439 -0.666829 0.425037
v -1.307160 -0.886143 0.425037
v -1.307439 -0.666829 -0.467944
v -1.307160 -0.886143 -0.467944
v -1.120456 -0.666829 -0.438358
v -1.120456 -0.666829 0.376269
v -1.120456 -0.666829 0.401994
v -1.120456 -0.886143 0.401994
v -1.120456 -0.886143 0.376269
v -1.120456 -0.886143 -0.438358
v -1.307439 -0.666829 0.401994
v -1.307439 -0.666829 0.376269
v -1.307439 -0.666829 -0.438358
v -1.307160 -0.886143 0.401994
v -1.307160 -0.886143 0.376269
v -1.307160 -0.886143 -0.438358
v -1.120456 -0.666829 -0.390860
v -1.120456 -0.886143 -0.390860
v -1.307439 -0.666829 -0.390860
v -1.307160 -0.886143 -0.390860
v -0.846375 -0.438987 0.360073
v -1.010734 -0.309995 0.360073
v -0.846375 -0.438987 0.382040
v -1.010734 -0.309995 0.382040
v -1.139088 -0.859107 0.380958
v -1.303446 -0.730115 0.380958
v -1.139088 -0.859107 0.402925
v -1.303446 -0.730115 0.402925
v -1.303646 -0.788076 0.402925
v -1.277670 -0.832637 0.402925
v -1.244798 -0.858435 0.402925
v -1.194224 -0.869401 0.402925
v -1.303646 -0.788076 0.380958
v -1.277670 -0.832637 0.380958
v -1.244798 -0.858435 0.380958
v -1.194224 -0.869401 0.380958
v -0.967572 -0.297482 0.382040
v -0.915519 -0.306787 0.382040
v -0.863469 -0.347637 0.382040
v -0.843251 -0.395052 0.382040
v -0.843251 -0.395052 0.360073
v -0.863469 -0.347637 0.360073
v -0.915519 -0.306787 0.360073
v -0.967572 -0.297482 0.360073
v -0.846375 -0.438987 -0.415470
v -1.010734 -0.309995 -0.415470
v -0.846375 -0.438987 -0.386902
v -1.010734 -0.309995 -0.386902
v -1.139088 -0.859107 -0.430481
v -1.303446 -0.730115 -0.430481
v -1.139088 -0.859107 -0.401913
v -1.303446 -0.730115 -0.401913
v -1.303646 -0.788076 -0.401913
v -1.277670 -0.832637 -0.401913
v -1.244798 -0.858435 -0.401913
v -1.194224 -0.869401 -0.401913
v -1.303646 -0.788076 -0.430481
v -1.277670 -0.832637 -0.430481
v -1.244798 -0.858435 -0.430481
v -1.194224 -0.869401 -0.430481
v -0.967572 -0.297482 -0.386902
v -0.915519 -0.306787 -0.386902
v -0.863469 -0.347637 -0.386902
v -0.843251 -0.395052 -0.386902
v -0.843251 -0.395052 -0.415470
v -0.863469 -0.347637 -0.415470
v -0.915519 -0.306787 -0.415470
v -0.967572 -0.297482 -0.415470
vt 0.683947 0.760026
vt 0.735683 0.760026
vt 0.732276 0.762591
vt 0.687355 0.762591
vt 0.802421 0.212991
vt 0.802421 0.264137
vt 0.768206 0.264137
vt 0.768206 0.212991
vt 0.683947 0.741294
vt 0.735683 0.741294
vt 0.740829 0.467607
vt 0.740829 0.357533
vt 0.752300 0.375281
vt 0.754983 0.448525
vt 0.649557 0.424527
vt 0.649562 0.388886
vt 0.668758 0.386981
vt 0.669038 0.422848
vt 0.836256 0.212991
vt 0.836256 0.264137
vt 0.903983 0.212991
vt 0.903983 0.264137
vt 0.869707 0.264137
vt 0.869707 0.212991
vt 0.671802 0.387867
vt 0.672846 0.421937
vt 0.736223 0.305267
vt 0.687124 0.297607
vt 0.683075 0.290740
vt 0.742172 0.299960
vt 0.686805 0.517137
vt 0.682446 0.524144
vt 0.791900 0.448561
vt 0.789216 0.375316
vt 0.803371 0.356234
vt 0.803371 0.466308
vt 0.644903 0.525927
vt 0.644696 0.503965
vt 0.665215 0.741111
vt 0.665215 0.642261
vt 0.683947 0.642444
vt 0.683947 0.614971
vt 0.735683 0.614971
vt 0.735683 0.642444
vt 0.754415 0.642261
vt 0.754414 0.741111
vt 0.645895 0.307243
vt 0.646466 0.286548
vt 0.735390 0.264137
vt 0.735390 0.212991
vt 0.647248 0.423823
vt 0.646698 0.389618
vt 0.661807 0.738546
vt 0.661557 0.642623
vt 0.641544 0.504092
vt 0.928065 0.423255
vt 0.902420 0.448900
vt 0.870415 0.465067
vt 0.834029 0.470150
vt 0.836237 0.355734
vt 0.953304 0.356500
vt 0.944840 0.390641
vt 0.641544 0.307483
vt 0.757822 0.738546
vt 0.759229 0.643377
vt 0.944206 0.390345
vt 0.952782 0.356231
vt 0.836623 0.355639
vt 0.833141 0.469498
vt 0.869543 0.464531
vt 0.901599 0.448467
vt 0.927327 0.422904
vt 0.864089 0.321912
vt 0.844870 0.321912
vt 0.844870 0.313861
vt 0.844870 0.282514
vt 0.844870 0.277339
vt 0.864089 0.277338
vt 0.864089 0.282887
vt 0.864089 0.314974
vt 0.816272 0.321912
vt 0.797624 0.322339
vt 0.797624 0.277279
vt 0.816272 0.277339
vt 0.816272 0.283760
vt 0.816272 0.314517
vt 0.904234 0.321912
vt 0.874748 0.321912
vt 0.874748 0.314974
vt 0.874748 0.282887
vt 0.874748 0.277338
vt 0.904234 0.277338
vt 0.825804 0.283760
vt 0.825804 0.277339
vt 0.798167 0.206646
vt 0.798167 0.164676
vt 0.800582 0.164542
vt 0.800582 0.206841
vt 0.856710 0.164542
vt 0.856710 0.206841
vt 0.827721 0.206841
vt 0.827721 0.164542
vt 0.780528 0.205903
vt 0.780528 0.165283
vt 0.880125 0.164542
vt 0.880125 0.206841
vt 0.931346 0.260645
vt 0.927882 0.247641
vt 0.924417 0.234636
vt 0.920952 0.221632
vt 0.939949 0.211641
vt 0.950343 0.250655
vt 0.931783 0.260794
vt 0.934326 0.287808
vt 0.933740 0.302845
vt 0.950595 0.293585
vt 0.950595 0.250459
vt 0.955355 0.192726
vt 0.905432 0.191451
vt 0.905535 0.145311
vt 0.955355 0.145195
vt 0.895418 0.164542
vt 0.895418 0.206841
vt 0.932537 0.302725
vt 0.933397 0.287701
vt 0.949558 0.293773
vt 0.953545 0.142242
vt 0.954812 0.192178
vt 0.907283 0.192178
vt 0.907376 0.142373
vt 0.920952 0.342710
vt 0.936437 0.326042
vt 0.780426 0.321130
vt 0.780426 0.278328
vt 0.922884 0.343034
vt 0.938064 0.326087
vt 0.920681 0.221976
vt 0.924382 0.234915
vt 0.928082 0.247854
vt 0.939492 0.211641
vt 0.524736 0.159212
vt 0.521334 0.146486
vt 0.543438 0.146486
vt 0.546840 0.159212
vt 0.521334 0.102668
vt 0.524736 0.090764
vt 0.546840 0.090764
vt 0.543438 0.102668
vt 0.524736 0.204450
vt 0.546840 0.204450
vt 0.835337 0.282514
vt 0.835337 0.277338
vt 0.835337 0.321912
vt 0.825804 0.321912
vt 0.825804 0.314517
vt 0.835337 0.313861
vt 0.523634 0.159916
vt 0.520651 0.146811
vt 0.543414 0.146811
vt 0.546396 0.159916
vt 0.520821 0.103595
vt 0.523808 0.090491
vt 0.546370 0.090499
vt 0.543383 0.103602
vt 0.520651 0.102616
vt 0.523634 0.089511
vt 0.546396 0.089511
vt 0.543414 0.102616
vt 0.523634 0.204111
vt 0.546396 0.204111
vt 0.523769 0.203431
vt 0.523784 0.160066
vt 0.546346 0.160073
vt 0.546331 0.203439
vt 0.520806 0.146960
vt 0.543368 0.146968
vt 0.583411 0.076229
vt 0.583411 0.077764
vt 0.568801 0.077765
vt 0.568801 0.076229
vt 0.595868 0.077764
vt 0.690911 0.077765
vt 0.688803 0.081260
vt 0.681757 0.092375
vt 0.664208 0.092375
vt 0.595849 0.092375
vt 0.545211 0.066964
vt 0.544927 0.075992
vt 0.530223 0.075889
vt 0.530268 0.066701
vt 0.595868 0.018276
vt 0.583411 0.018276
vt 0.583411 0.003666
vt 0.595849 0.003666
vt 0.583411 0.092375
vt 0.595868 0.076229
vt 0.552580 0.007462
vt 0.549388 0.076114
vt 0.547274 0.017980
vt 0.547869 0.007243
vt 0.531000 0.016739
vt 0.531197 0.007191
vt 0.497696 0.170307
vt 0.498002 0.192758
vt 0.472228 0.176908
vt 0.472190 0.154622
vt 0.397781 0.176908
vt 0.397781 0.154455
vt 0.372226 0.193108
vt 0.372226 0.170656
vt 0.472228 0.207165
vt 0.397781 0.207165
vt 0.690911 0.018276
vt 0.664208 0.003666
vt 0.681757 0.003666
vt 0.688803 0.014781
vt 0.430578 0.076100
vt 0.430576 0.073814
vt 0.430572 0.070145
vt 0.430356 0.010676
vt 0.430328 0.008777
vt 0.430366 0.006879
vt 0.510259 0.007089
vt 0.510189 0.016232
vt 0.509758 0.066568
vt 0.509983 0.075988
vt 0.594829 0.018285
vt 0.530259 0.067073
vt 0.414947 0.008468
vt 0.414985 0.006570
vt 0.416153 0.076114
vt 0.416151 0.073828
vt 0.416098 0.070197
vt 0.415883 0.010728
vt 0.319752 0.121797
vt 0.319742 0.189383
vt 0.316014 0.193990
vt 0.309680 0.196907
vt 0.300968 0.196410
vt 0.295206 0.192803
vt 0.292232 0.187813
vt 0.292232 0.120227
vt 0.297426 0.114961
vt 0.303727 0.112337
vt 0.309229 0.112651
vt 0.315400 0.115513
vt 0.595868 0.020247
vt 0.583411 0.020247
vt 0.389996 0.093938
vt 0.477495 0.093938
vt 0.477495 0.115265
vt 0.389996 0.115265
vt 0.185812 0.010628
vt 0.185812 0.014672
vt 0.175488 0.014672
vt 0.175488 0.010628
vt 0.568801 0.020247
vt 0.568801 0.018276
vt 0.477495 0.140280
vt 0.389996 0.140280
vt 0.319870 0.189380
vt 0.319870 0.121795
vt 0.315516 0.115511
vt 0.309345 0.112650
vt 0.303843 0.112337
vt 0.297543 0.114962
vt 0.292349 0.120229
vt 0.292359 0.187815
vt 0.295334 0.192804
vt 0.301097 0.196411
vt 0.309809 0.196906
vt 0.316143 0.193989
vt 0.730420 0.047803
vt 0.770788 0.047853
vt 0.770831 0.013436
vt 0.730462 0.013437
vt 0.731199 0.014180
vt 0.771567 0.014127
vt 0.771612 0.048544
vt 0.731243 0.048546
vt 0.073131 0.018516
vt 0.073131 0.014472
vt 0.081238 0.014472
vt 0.081238 0.018516
vt 0.770197 0.056144
vt 0.770197 0.047401
vt 0.729828 0.047401
vt 0.729828 0.056144
vt 0.770153 0.012984
vt 0.729785 0.013035
vt 0.770153 0.047156
vt 0.729785 0.047104
vt 0.729828 0.012738
vt 0.770197 0.012738
vt 0.223192 0.014672
vt 0.223192 0.010628
vt 0.317441 0.014472
vt 0.317441 0.018516
vt 0.212523 0.014672
vt 0.212523 0.010628
vt 0.203029 0.014672
vt 0.203029 0.010628
vt 0.195338 0.014672
vt 0.195338 0.010628
vt 0.033459 0.018516
vt 0.033459 0.014472
vt 0.041731 0.014472
vt 0.041731 0.018516
vt 0.051464 0.014472
vt 0.051464 0.018516
vt 0.063643 0.014472
vt 0.063643 0.018516
vt 0.319851 0.122055
vt 0.319845 0.189613
vt 0.316118 0.194221
vt 0.309783 0.197138
vt 0.301071 0.196641
vt 0.295309 0.193035
vt 0.292335 0.188045
vt 0.292335 0.120486
vt 0.297527 0.115218
vt 0.303827 0.112593
vt 0.309329 0.112906
vt 0.315500 0.115769
vt 0.185832 0.015979
vt 0.185832 0.010720
vt 0.175508 0.010720
vt 0.175508 0.015979
vt 0.319768 0.189915
vt 0.319768 0.122357
vt 0.315417 0.116071
vt 0.309246 0.113209
vt 0.303744 0.112896
vt 0.297444 0.115522
vt 0.292252 0.120791
vt 0.292258 0.188349
vt 0.295232 0.193339
vt 0.300995 0.196945
vt 0.309707 0.197441
vt 0.316041 0.194524
vt 0.073150 0.013483
vt 0.073150 0.018742
vt 0.081258 0.018742
vt 0.081258 0.013483
vt 0.223211 0.010720
vt 0.223211 0.015979
vt 0.317460 0.018742
vt 0.317460 0.013483
vt 0.212542 0.010720
vt 0.212542 0.015979
vt 0.203049 0.010720
vt 0.203049 0.015979
vt 0.195357 0.010720
vt 0.195357 0.015979
vt 0.033478 0.013483
vt 0.033478 0.018742
vt 0.041750 0.018742
vt 0.041750 0.013483
vt 0.051483 0.018742
vt 0.051483 0.013483
vt 0.063662 0.018742
vt 0.063662 0.013483
vn 0.022400 0.999700 0.000000
vn 0.897900 0.440200 0.000000
vn 1.000000 -0.007200 0.000000
vn -0.060700 0.000000 -0.998200
vn 0.000000 1.000000 -0.000000
vn 0.720600 0.693400 0.000000
vn 0.157400 0.987500 -0.000000
vn -1.000000 0.000000 0.000000
vn -0.999700 0.025200 -0.000000
vn -0.999900 0.000600 -0.015200
vn -0.999900 0.000600 0.015200
vn -0.487500 -0.873100 0.000000
vn -0.060700 0.000000 0.998200
vn -0.487500 0.873100 0.000000
vn 0.000000 0.000000 1.000000
vn 0.467900 0.883800 0.000000
vn -0.013200 -0.999900 0.000000
vn 0.000000 -0.000000 -1.000000
vn 0.975100 0.221900 0.000000
vn 0.992400 0.123300 -0.000000
vn 0.994900 0.000000 0.101300
vn 0.014900 0.998500 -0.053100
vn 0.995200 -0.000100 0.097400
vn -0.001600 -0.001600 1.000000
vn 0.984700 0.002700 -0.174400
vn 0.017100 0.999800 -0.009400
vn -0.009800 -0.009900 -0.999900
vn -0.917700 -0.397300 0.000000
vn -0.999700 -0.022400 0.000000
vn -0.720600 -0.693400 0.000000
vn -0.975100 -0.221900 0.000000
vn 0.876400 0.481500 0.000000
vn 0.644500 0.764600 0.000000
vn 0.035800 -0.019200 0.999200
vn 0.331600 0.943400 0.000000
vn 0.038600 -0.005400 -0.999200
vn 0.000000 -1.000000 0.000000
vn -0.857000 -0.515200 0.000000
vn -0.146700 -0.989200 0.000000
vn 0.146700 0.989200 0.000000
vn 1.000000 0.000000 0.000000
vn -0.844600 -0.535400 0.000000
vn -0.856300 -0.516500 0.000000
vn -0.000600 0.000600 -1.000000
vn -0.847800 -0.530400 -0.001800
vn -0.021400 -0.027300 -0.999400
vn 0.183500 -0.983000 0.000000
vn 0.021400 0.027300 0.999400
vn 0.997500 -0.070900 0.000000
vn 1.000000 0.001300 0.000000
vn 0.820500 -0.571700 0.000000
vn -0.820500 0.571700 0.000000
vn -1.000000 0.003400 0.000000
vn -0.863900 -0.503600 0.000000
vn -0.617400 -0.786700 0.000000
vn -0.211900 -0.977300 0.000000
vn -0.278400 0.960500 0.000000
vn 0.176000 0.984400 0.000000
vn 0.617400 0.786700 0.000000
vn 0.919900 0.392200 0.000000
vn 0.015400 0.019600 -0.999700
vn -0.015400 -0.019600 0.999700
usemtl main
s off
f 1/1/1 2/2/1 23/3/1 24/4/1
f 28/5/2 27/6/2 25/7/2 26/8/2
f 2/2/3 1/1/3 19/9/3 20/10/3
f 8/11/4 10/12/4 18/13/4 16/14/4
f 3/15/5 4/16/5 12/17/5 11/18/5
f 30/19/6 29/20/6 27/6/6 28/5/6
f 34/21/7 33/22/7 31/23/7 32/24/7
f 8/25/8 7/26/8 11/18/8 12/17/8
f 9/27/9 10/28/9 14/29/9 13/30/9
f 7/26/10 9/31/10 13/32/10 11/18/10
f 10/28/11 8/25/11 12/17/11 14/29/11
f 15/33/8 16/14/8 18/13/8 17/34/8
f 10/12/12 9/35/12 17/34/12 18/13/12
f 9/35/13 7/36/13 15/33/13 17/34/13
f 7/36/14 8/11/14 16/14/14 15/33/14
f 13/32/15 21/37/15 5/38/15 3/15/15 11/18/15
f 1/39/15 5/40/15 21/41/15 19/9/15
f 32/24/16 31/23/16 29/20/16 30/19/16
f 20/10/17 19/9/17 21/41/17 13/42/17 14/43/17 22/44/17
f 6/45/18 2/46/18 20/10/18 22/44/18
f 6/47/18 22/48/18 14/29/18 12/17/18 4/16/18
f 26/8/19 25/7/19 24/49/19 23/50/19
f 4/16/20 3/15/20 33/51/20 34/52/20
f 3/15/21 5/38/21 33/51/21
f 5/40/22 1/39/22 24/53/22 35/54/22
f 33/51/23 5/38/23 35/55/23
f 27/56/24 29/57/24 31/58/24 33/59/24 35/60/24 24/61/24 25/62/24
f 6/47/25 4/16/25 34/52/25 36/63/25
f 23/64/26 2/46/26 6/45/26 36/65/26
f 26/66/27 23/67/27 36/68/27 34/69/27 32/70/27 30/71/27 28/72/27
f 41/73/28 44/74/28 74/75/28 73/76/28 43/77/28 42/78/28 64/79/28 63/80/28
f 38/81/29 40/82/29 39/83/29 37/84/29 77/85/29 78/86/29
f 48/87/30 46/88/30 62/89/30 61/90/30 45/91/30 47/92/30
f 80/93/31 77/85/31 37/84/31 69/94/31
f 49/95/1 50/96/1 51/97/1 57/98/1
f 58/99/32 56/100/32 55/101/32 54/102/32
f 50/96/3 49/95/3 52/103/3 53/104/3
f 60/105/33 59/106/33 56/100/33 58/99/33
f 54/102/19 55/101/19 57/98/19 51/97/19
f 43/107/15 70/108/15 69/109/15 37/110/15 57/111/15 55/112/15
f 44/113/18 41/114/18 46/115/18 58/116/18 54/117/18
f 37/118/34 39/119/34 52/120/34 49/121/34
f 48/122/35 47/123/35 59/106/35 60/105/35
f 45/124/15 42/125/15 43/107/15 55/112/15 56/126/15
f 40/127/36 38/128/36 50/129/36 53/130/36
f 47/131/15 45/124/15 56/126/15 59/132/15
f 39/83/37 40/82/37 53/133/37 52/134/37
f 46/115/18 48/135/18 60/136/18 58/116/18
f 61/90/38 64/79/38 42/78/38 45/91/38
f 38/137/18 72/138/18 71/139/18 44/113/18 54/117/18 51/140/18
f 46/88/38 41/73/38 63/80/38 62/89/38
f 62/141/18 63/142/18 67/143/18 66/144/18
f 64/145/15 61/146/15 65/147/15 68/148/15
f 63/142/39 64/145/39 68/148/39 67/143/39
f 61/149/40 62/141/40 66/144/40 65/150/40
f 73/76/31 76/151/31 70/152/31 43/77/31
f 71/153/31 72/154/31 79/155/31 80/93/31 69/94/31 70/152/31 76/151/31 75/156/31
f 44/74/31 71/153/31 75/156/31 74/75/31
f 74/157/18 75/158/18 83/159/18 82/160/18
f 72/154/31 38/81/31 78/86/31 79/155/31
f 77/161/15 80/162/15 88/163/15 85/164/15
f 76/165/15 73/166/15 81/167/15 84/168/15
f 75/158/37 76/165/37 84/168/37 83/159/37
f 73/169/5 74/157/5 82/160/5 81/170/5
f 80/171/5 79/172/5 87/173/5 88/174/5
f 78/175/37 77/161/37 85/164/37 86/176/37
f 79/172/18 78/175/18 86/176/18 87/173/18
f 116/177/41 92/178/41 91/179/41 117/180/41
f 110/181/15 96/182/15 97/183/15 95/184/15 107/185/15 111/186/15
f 101/187/42 98/188/42 93/189/42 99/190/42
f 112/191/18 90/192/18 89/193/18 113/194/18
f 92/178/15 110/181/15 111/186/15 91/195/15
f 120/196/5 110/181/5 92/178/5 116/177/5
f 96/197/43 94/198/43 98/188/43 101/187/43 102/199/43 97/200/43
f 97/200/42 102/199/42 100/201/42 95/202/42
f 100/203/44 102/204/44 106/205/44 104/206/44
f 106/205/45 105/207/45 103/208/45 104/206/45
f 101/209/15 99/210/15 103/208/15 105/207/15
f 102/211/37 101/212/37 105/207/37 106/205/37
f 94/213/18 112/191/18 113/194/18 108/214/18 93/215/18 98/216/18
f 113/217/37 125/218/37 129/219/37 124/220/37 123/221/37 111/222/37 107/223/37 104/224/37 103/225/37 108/226/37
f 94/213/5 96/182/5 110/181/5 120/227/5 121/191/5 128/191/5 122/191/5 112/191/5
f 104/224/37 107/223/37 95/202/37 100/201/37
f 108/226/37 103/225/37 109/228/37 99/190/37 93/189/37
f 117/229/37 91/230/37 111/222/37 123/221/37
f 89/231/37 119/232/37 125/218/37 113/217/37
f 127/233/37 118/234/37 124/220/37 129/219/37
f 135/235/46 131/236/46 153/237/46 152/238/46 151/239/46 150/240/46 130/241/46 134/242/46 145/243/46 144/244/46 143/245/46 142/246/46
f 112/191/5 122/247/5 114/248/5 90/192/5
f 128/249/5 121/250/5 115/251/5 126/252/5
f 141/253/47 145/254/47 134/255/47 136/256/47
f 90/192/41 114/248/41 119/257/41 89/258/41
f 126/252/41 115/251/41 118/259/41 127/260/41
f 133/261/48 137/262/48 138/263/48 139/264/48 140/265/48 141/266/48 136/267/48 132/268/48 149/269/48 148/270/48 147/271/48 146/272/48
f 117/273/15 116/274/15 120/275/15 123/276/15
f 118/277/15 115/278/15 121/279/15 124/280/15
f 150/281/49 149/282/49 132/283/49 130/284/49
f 121/279/50 120/275/50 123/276/50 124/280/50
f 122/285/50 128/286/50 129/287/50 125/288/50
f 126/289/15 128/286/15 129/287/15 127/290/15
f 114/291/18 119/292/18 125/293/18 122/294/18
f 130/284/51 132/283/51 136/256/51 134/255/51
f 135/295/52 137/296/52 133/297/52 131/298/52
f 137/296/53 135/295/53 142/299/53 138/300/53
f 138/300/54 142/299/54 143/301/54 139/302/54
f 139/302/55 143/301/55 144/303/55 140/304/55
f 140/304/56 144/303/56 145/254/56 141/253/56
f 131/305/57 133/306/57 146/307/57 153/308/57
f 153/308/58 146/307/58 147/309/58 152/310/58
f 152/310/59 147/309/59 148/311/59 151/312/59
f 151/312/60 148/311/60 149/282/60 150/281/60
f 159/313/61 155/314/61 177/315/61 176/316/61 175/317/61 174/318/61 154/319/61 158/320/61 169/321/61 168/322/61 167/323/61 166/324/61
f 165/325/47 169/326/47 158/327/47 160/328/47
f 157/329/62 161/330/62 162/331/62 163/332/62 164/333/62 165/334/62 160/335/62 156/336/62 173/337/62 172/338/62 171/339/62 170/340/62
f 174/341/49 173/342/49 156/343/49 154/344/49
f 154/344/51 156/343/51 160/328/51 158/327/51
f 159/345/52 161/346/52 157/347/52 155/348/52
f 161/346/53 159/345/53 166/349/53 162/350/53
f 162/350/54 166/349/54 167/351/54 163/352/54
f 163/352/55 167/351/55 168/353/55 164/354/55
f 164/354/56 168/353/56 169/326/56 165/325/56
f 155/355/57 157/356/57 170/357/57 177/358/57
f 177/358/58 170/357/58 171/359/58 176/360/58
f 176/360/59 171/359/59 172/361/59 175/362/59
f 175/362/60 172/361/60 173/342/60 174/341/60
