# Blender v2.76 (sub 0) OBJ File: ''
# www.blender.org
o Cylinder
v 0.126633 0.113899 0.199457
v -11.213434 0.113900 0.199457
v 0.126633 -0.066837 0.129865
v -11.213434 -0.066836 0.129865
v 0.126633 -0.141701 -0.038143
v -11.213434 -0.141700 -0.038143
v 0.126633 -0.066837 -0.206152
v -11.213434 -0.066836 -0.206152
v 0.126633 0.113899 -0.275743
v -11.213434 0.113900 -0.275743
v 0.126633 0.294636 -0.206152
v -11.213434 0.294637 -0.206152
v 0.126633 0.369499 -0.038143
v -11.213434 0.369500 -0.038143
v 0.126633 0.294636 0.129865
v -11.213434 0.294637 0.129865
vn -0.000000 -0.359300 0.933200
vn -0.000000 -0.913400 0.407000
vn -0.000000 -0.913400 -0.407000
vn -0.000000 -0.359300 -0.933200
vn 0.000000 0.359300 -0.933200
vn 0.000000 0.913400 -0.407000
vn -1.000000 0.000000 0.000000
vn 0.000000 0.359300 0.933200
vn 0.000000 0.913400 0.407000
vn 1.000000 0.000000 0.000000
s off
f 1//1 2//1 4//1 3//1
f 3//2 4//2 6//2 5//2
f 5//3 6//3 8//3 7//3
f 7//4 8//4 10//4 9//4
f 9//5 10//5 12//5 11//5
f 11//6 12//6 14//6 13//6
f 4//7 2//7 16//7 14//7 12//7 10//7 8//7 6//7
f 15//8 16//8 2//8 1//8
f 13//9 14//9 16//9 15//9
f 1//10 3//10 5//10 7//10 9//10 11//10 13//10 15//10
