# Blender v2.76 (sub 0) OBJ File: 'wheels.blend'
# www.blender.org
mtllib fbrw.mtl
o fbrw_Cylinder.011
v -0.556891 0.534445 0.890901
v -0.556891 0.534445 -0.713099
v -0.313574 0.697023 -0.713099
v -0.313574 0.697025 0.890901
v 0.552205 -0.235619 -0.713099
v 0.599891 0.004114 -0.713099
v 0.599891 0.004114 -0.601735
v 0.552205 -0.235619 -0.601735
v -0.026562 0.754115 0.890901
v 0.260451 0.697024 0.890901
v 0.503768 0.534445 0.890901
v 0.666347 0.291127 0.890901
v 0.723438 0.004115 0.890901
v 0.666347 -0.282898 0.890901
v 0.503768 -0.526215 0.890901
v 0.260451 -0.688795 0.890901
v -0.026562 -0.745885 0.890901
v -0.313574 -0.688795 0.890901
v -0.556891 -0.526215 0.890901
v -0.719471 -0.282898 0.890901
v -0.776562 0.004115 0.890901
v -0.719471 0.291128 0.890901
v -0.026562 0.754114 -0.713099
v -0.719471 0.291127 -0.713099
v -0.776562 0.004114 -0.713099
v -0.719471 -0.282898 -0.713099
v -0.556891 -0.526217 -0.713099
v -0.313574 -0.688796 -0.713099
v -0.026562 -0.745886 -0.713099
v 0.260451 -0.688796 -0.713099
v 0.503768 -0.526215 -0.713099
v 0.666347 -0.282898 -0.713099
v 0.723438 0.004114 -0.713099
v 0.666347 0.291127 -0.713099
v 0.503768 0.534445 -0.713099
v 0.260451 0.697023 -0.713099
v -0.026562 0.630566 -0.713099
v 0.213171 0.582881 -0.713099
v 0.416408 0.447084 -0.713099
v 0.552205 0.243848 -0.713099
v 0.416408 -0.438855 -0.713099
v 0.213171 -0.574652 -0.713099
v -0.026562 -0.622338 -0.713099
v -0.266295 -0.574652 -0.713099
v -0.469531 -0.438855 -0.713099
v -0.605329 -0.235619 -0.713099
v -0.653014 0.004114 -0.713099
v -0.605329 0.243848 -0.713099
v -0.469531 0.447084 -0.713099
v -0.266295 0.582882 -0.713099
v -0.118024 0.224924 -0.601735
v -0.195561 0.173114 -0.601735
v -0.195561 0.173114 -0.690625
v -0.118024 0.224924 -0.690625
v -0.653014 0.004114 -0.601735
v -0.605329 0.243848 -0.601735
v 0.416408 -0.438855 -0.601735
v -0.469531 0.447084 -0.601735
v 0.213171 -0.574652 -0.601735
v -0.266295 0.582882 -0.601735
v -0.026562 -0.622338 -0.601735
v -0.026562 0.630566 -0.601735
v 0.213171 0.582881 -0.601735
v -0.266295 -0.574652 -0.601735
v 0.416408 0.447084 -0.601735
v -0.469531 -0.438855 -0.601735
v 0.552205 0.243848 -0.601735
v -0.605329 -0.235619 -0.601735
v -0.026562 0.243117 -0.601735
v 0.064900 0.224924 -0.601735
v 0.142438 0.173114 -0.601735
v 0.194247 0.095576 -0.601735
v 0.212441 0.004114 -0.601735
v 0.194247 -0.087349 -0.601735
v 0.142438 -0.164885 -0.601735
v 0.064900 -0.216695 -0.601735
v -0.026562 -0.234888 -0.601735
v -0.118024 -0.216695 -0.601735
v -0.195561 -0.164885 -0.601735
v -0.247371 -0.087349 -0.601735
v -0.265564 0.004114 -0.601735
v -0.247371 0.095576 -0.601735
v 0.064900 0.224924 -0.690625
v -0.026562 0.243117 -0.690625
v -0.247371 0.095576 -0.690625
v -0.265564 0.004114 -0.690625
v -0.247371 -0.087349 -0.690625
v -0.195561 -0.164885 -0.690625
v -0.118024 -0.216695 -0.690625
v -0.026562 -0.234888 -0.690625
v 0.064900 -0.216695 -0.690625
v 0.142438 -0.164885 -0.690625
v 0.194247 -0.087349 -0.690625
v 0.212441 0.004114 -0.690625
v 0.194247 0.095576 -0.690625
v 0.142438 0.173114 -0.690625
vt 0.000124 0.000124
vt 0.000124 0.054360
vt 0.297403 0.054360
vt 0.297403 0.000124
vt 0.594164 0.774554
vt 0.576115 0.782839
vt 0.586405 0.821211
vt 0.606144 0.819124
vt 0.737108 0.000124
vt 0.687382 0.020721
vt 0.649324 0.058779
vt 0.628727 0.108505
vt 0.628727 0.162328
vt 0.649324 0.212054
vt 0.687382 0.250112
vt 0.737108 0.270709
vt 0.790930 0.270709
vt 0.840656 0.250112
vt 0.878714 0.212054
vt 0.899311 0.162328
vt 0.899311 0.108505
vt 0.878714 0.058780
vt 0.840656 0.020721
vt 0.790930 0.000124
vt 0.000124 0.108596
vt 0.297403 0.108596
vt 0.000150 0.813659
vt 0.000156 0.867888
vt 0.297400 0.867855
vt 0.297399 0.813658
vt 0.000144 0.759427
vt 0.297401 0.759424
vt 0.000138 0.705193
vt 0.297402 0.705190
vt 0.000133 0.650958
vt 0.297403 0.650954
vt 0.000128 0.596721
vt 0.297403 0.596719
vt 0.000124 0.542483
vt 0.297403 0.542483
vt 0.000124 0.488247
vt 0.297403 0.488247
vt 0.000124 0.434011
vt 0.297403 0.434011
vt 0.000124 0.379775
vt 0.297403 0.379775
vt 0.000124 0.325539
vt 0.297403 0.325539
vt 0.000124 0.271303
vt 0.297403 0.271303
vt 0.000124 0.217067
vt 0.297403 0.217068
vt 0.000124 0.162832
vt 0.297403 0.162832
vt 0.515577 0.966687
vt 0.523488 0.987984
vt 0.569701 0.960497
vt 0.555616 0.942922
vt 0.604695 0.920045
vt 0.585836 0.907903
vt 0.624985 0.870661
vt 0.603267 0.865169
vt 0.628478 0.817401
vt 0.614792 0.765788
vt 0.585328 0.721210
vt 0.568564 0.736114
vt 0.543139 0.688340
vt 0.532000 0.707833
vt 0.492618 0.670637
vt 0.488277 0.692688
vt 0.439032 0.669977
vt 0.441953 0.692288
vt 0.387971 0.686448
vt 0.397853 0.706699
vt 0.344730 0.718325
vt 0.360540 0.734445
vt 0.313659 0.762238
vt 0.333792 0.772699
vt 0.320278 0.817573
vt 0.319829 0.863360
vt 0.422608 0.973814
vt 0.416541 0.995001
vt 0.470500 0.999876
vt 0.469446 0.977050
vt 0.920633 0.271313
vt 0.920610 0.287661
vt 0.937762 0.287685
vt 0.937784 0.271336
vt 0.339868 0.820563
vt 0.351915 0.781388
vt 0.554094 0.749739
vt 0.339285 0.863829
vt 0.522627 0.725381
vt 0.467954 0.956024
vt 0.424201 0.952075
vt 0.484993 0.712331
vt 0.542737 0.927666
vt 0.508111 0.947879
vt 0.445112 0.711977
vt 0.568839 0.897604
vt 0.407139 0.724387
vt 0.583896 0.860843
vt 0.374998 0.748313
vt 0.484352 0.884149
vt 0.499559 0.875205
vt 0.511055 0.861828
vt 0.517653 0.845458
vt 0.518667 0.827822
vt 0.513986 0.810769
vt 0.504094 0.796092
vt 0.490018 0.785333
vt 0.473227 0.779627
vt 0.455477 0.779584
vt 0.438626 0.785222
vt 0.424446 0.795968
vt 0.414443 0.810725
vt 0.409731 0.828001
vt 0.411018 0.846093
vt 0.449857 0.884687
vt 0.466969 0.887579
vt 0.628750 0.321796
vt 0.628727 0.338948
vt 0.635268 0.354803
vt 0.647380 0.366947
vt 0.663217 0.373533
vt 0.680368 0.373557
vt 0.696223 0.367015
vt 0.708368 0.354903
vt 0.714954 0.339066
vt 0.714977 0.321915
vt 0.708436 0.306060
vt 0.696324 0.293915
vt 0.680487 0.287330
vt 0.663336 0.287306
vt 0.647481 0.293848
vt 0.635336 0.305959
vt 0.766268 0.271099
vt 0.766245 0.287448
vt 0.783397 0.287472
vt 0.783420 0.271123
vt 0.886330 0.271265
vt 0.886307 0.287614
vt 0.903459 0.287638
vt 0.903481 0.271289
vt 0.749116 0.271076
vt 0.749094 0.287424
vt 0.869178 0.271241
vt 0.869155 0.287590
vt 0.731965 0.271052
vt 0.731942 0.287401
vt 0.852026 0.271218
vt 0.852004 0.287567
vt 0.714813 0.271028
vt 0.714791 0.287377
vt 0.834875 0.271194
vt 0.834852 0.287543
vt 0.697661 0.271004
vt 0.697639 0.287353
vt 0.817723 0.271170
vt 0.817700 0.287519
vt 0.680510 0.270981
vt 0.800571 0.271147
vt 0.800549 0.287495
vt 0.663358 0.270957
vn -0.555600 0.831500 -0.000000
vn -0.980800 0.195100 0.000000
vn -0.000000 0.000000 1.000000
vn -0.195100 0.980800 -0.000000
vn -0.831500 0.555600 -0.000000
vn -0.980800 -0.195100 0.000000
vn -0.831500 -0.555600 0.000000
vn -0.555600 -0.831500 0.000000
vn -0.195100 -0.980800 0.000000
vn 0.195100 -0.980800 0.000000
vn 0.555600 -0.831500 0.000000
vn 0.831500 -0.555600 0.000000
vn 0.980800 -0.195100 0.000000
vn 0.980800 0.195100 -0.000000
vn 0.831500 0.555600 -0.000000
vn 0.555600 0.831500 -0.000000
vn 0.195100 0.980800 -0.000000
vn 0.000000 -0.000000 -1.000000
usemtl wheel
s 1
f 1/1/1 4/2/1 3/3/1 2/4/1
f 5/5/2 8/6/2 7/7/2 6/8/2
f 9/9/3 4/10/3 1/11/3 22/12/3 21/13/3 20/14/3 19/15/3 18/16/3 17/17/3 16/18/3 15/19/3 14/20/3 13/21/3 12/22/3 11/23/3 10/24/3
f 4/2/4 9/25/4 23/26/4 3/3/4
f 22/27/5 1/28/5 2/29/5 24/30/5
f 21/31/2 22/27/2 24/30/2 25/32/2
f 20/33/6 21/31/6 25/32/6 26/34/6
f 19/35/7 20/33/7 26/34/7 27/36/7
f 18/37/8 19/35/8 27/36/8 28/38/8
f 17/39/9 18/37/9 28/38/9 29/40/9
f 16/41/10 17/39/10 29/40/10 30/42/10
f 15/43/11 16/41/11 30/42/11 31/44/11
f 14/45/12 15/43/12 31/44/12 32/46/12
f 13/47/13 14/45/13 32/46/13 33/48/13
f 12/49/14 13/47/14 33/48/14 34/50/14
f 11/51/15 12/49/15 34/50/15 35/52/15
f 10/53/16 11/51/16 35/52/16 36/54/16
f 9/25/17 10/53/17 36/54/17 23/26/17
f 37/55/18 23/56/18 36/57/18 38/58/18
f 38/58/18 36/57/18 35/59/18 39/60/18
f 39/60/18 35/59/18 34/61/18 40/62/18
f 40/62/18 34/61/18 33/63/18 6/8/18
f 6/8/18 33/63/18 32/64/18 5/5/18
f 5/5/18 32/64/18 31/65/18 41/66/18
f 41/66/18 31/65/18 30/67/18 42/68/18
f 42/68/18 30/67/18 29/69/18 43/70/18
f 43/70/18 29/69/18 28/71/18 44/72/18
f 44/72/18 28/71/18 27/73/18 45/74/18
f 45/74/18 27/73/18 26/75/18 46/76/18
f 46/76/18 26/75/18 25/77/18 47/78/18
f 47/78/18 25/77/18 24/30/18 48/79/18
f 48/79/18 24/30/18 2/29/18 49/80/18
f 49/81/18 2/82/18 3/83/18 50/84/18
f 50/84/18 3/83/18 23/56/18 37/55/18
f 51/85/1 54/86/1 53/87/1 52/88/1
f 48/79/13 56/89/13 55/90/13 47/78/13
f 41/66/5 57/91/5 8/6/5 5/5/5
f 49/80/12 58/92/12 56/89/12 48/79/12
f 42/68/1 59/93/1 57/91/1 41/66/1
f 50/84/11 60/94/11 58/95/11 49/81/11
f 43/70/4 61/96/4 59/93/4 42/68/4
f 38/58/9 63/97/9 62/98/9 37/55/9
f 37/55/10 62/98/10 60/94/10 50/84/10
f 44/72/17 64/99/17 61/96/17 43/70/17
f 39/60/8 65/100/8 63/97/8 38/58/8
f 45/74/16 66/101/16 64/99/16 44/72/16
f 40/62/7 67/102/7 65/100/7 39/60/7
f 46/76/15 68/103/15 66/101/15 45/74/15
f 6/8/6 7/7/6 67/102/6 40/62/6
f 47/78/14 55/90/14 68/103/14 46/76/14
f 69/104/18 62/98/18 63/97/18 70/105/18
f 70/105/18 63/97/18 65/100/18 71/106/18
f 71/106/18 65/100/18 67/102/18 72/107/18
f 72/107/18 67/102/18 7/7/18 73/108/18
f 73/108/18 7/7/18 8/6/18 74/109/18
f 74/109/18 8/6/18 57/91/18 75/110/18
f 75/110/18 57/91/18 59/93/18 76/111/18
f 76/111/18 59/93/18 61/96/18 77/112/18
f 77/112/18 61/96/18 64/99/18 78/113/18
f 78/113/18 64/99/18 66/101/18 79/114/18
f 79/114/18 66/101/18 68/103/18 80/115/18
f 80/115/18 68/103/18 55/90/18 81/116/18
f 81/116/18 55/90/18 56/89/18 82/117/18
f 82/117/18 56/89/18 58/92/18 52/118/18
f 52/119/18 58/95/18 60/94/18 51/120/18
f 51/120/18 60/94/18 62/98/18 69/104/18
f 83/121/18 96/122/18 95/123/18 94/124/18 93/125/18 92/126/18 91/127/18 90/128/18 89/129/18 88/130/18 87/131/18 86/132/18 85/133/18 53/134/18 54/135/18 84/136/18
f 77/137/10 90/138/10 91/139/10 76/140/10
f 70/141/17 83/142/17 84/143/17 69/144/17
f 69/144/4 84/143/4 54/86/4 51/85/4
f 78/145/9 89/146/9 90/138/9 77/137/9
f 71/147/16 96/148/16 83/142/16 70/141/16
f 79/149/8 88/150/8 89/146/8 78/145/8
f 72/151/15 95/152/15 96/148/15 71/147/15
f 80/153/7 87/154/7 88/150/7 79/149/7
f 73/155/14 94/156/14 95/152/14 72/151/14
f 81/157/6 86/158/6 87/154/6 80/153/6
f 74/159/13 93/160/13 94/156/13 73/155/13
f 82/161/2 85/133/2 86/158/2 81/157/2
f 75/162/12 92/163/12 93/160/12 74/159/12
f 52/164/5 53/134/5 85/133/5 82/161/5
f 76/140/11 91/139/11 92/163/11 75/162/11
