# Blender v2.76 (sub 0) OBJ File: 'turret.blend'
# www.blender.org
mtllib maus_turret.mtl
o turret_Cube.002
v -4.680566 2.679589 2.315279
v 4.102422 2.679589 2.315279
v 4.102422 2.679589 -2.251402
v -4.680566 2.679589 -2.251401
v 5.518449 0.147080 3.451769
v 4.626400 0.147080 3.451769
v 4.626400 0.147080 3.278672
v 4.626400 0.147081 -3.265244
v 4.626400 0.147081 -3.451770
v 5.518448 0.147081 -3.451770
v -3.866263 0.147081 -3.451769
v -4.208361 0.147081 -3.451769
v -4.952733 0.526746 -3.282459
v -5.143012 0.906411 -3.113147
v -5.211649 1.286077 -2.943837
v -5.172406 1.665743 -2.774528
v -5.037576 2.045408 -2.605217
v -4.208360 0.147080 3.451770
v -4.952732 0.526746 3.282459
v -5.172405 1.665743 2.774529
v -5.037576 2.045408 2.605218
v -5.211648 1.286077 2.943838
v -5.143011 0.906411 3.113148
v -3.866263 0.147080 3.451769
v -3.866263 0.147081 -3.265243
v -3.866263 0.147080 3.278673
v 4.626400 0.005097 2.976856
v -3.866263 0.005097 2.976857
v -3.866263 0.005098 -2.976857
v 4.626400 0.005098 -2.976857
vt 0.656687 0.391598
vt 0.201610 0.391599
vt 0.201610 0.154983
vt 0.656687 0.154983
vt 0.051273 0.450484
vt 0.005053 0.450484
vt 0.000107 0.440851
vt 0.004917 0.101797
vt 0.005054 0.092133
vt 0.051273 0.092788
vt 0.128240 0.009772
vt 0.174461 0.009772
vt 0.614494 0.009771
vt 0.632220 0.009754
vt 0.670809 0.031255
vt 0.680689 0.052784
vt 0.684267 0.074320
vt 0.682255 0.095861
vt 0.675290 0.117407
vt 0.820337 0.092787
vt 0.820337 0.450483
vt 0.777042 0.441711
vt 0.777042 0.101560
vt 0.715270 0.127878
vt 0.715270 0.415393
vt 0.694395 0.406621
vt 0.694394 0.136650
vt 0.735047 0.119105
vt 0.735047 0.424166
vt 0.755038 0.110332
vt 0.755038 0.432938
vt 0.838063 0.450483
vt 0.838063 0.092787
vt 0.838063 0.102452
vt 0.838063 0.441514
vt 0.017409 0.992527
vt 0.017410 0.551971
vt 0.326258 0.551972
vt 0.326257 0.992528
vt 0.174461 0.000107
vt 0.614494 0.000108
vt 0.001753 0.544606
vt 0.341217 0.544607
vt 0.342933 0.551972
vt 0.342932 0.992528
vt 0.341216 0.999893
vt 0.001753 0.999892
vt 0.675186 0.427728
vt 0.682172 0.449267
vt 0.684205 0.470806
vt 0.680648 0.492345
vt 0.670789 0.513884
vt 0.632220 0.535423
vt 0.614495 0.535423
vt 0.174461 0.535424
vt 0.128241 0.535424
vt 0.614495 0.544392
vt 0.174461 0.544391
vt 0.000107 0.551971
vt 0.000107 0.992527
vn 0.000000 1.000000 0.000000
vn -0.000000 -1.000000 -0.000000
vn 0.002500 0.428100 -0.903800
vn -0.454400 -0.890800 0.000000
vn -0.942300 0.334700 0.000000
vn -0.994700 0.102800 0.000000
vn -0.984000 -0.177900 0.000000
vn -0.894000 -0.448100 0.000000
vn -0.871400 0.490600 0.000000
vn -1.000000 0.000000 0.000000
vn -0.000000 -0.897200 -0.441700
vn 1.000000 0.000000 -0.000000
vn 0.000200 0.409400 0.912400
vn 0.000000 -0.904900 0.425700
vn 0.872800 0.488000 -0.000000
usemtl turret
s 1
f 1/1/1 2/2/1 3/3/1 4/4/1
f 5/5/2 6/6/2 7/7/2 8/8/2 9/9/2 10/10/2
f 4/4/3 3/3/3 10/11/3 9/12/3 11/13/3 12/14/3 13/15/3 14/16/3 15/17/3 16/18/3 17/19/3
f 12/20/4 18/21/4 19/22/4 13/23/4
f 16/24/5 20/25/5 21/26/5 17/27/5
f 15/28/6 22/29/6 20/25/6 16/24/6
f 14/30/7 23/31/7 22/29/7 15/28/7
f 13/23/8 19/22/8 23/31/8 14/30/8
f 24/32/2 18/21/2 12/20/2 11/33/2 25/34/2 26/35/2
f 17/27/9 21/26/9 1/1/9 4/4/9
f 27/36/2 28/37/2 29/38/2 30/39/2
f 9/12/2 8/40/2 25/41/2 11/13/2
f 29/38/10 28/37/10 26/42/10 25/43/10
f 25/44/11 8/45/11 30/39/11 29/38/11
f 8/46/12 7/47/12 27/36/12 30/39/12
f 1/1/13 21/48/13 20/49/13 22/50/13 23/51/13 19/52/13 18/53/13 24/54/13 6/55/13 5/56/13 2/2/13
f 6/55/2 24/54/2 26/57/2 7/58/2
f 26/59/14 28/37/14 27/36/14 7/60/14
f 2/2/15 5/5/15 10/10/15 3/3/15
o Cylinder.001
v 1.357088 2.673743 -0.126945
v 1.357088 2.818587 -0.298652
v 1.109468 2.818587 -0.363833
v 1.022076 2.673743 -0.215131
v 0.928198 2.818587 -0.541912
v 0.776829 2.673743 -0.456058
v 0.861848 2.818587 -0.785171
v 0.687062 2.673743 -0.785171
v 0.928198 2.818587 -1.028430
v 0.776829 2.673743 -1.114284
v 1.109468 2.818587 -1.206508
v 1.022075 2.673743 -1.355212
v 1.357088 2.818587 -1.271689
v 1.357088 2.673743 -1.443397
v 1.604710 2.818587 -1.206508
v 1.692101 2.673743 -1.355212
v 1.785980 2.818587 -1.028430
v 1.937348 2.673743 -1.114284
v 1.852329 2.818587 -0.785172
v 2.027115 2.673743 -0.785172
v 1.785980 2.818587 -0.541912
v 1.937348 2.673743 -0.456059
v 1.604710 2.818587 -0.363834
v 1.692103 2.673743 -0.215131
vt 0.632941 0.846422
vt 0.636831 0.893894
vt 0.625882 0.895244
vt 0.618127 0.848248
vt 0.615079 0.897484
vt 0.603511 0.851279
vt 0.604495 0.900598
vt 0.589192 0.855492
vt 0.594201 0.904567
vt 0.575265 0.860861
vt 0.584266 0.909363
vt 0.561823 0.867350
vt 0.733886 0.867350
vt 0.711443 0.909363
vt 0.701508 0.904567
vt 0.720444 0.860861
vt 0.691214 0.900598
vt 0.706517 0.855492
vt 0.680630 0.897484
vt 0.692198 0.851279
vt 0.669827 0.895244
vt 0.677582 0.848248
vt 0.658878 0.893895
vt 0.662768 0.846422
vt 0.597481 0.945050
vt 0.587926 0.950566
vt 0.576894 0.950566
vt 0.567339 0.945050
vt 0.561823 0.935495
vt 0.561823 0.924463
vt 0.567339 0.914909
vt 0.576894 0.909392
vt 0.587926 0.909392
vt 0.597481 0.914909
vt 0.602997 0.924463
vt 0.602997 0.935495
vt 0.647855 0.845812
vt 0.647855 0.893444
vn -0.167300 0.753600 0.635700
vn -0.458700 0.756100 0.466900
vn -0.628600 0.758600 0.171500
vn -0.628600 0.758600 -0.171500
vn -0.458700 0.756100 -0.466900
vn -0.167300 0.753600 -0.635700
vn 0.167300 0.753600 -0.635700
vn 0.458700 0.756100 -0.466900
vn 0.628600 0.758600 -0.171500
vn 0.628600 0.758600 0.171500
vn 0.000000 1.000000 -0.000000
vn 0.167300 0.753600 0.635700
vn 0.458700 0.756100 0.466900
usemtl turret
s 1
f 31/61/16 32/62/16 33/63/16 34/64/16
f 34/64/17 33/63/17 35/65/17 36/66/17
f 36/66/18 35/65/18 37/67/18 38/68/18
f 38/68/19 37/67/19 39/69/19 40/70/19
f 40/70/20 39/69/20 41/71/20 42/72/20
f 42/73/21 41/74/21 43/75/21 44/76/21
f 44/76/22 43/75/22 45/77/22 46/78/22
f 46/78/23 45/77/23 47/79/23 48/80/23
f 48/80/24 47/79/24 49/81/24 50/82/24
f 50/82/25 49/81/25 51/83/25 52/84/25
f 33/85/26 32/86/26 53/87/26 51/88/26 49/89/26 47/90/26 45/91/26 43/92/26 41/93/26 39/94/26 37/95/26 35/96/26
f 54/97/27 53/98/27 32/62/27 31/61/27
f 52/84/28 51/83/28 53/98/28 54/97/28
o Cylinder.002_Cylinder.020
v 1.339683 2.673743 1.704774
v 1.339683 2.818587 1.530415
v 1.101944 2.818587 1.464228
v 1.018039 2.673743 1.615227
v 0.927907 2.818587 1.283401
v 0.782579 2.673743 1.370580
v 0.864205 2.818587 1.036386
v 0.696394 2.673743 1.036386
v 0.927907 2.818587 0.789371
v 0.782578 2.673743 0.702192
v 1.101944 2.818587 0.608544
v 1.018039 2.673743 0.457545
v 1.339683 2.818587 0.542357
v 1.339683 2.673743 0.367998
v 1.577422 2.818587 0.608543
v 1.661327 2.673743 0.457545
v 1.751459 2.818587 0.789371
v 1.896787 2.673743 0.702191
v 1.815160 2.818587 1.036385
v 1.982971 2.673743 1.036385
v 1.751459 2.818587 1.283401
v 1.896787 2.673743 1.370579
v 1.577422 2.818587 1.464227
v 1.661328 2.673743 1.615227
vt 0.632941 0.846422
vt 0.636831 0.893894
vt 0.625882 0.895244
vt 0.618127 0.848248
vt 0.615079 0.897484
vt 0.603511 0.851279
vt 0.604495 0.900598
vt 0.589192 0.855492
vt 0.594201 0.904567
vt 0.575265 0.860861
vt 0.584266 0.909363
vt 0.561823 0.867350
vt 0.733886 0.867350
vt 0.711443 0.909363
vt 0.701508 0.904567
vt 0.720444 0.860861
vt 0.691214 0.900598
vt 0.706517 0.855492
vt 0.680630 0.897484
vt 0.692198 0.851279
vt 0.669827 0.895244
vt 0.677582 0.848248
vt 0.658878 0.893895
vt 0.662768 0.846422
vt 0.597481 0.945050
vt 0.587926 0.950566
vt 0.576894 0.950566
vt 0.567339 0.945050
vt 0.561823 0.935495
vt 0.561823 0.924463
vt 0.567339 0.914909
vt 0.576894 0.909392
vt 0.587926 0.909392
vt 0.597481 0.914909
vt 0.602997 0.924463
vt 0.602997 0.935495
vt 0.647855 0.845812
vt 0.647855 0.893444
vn -0.175200 0.757300 0.629100
vn -0.475100 0.751800 0.457200
vn -0.644300 0.746500 0.166200
vn -0.644300 0.746500 -0.166200
vn -0.475100 0.751800 -0.457200
vn -0.175200 0.757300 -0.629100
vn 0.175100 0.757300 -0.629100
vn 0.475100 0.751800 -0.457200
vn 0.644300 0.746500 -0.166200
vn 0.644300 0.746500 0.166200
vn 0.000000 1.000000 -0.000000
vn 0.175100 0.757300 0.629100
vn 0.475100 0.751800 0.457200
usemtl turret
s 1
f 55/99/29 56/100/29 57/101/29 58/102/29
f 58/102/30 57/101/30 59/103/30 60/104/30
f 60/104/31 59/103/31 61/105/31 62/106/31
f 62/106/32 61/105/32 63/107/32 64/108/32
f 64/108/33 63/107/33 65/109/33 66/110/33
f 66/111/34 65/112/34 67/113/34 68/114/34
f 68/114/35 67/113/35 69/115/35 70/116/35
f 70/116/36 69/115/36 71/117/36 72/118/36
f 72/118/37 71/117/37 73/119/37 74/120/37
f 74/120/38 73/119/38 75/121/38 76/122/38
f 57/123/39 56/124/39 77/125/39 75/126/39 73/127/39 71/128/39 69/129/39 67/130/39 65/131/39 63/132/39 61/133/39 59/134/39
f 78/135/40 77/136/40 56/100/40 55/99/40
f 76/122/41 75/121/41 77/136/41 78/135/41
o Cylinder
v -2.783483 2.633232 1.927697
v -2.783483 3.236746 1.831177
v -2.920223 3.236746 1.794537
v -2.968483 2.633232 1.878126
v -3.020324 3.236746 1.694437
v -3.103912 2.633232 1.742697
v -3.056963 3.236746 1.557697
v -3.153483 2.633232 1.557697
v -3.020324 3.236746 1.420956
v -3.103912 2.633232 1.372697
v -2.920223 3.236746 1.320856
v -2.968483 2.633232 1.237267
v -2.783483 3.236746 1.284216
v -2.783483 2.633232 1.187697
v -2.646743 3.236746 1.320856
v -2.598483 2.633232 1.237267
v -2.546642 3.236746 1.420956
v -2.463054 2.633232 1.372696
v -2.510003 3.236746 1.557696
v -2.413483 2.633232 1.557696
v -2.546642 3.236746 1.694437
v -2.463053 2.633232 1.742696
v -2.646743 3.236746 1.794537
v -2.598483 2.633232 1.878126
vt 0.882482 0.838546
vt 0.878593 0.885997
vt 0.867575 0.885546
vt 0.867575 0.837936
vt 0.856557 0.885997
vt 0.852668 0.838546
vt 0.845612 0.887346
vt 0.837861 0.840371
vt 0.834814 0.889584
vt 0.823252 0.843400
vt 0.824235 0.892697
vt 0.808940 0.847612
vt 0.813946 0.896664
vt 0.795019 0.852979
vt 0.804015 0.901458
vt 0.781583 0.859465
vt 0.953567 0.859465
vt 0.931135 0.901458
vt 0.921204 0.896664
vt 0.940131 0.852979
vt 0.910915 0.892697
vt 0.926210 0.847612
vt 0.900336 0.889584
vt 0.911898 0.843400
vt 0.817224 0.937128
vt 0.807674 0.942642
vt 0.796647 0.942642
vt 0.787097 0.937128
vt 0.781583 0.927578
vt 0.781583 0.916551
vt 0.787097 0.907001
vt 0.796647 0.901487
vt 0.807674 0.901487
vt 0.817224 0.907001
vt 0.822738 0.916551
vt 0.822738 0.927578
vt 0.897289 0.840371
vt 0.889538 0.887346
vn -0.255800 0.152700 0.954600
vn -0.698800 0.152700 0.698800
vn -0.954600 0.152700 0.255800
vn -0.954600 0.152700 -0.255800
vn -0.698800 0.152700 -0.698800
vn -0.255800 0.152700 -0.954600
vn 0.255800 0.152700 -0.954600
vn 0.698800 0.152700 -0.698800
vn 0.954600 0.152700 -0.255800
vn 0.954600 0.152700 0.255800
vn 0.000000 1.000000 0.000000
vn 0.255800 0.152700 0.954600
vn 0.698800 0.152700 0.698800
usemtl turret
s 1
f 79/137/42 80/138/42 81/139/42 82/140/42
f 82/140/43 81/139/43 83/141/43 84/142/43
f 84/142/44 83/141/44 85/143/44 86/144/44
f 86/144/45 85/143/45 87/145/45 88/146/45
f 88/146/46 87/145/46 89/147/46 90/148/46
f 90/148/47 89/147/47 91/149/47 92/150/47
f 92/150/48 91/149/48 93/151/48 94/152/48
f 94/153/49 93/154/49 95/155/49 96/156/49
f 96/156/50 95/155/50 97/157/50 98/158/50
f 98/158/51 97/157/51 99/159/51 100/160/51
f 81/161/52 80/162/52 101/163/52 99/164/52 97/165/52 95/166/52 93/167/52 91/168/52 89/169/52 87/170/52 85/171/52 83/172/52
f 102/173/53 101/174/53 80/138/53 79/137/53
f 100/160/54 99/159/54 101/174/54 102/173/54
