# Blender v2.76 (sub 0) OBJ File: 'tank.blend'
# www.blender.org
mtllib spawnPoint_tank.mtl
o body_Cube.001
v -7.015693 0.992522 3.660000
v -6.961880 3.270000 3.660000
v 5.865318 0.501304 3.660000
v 4.484332 3.270000 3.660000
v -7.532846 1.950000 3.660000
v 7.212390 1.950000 1.830000
v 4.484332 3.270000 1.830000
v 7.212390 1.950000 3.660000
v -7.532846 1.950000 1.886212
v -7.015693 0.992522 2.012828
v 6.777628 3.020833 3.748847
v 6.777628 3.020833 1.918847
v -7.218607 1.027136 2.012828
v -7.218607 1.027136 3.660000
v -3.576547 5.577609 1.996613
v -4.369507 3.357377 2.005038
v -3.576547 5.577609 -0.002471
v 2.261890 3.357377 2.005038
v 0.115406 5.587777 1.916625
v 2.261890 3.357377 0.005039
v 0.115406 5.587777 -0.003042
v 5.865318 0.501304 1.646544
v -6.287782 0.178657 2.012828
v -6.287782 0.178657 3.660000
v 4.481261 0.056135 3.660000
v 4.481261 0.056135 1.646544
v -6.431188 0.986962 1.944725
v 4.669184 0.752018 1.675550
v -4.369507 4.067678 2.005038
v 2.485581 4.067678 0.005039
v 2.485581 4.067678 2.005038
v -0.045747 3.357377 2.572483
v 0.031436 4.067678 2.572483
v 2.485581 4.067678 0.955195
v 0.115406 5.587777 1.041536
v 1.044368 4.970919 1.016286
v 2.075031 4.324090 0.005039
v 2.071606 4.326285 0.985741
v 1.575023 5.038358 0.833347
v 1.581871 5.033967 -0.003363
v 0.566557 5.087402 0.855583
v 4.586557 5.087402 0.855583
v 0.566557 4.952212 0.899509
v 4.586557 4.952211 0.899509
v 0.566557 4.868659 1.014509
v 4.586557 4.868659 1.014509
v 0.566557 4.868659 1.156657
v 4.586557 4.868659 1.156657
v 0.566557 4.952212 1.271657
v 4.586557 4.952211 1.271657
v 0.566557 5.087402 1.315583
v 4.586557 5.087402 1.315583
v 0.566557 5.222593 1.271657
v 4.586557 5.222593 1.271657
v 0.566557 5.306146 1.156657
v 4.586557 5.306146 1.156657
v 0.566557 5.306146 1.014509
v 4.586557 5.306146 1.014509
v 0.566557 5.222593 0.899509
v 4.586557 5.222593 0.899509
v 1.828451 4.679028 0.005039
v 1.823315 4.682322 0.904958
v 1.825932 4.680644 0.393154
v 1.655222 4.924630 0.266901
v 1.991226 4.459727 0.322163
v 1.625197 4.995043 -0.006684
v 2.036572 4.357320 0.005039
v 8.137849 5.053011 0.387328
v 8.085972 5.346235 0.261075
v 8.194545 4.782989 0.316337
v -7.015693 0.992522 -3.660000
v -6.961880 3.270000 -3.660000
v 5.865318 0.501304 -3.660000
v 4.484332 3.270000 -3.660000
v -7.532846 1.950000 -3.660000
v 7.212390 1.950000 -1.830000
v 4.484332 3.270000 -1.830000
v 7.212390 1.950000 -3.660000
v -6.961880 3.270000 0.000000
v -6.311731 0.992522 0.000000
v 4.484332 3.270000 0.000000
v 4.702737 0.760570 0.000000
v 7.212390 1.950000 0.000000
v -7.532846 1.950000 0.000000
v -7.532846 1.950000 -1.886212
v -7.015693 0.992522 -2.012828
v 6.777628 3.020833 -3.748847
v 6.777628 3.020833 -1.918847
v -7.218607 1.027136 -2.012828
v -7.218607 1.027136 -3.660000
v -3.576547 5.577609 -1.996613
v -4.369507 3.357377 -2.005038
v -4.369507 3.357377 0.000000
v -3.576547 5.577609 0.002471
v 2.261890 3.357377 -2.005038
v 0.115406 5.587777 -1.916625
v 2.261890 3.357377 -0.005039
v 0.115406 5.587777 0.003042
v 5.865318 0.501304 -1.646544
v -6.287782 0.178657 -2.012828
v -6.287782 0.178657 -3.660000
v 4.481261 0.056135 -3.660000
v 4.481261 0.056135 -1.646544
v -6.431188 0.986962 -1.944725
v 4.669184 0.752018 -1.675550
v -4.369507 4.067678 0.000000
v -4.369507 4.067678 -2.005038
v 2.485581 4.067678 -0.005039
v 2.485581 4.067678 -2.005038
v -0.045747 3.357377 -2.572483
v 0.031436 4.067678 -2.572483
v 2.485581 4.067678 -0.955195
v 0.115406 5.587777 -1.041536
v 1.051215 4.966527 0.000000
v 1.044368 4.970919 -1.016286
v 2.075031 4.324090 -0.005039
v 2.071606 4.326285 -0.985741
v 1.575023 5.038358 -0.833347
v 1.581871 5.033967 0.003363
v 0.566557 5.087402 -0.855583
v 4.586557 5.087402 -0.855583
v 0.566557 4.952212 -0.899509
v 4.586557 4.952211 -0.899509
v 0.566557 4.868659 -1.014509
v 4.586557 4.868659 -1.014509
v 0.566557 4.868659 -1.156657
v 4.586557 4.868659 -1.156657
v 0.566557 4.952212 -1.271657
v 4.586557 4.952211 -1.271657
v 0.566557 5.087402 -1.315583
v 4.586557 5.087402 -1.315583
v 0.566557 5.222593 -1.271657
v 4.586557 5.222593 -1.271657
v 0.566557 5.306146 -1.156657
v 4.586557 5.306146 -1.156657
v 0.566557 5.306146 -1.014509
v 4.586557 5.306146 -1.014509
v 0.566557 5.222593 -0.899509
v 4.586557 5.222593 -0.899509
v 1.828451 4.679028 -0.005039
v 1.823315 4.682322 -0.904958
v 1.825932 4.680644 -0.393154
v 1.655222 4.924630 -0.266901
v 1.991226 4.459727 -0.322163
v 1.625197 4.995043 0.006684
v 2.036572 4.357320 -0.005039
v 8.088446 5.422742 0.000000
v 8.139451 5.050484 0.000000
v 8.137849 5.053011 -0.387328
v 8.085972 5.346235 -0.261075
v 8.194545 4.782989 -0.316337
v 8.192467 4.671011 0.000000
vn 0.001900 0.123900 -0.992300
vn -0.000000 0.000000 1.000000
vn -0.917800 0.397000 0.000000
vn 0.000000 1.000000 0.000000
vn -0.021200 -0.999800 -0.004800
vn 0.435600 0.900200 0.000000
vn -0.031000 -0.023700 -0.999200
vn 0.108000 0.994100 0.000000
vn 0.049600 0.102600 -0.993500
vn 0.926500 0.376200 0.000000
vn -0.129000 0.007000 0.991600
vn -0.049600 -0.102600 0.993500
vn -0.946600 -0.322300 0.000000
vn 0.953800 -0.300400 0.000000
vn -0.024600 -0.144100 -0.989300
vn -0.168200 -0.985800 0.000000
vn 0.732300 -0.681000 0.000000
vn -1.000000 0.000000 0.000000
vn -0.002800 1.000000 0.000000
vn -0.011400 -0.999900 0.000000
vn -0.058800 0.230000 0.971400
vn 0.306200 -0.952000 0.000000
vn -0.745400 -0.666700 0.000000
vn 0.539600 0.841900 -0.009500
vn 0.427200 -0.904200 0.001900
vn -0.885300 0.464900 0.000000
vn -0.636800 -0.770800 -0.021000
vn -0.115400 -0.191200 -0.974700
vn 0.208600 0.377700 0.902100
vn 0.231600 -0.049000 0.971600
vn 0.529800 0.848100 -0.000000
vn 0.553100 0.833100 0.000100
vn 0.812600 0.582700 0.011600
vn -0.000800 -0.012700 -0.999900
vn -0.127000 0.991900 -0.005600
vn 0.266000 0.375500 0.887800
vn 0.826100 0.563600 0.003800
vn 0.646500 0.748200 -0.149200
vn -0.063300 0.961500 0.267500
vn 0.819600 0.572900 0.001600
vn 0.852600 0.522600 0.001800
vn 0.668700 0.734500 0.115600
vn 0.001200 -0.016600 -0.999900
vn 0.987300 0.157200 0.024100
vn 0.985100 0.169500 -0.028200
vn -0.025100 0.416700 0.908700
vn -0.000800 -0.000300 -1.000000
vn 0.016000 -0.271100 0.962400
vn 0.049000 -0.945100 0.323200
vn 0.001900 0.123900 0.992300
vn 0.000000 0.000000 -1.000000
vn -0.021200 -0.999800 0.004800
vn -0.031000 -0.023700 0.999200
vn 0.049600 0.102600 0.993500
vn -0.129000 0.007000 -0.991600
vn -0.049600 -0.102600 -0.993500
vn -0.024600 -0.144100 0.989300
vn -0.058800 0.230000 -0.971400
vn 0.539600 0.841900 0.009500
vn 0.427200 -0.904200 -0.001900
vn -0.636800 -0.770800 0.021000
vn -0.115400 -0.191200 0.974700
vn 0.208600 0.377700 -0.902100
vn 0.231600 -0.049000 -0.971600
vn 0.553100 0.833100 -0.000100
vn 0.812600 0.582700 -0.011600
vn -0.000800 -0.012700 0.999900
vn -0.127000 0.991900 0.005600
vn 0.266000 0.375500 -0.887800
vn 0.826100 0.563600 -0.003800
vn 0.646500 0.748200 0.149200
vn -0.063300 0.961500 -0.267500
vn 0.819600 0.572900 -0.001600
vn 0.852600 0.522600 -0.001800
vn 0.668700 0.734500 -0.115600
vn 0.001200 -0.016600 0.999900
vn 0.987300 0.157200 -0.024100
vn 0.985100 0.169500 0.028200
vn -0.025100 0.416700 -0.908700
vn -0.000800 -0.000300 1.000000
vn 0.016000 -0.271100 -0.962400
vn 0.049000 -0.945100 -0.323200
usemtl None
s off
f 6//1 22//1 28//1
f 8//2 5//2 1//2 3//2
f 4//2 2//2 5//2 8//2
f 2//3 79//3 84//3 9//3 5//3
f 4//4 7//4 81//4 79//4 2//4
f 27//5 80//5 82//5 28//5
f 81//6 7//6 6//6 83//6
f 10//7 27//7 28//7 22//7 26//7 23//7
f 7//8 4//8 11//8 12//8
f 6//9 7//9 12//9
f 8//10 6//10 12//10 11//10
f 33//11 29//11 16//11 32//11
f 4//12 8//12 11//12
f 5//13 9//13 13//13 14//13
f 30//14 34//14 31//14 18//14 20//14
f 9//15 10//15 13//15
f 10//16 1//16 14//16 13//16
f 1//2 5//2 14//2
f 6//17 8//17 3//17 22//17
f 29//18 106//18 93//18 16//18
f 19//19 35//19 21//19 17//19 15//19
f 3//2 1//2 24//2 25//2
f 24//20 23//20 26//20 25//20
f 19//21 15//21 29//21 33//21
f 22//22 3//22 25//22 26//22
f 1//23 10//23 23//23 24//23
f 35//24 19//24 31//24 34//24 38//24 36//24
f 83//25 6//25 28//25 82//25
f 15//26 17//26 106//26 29//26
f 9//27 84//27 80//27 27//27
f 10//28 9//28 27//28
f 31//29 19//29 33//29
f 31//30 33//30 32//30 18//30
f 37//31 38//31 34//31 30//31
f 21//32 35//32 36//32 114//32
f 63//33 62//33 38//33 65//33
f 37//34 114//34 40//34 66//34 61//34 67//34
f 114//35 36//35 39//35 40//35
f 36//36 38//36 62//36 39//36
f 40//37 39//37 64//37
f 67//38 65//38 37//38
f 66//39 64//39 69//39 147//39
f 39//40 62//40 63//40 64//40
f 65//41 38//41 37//41
f 66//42 40//42 64//42
f 61//43 66//43 147//43 148//43
f 148//44 147//44 69//44 68//44
f 148//45 68//45 70//45 152//45
f 64//46 63//46 68//46 69//46
f 67//47 61//47 148//47 152//47
f 63//48 65//48 70//48 68//48
f 65//49 67//49 152//49 70//49
f 76//50 105//50 99//50
f 78//51 73//51 71//51 75//51
f 74//51 78//51 75//51 72//51
f 72//3 75//3 85//3 84//3 79//3
f 74//4 72//4 79//4 81//4 77//4
f 104//52 105//52 82//52 80//52
f 81//6 83//6 76//6 77//6
f 86//53 100//53 103//53 99//53 105//53 104//53
f 77//8 88//8 87//8 74//8
f 76//54 88//54 77//54
f 78//10 87//10 88//10 76//10
f 111//55 110//55 92//55 107//55
f 74//56 87//56 78//56
f 75//13 90//13 89//13 85//13
f 108//14 97//14 95//14 109//14 112//14
f 85//57 89//57 86//57
f 86//16 89//16 90//16 71//16
f 71//51 90//51 75//51
f 76//17 99//17 73//17 78//17
f 107//18 92//18 93//18 106//18
f 96//19 91//19 94//19 98//19 113//19
f 73//51 102//51 101//51 71//51
f 101//20 102//20 103//20 100//20
f 96//58 111//58 107//58 91//58
f 99//22 103//22 102//22 73//22
f 71//23 101//23 100//23 86//23
f 113//59 115//59 117//59 112//59 109//59 96//59
f 83//60 82//60 105//60 76//60
f 91//26 107//26 106//26 94//26
f 85//61 104//61 80//61 84//61
f 86//62 104//62 85//62
f 109//63 111//63 96//63
f 109//64 95//64 110//64 111//64
f 116//31 108//31 112//31 117//31
f 98//65 114//65 115//65 113//65
f 142//66 144//66 117//66 141//66
f 116//67 146//67 140//67 145//67 119//67 114//67
f 114//68 119//68 118//68 115//68
f 115//69 118//69 141//69 117//69
f 119//70 143//70 118//70
f 146//71 116//71 144//71
f 145//72 147//72 150//72 143//72
f 118//73 143//73 142//73 141//73
f 144//74 116//74 117//74
f 145//75 143//75 119//75
f 140//76 148//76 147//76 145//76
f 148//77 149//77 150//77 147//77
f 148//78 152//78 151//78 149//78
f 143//79 150//79 149//79 142//79
f 146//80 152//80 148//80 140//80
f 142//81 149//81 151//81 144//81
f 144//82 151//82 152//82 146//82
l 20 93
l 97 93
