# Blender v2.76 (sub 0) OBJ File: ''
# www.blender.org
mtllib lw.mtl
o lw_b_DrawCall_8_DrawCall_8.000
v 0.359452 0.363045 -0.060130
v 0.359356 0.362854 -0.199139
v 0.232076 0.458506 -0.199338
v 0.232182 0.458696 -0.060332
v 0.081942 0.509414 -0.199449
v 0.082045 0.509604 -0.060443
v -0.076356 0.510595 -0.199461
v -0.076257 0.510786 -0.060448
v -0.227332 0.461935 -0.199361
v -0.227224 0.462125 -0.060356
v -0.356192 0.368194 -0.199173
v -0.356087 0.368384 -0.060170
v -0.450328 0.238550 -0.198915
v -0.450223 0.238741 -0.059908
v -0.500528 0.085694 -0.198598
v -0.500429 0.085885 -0.059592
v -0.501879 -0.075412 -0.198272
v -0.501777 -0.075222 -0.059263
v -0.454247 -0.228998 -0.197953
v -0.454144 -0.228808 -0.058944
v -0.362289 -0.360031 -0.197683
v -0.362190 -0.359841 -0.058674
v -0.235016 -0.455682 -0.197479
v -0.234913 -0.455493 -0.058475
v -0.084876 -0.506590 -0.197376
v -0.084779 -0.506400 -0.058364
v 0.073420 -0.507772 -0.197362
v 0.073525 -0.507582 -0.058358
v 0.224393 -0.459110 -0.197459
v 0.224492 -0.458920 -0.058452
v 0.353253 -0.365371 -0.197646
v 0.353352 -0.365180 -0.058634
v 0.447391 -0.235727 -0.197911
v 0.447494 -0.235536 -0.058901
v 0.497592 -0.082870 -0.198218
v 0.497697 -0.082680 -0.059214
v 0.498945 0.078236 -0.198554
v 0.499042 0.078426 -0.059541
v 0.451310 0.231822 -0.198869
v 0.451410 0.232013 -0.059857
v 0.359356 0.362854 -0.199139
v 0.359452 0.363045 -0.060130
v 0.359657 0.363423 0.216371
v 0.359557 0.363233 0.077361
v 0.232281 0.458884 0.077162
v 0.232381 0.459074 0.216172
v 0.082144 0.509792 0.077051
v 0.082249 0.509982 0.216058
v -0.076157 0.510974 0.077043
v -0.076052 0.511164 0.216052
v -0.227127 0.462313 0.077140
v -0.227025 0.462502 0.216149
v -0.355988 0.368572 0.077327
v -0.355882 0.368762 0.216334
v -0.450126 0.238929 0.077586
v -0.450024 0.239119 0.216598
v -0.500329 0.086072 0.077902
v -0.500224 0.086262 0.216906
v -0.501680 -0.075034 0.078231
v -0.501575 -0.074844 0.217238
v -0.454042 -0.228620 0.078547
v -0.453942 -0.228430 0.217556
v -0.362090 -0.359653 0.078820
v -0.361985 -0.359463 0.217827
v -0.234814 -0.455305 0.079022
v -0.234712 -0.455114 0.218029
v -0.084674 -0.506212 0.079127
v -0.084575 -0.506023 0.218137
v 0.073624 -0.507394 0.079136
v 0.073727 -0.507203 0.218145
v 0.224594 -0.458732 0.079045
v 0.224694 -0.458542 0.218051
v 0.353458 -0.364992 0.078854
v 0.353554 -0.364802 0.217866
v 0.447596 -0.235349 0.078593
v 0.447698 -0.235159 0.217599
v 0.497794 -0.082492 0.078283
v 0.497896 -0.082302 0.217289
v 0.499144 0.078614 0.077950
v 0.499247 0.078804 0.216959
v 0.451509 0.232201 0.077634
v 0.451614 0.232391 0.216644
v 0.359557 0.363233 0.077361
v 0.359657 0.363423 0.216371
v -0.001467 0.001412 -0.198411
v 0.451310 0.231822 -0.198869
v 0.498945 0.078236 -0.198554
v 0.359356 0.362854 -0.199139
v 0.232076 0.458506 -0.199338
v 0.081942 0.509414 -0.199449
v -0.076356 0.510595 -0.199461
v -0.227332 0.461935 -0.199361
v -0.356192 0.368194 -0.199173
v -0.450328 0.238550 -0.198915
v -0.500528 0.085694 -0.198598
v -0.501879 -0.075412 -0.198272
v -0.454247 -0.228998 -0.197953
v -0.362289 -0.360031 -0.197683
v -0.235016 -0.455682 -0.197479
v -0.084876 -0.506590 -0.197376
v 0.073420 -0.507772 -0.197362
v 0.224393 -0.459110 -0.197459
v 0.353253 -0.365371 -0.197646
v 0.447391 -0.235727 -0.197911
v 0.497592 -0.082870 -0.198218
v -0.001367 0.001602 -0.059402
v 0.359452 0.363045 -0.060130
v 0.232182 0.458696 -0.060332
v 0.451410 0.232013 -0.059857
v 0.499042 0.078426 -0.059541
v 0.497697 -0.082680 -0.059214
v 0.447494 -0.235536 -0.058901
v 0.353352 -0.365180 -0.058634
v 0.224492 -0.458920 -0.058452
v 0.073525 -0.507582 -0.058358
v -0.084779 -0.506400 -0.058364
v -0.234913 -0.455493 -0.058475
v -0.362190 -0.359841 -0.058674
v -0.454144 -0.228808 -0.058944
v -0.501777 -0.075222 -0.059263
v -0.500429 0.085885 -0.059592
v -0.450223 0.238741 -0.059908
v -0.356087 0.368384 -0.060170
v -0.227224 0.462125 -0.060356
v -0.076257 0.510786 -0.060448
v 0.082045 0.509604 -0.060443
v -0.001120 0.002058 0.273515
v 0.359657 0.363423 0.216371
v 0.232381 0.459074 0.216172
v 0.451614 0.232391 0.216644
v 0.499247 0.078804 0.216959
v 0.497896 -0.082302 0.217289
v 0.447698 -0.235159 0.217599
v 0.353554 -0.364802 0.217866
v 0.224694 -0.458542 0.218051
v 0.073727 -0.507203 0.218145
v -0.084575 -0.506023 0.218137
v -0.234712 -0.455114 0.218029
v -0.361985 -0.359463 0.217827
v -0.453942 -0.228430 0.217556
v -0.501575 -0.074844 0.217238
v -0.500224 0.086262 0.216906
v -0.450024 0.239119 0.216598
v -0.355882 0.368762 0.216334
v -0.227025 0.462502 0.216149
v -0.076052 0.511164 0.216052
v 0.082249 0.509982 0.216058
vt 0.481201 0.030273
vt 0.481201 0.002441
vt 0.495361 0.002441
vt 0.495361 0.030273
vt 0.509766 0.002441
vt 0.509766 0.030273
vt 0.523926 0.002441
vt 0.523926 0.030273
vt 0.538086 0.002441
vt 0.538086 0.030273
vt 0.552246 0.002441
vt 0.552246 0.030273
vt 0.566894 0.002441
vt 0.566894 0.030273
vt 0.581055 0.002441
vt 0.581055 0.030273
vt 0.595215 0.002441
vt 0.595215 0.030273
vt 0.609375 0.002441
vt 0.609375 0.030273
vt 0.623535 0.002441
vt 0.623535 0.030273
vt 0.638184 0.002441
vt 0.638184 0.030273
vt 0.652344 0.002441
vt 0.652344 0.030273
vt 0.666504 0.002441
vt 0.666504 0.030273
vt 0.680664 0.002441
vt 0.680664 0.030273
vt 0.695312 0.002441
vt 0.695312 0.030273
vt 0.709473 0.002441
vt 0.709473 0.030273
vt 0.723633 0.002441
vt 0.723633 0.030273
vt 0.737793 0.002441
vt 0.737793 0.030273
vt 0.752441 0.002441
vt 0.752441 0.030273
vt 0.766602 0.002441
vt 0.766602 0.030273
vt 0.738281 0.030273
vt 0.738281 0.002441
vt 0.694824 0.030273
vt 0.694824 0.002441
vt 0.651855 0.030273
vt 0.651855 0.002441
vt 0.637695 0.030273
vt 0.637695 0.002441
vt 0.623047 0.030273
vt 0.623047 0.002441
vt 0.608887 0.030273
vt 0.608887 0.002441
vt 0.594727 0.030273
vt 0.594727 0.002441
vt 0.580078 0.030273
vt 0.580078 0.002441
vt 0.565918 0.030273
vt 0.565918 0.002441
vt 0.551758 0.030273
vt 0.551758 0.002441
vt 0.537109 0.030273
vt 0.537109 0.002441
vt 0.522949 0.030273
vt 0.522949 0.002441
vt 0.508301 0.030273
vt 0.508301 0.002441
vt 0.494141 0.030273
vt 0.494141 0.002441
vt 0.479980 0.030273
vt 0.479980 0.002441
vt 0.936523 0.124512
vt 0.997070 0.125000
vt 0.994141 0.163086
vt 0.994141 0.087402
vt 0.985352 0.053223
vt 0.972168 0.026367
vt 0.955078 0.008789
vt 0.936523 0.002930
vt 0.917969 0.008789
vt 0.900879 0.026367
vt 0.887695 0.053223
vt 0.878906 0.087402
vt 0.875977 0.125000
vt 0.878906 0.163086
vt 0.887695 0.196777
vt 0.900879 0.224121
vt 0.917969 0.241211
vt 0.936523 0.247559
vt 0.955078 0.241211
vt 0.972168 0.224121
vt 0.985352 0.196777
vt 0.936523 0.124023
vt 0.993652 0.162598
vt 0.993652 0.086914
vt 0.971680 0.025879
vt 0.936523 0.002441
vt 0.917480 0.008789
vt 0.900879 0.025879
vt 0.887207 0.053223
vt 0.878906 0.086914
vt 0.878906 0.162598
vt 0.887207 0.196777
vt 0.900879 0.223633
vt 0.917480 0.241211
vt 0.936523 0.247070
vt 0.971680 0.223633
vt 0.985840 0.197754
vt 0.997559 0.125000
vt 0.994141 0.086914
vt 0.985840 0.052734
vt 0.972168 0.025391
vt 0.955078 0.007813
vt 0.936523 0.001953
vt 0.917480 0.007813
vt 0.900391 0.025391
vt 0.887207 0.052734
vt 0.878418 0.086914
vt 0.875488 0.125000
vt 0.878418 0.163086
vt 0.887207 0.197754
vt 0.900391 0.224609
vt 0.917480 0.242188
vt 0.936523 0.248535
vt 0.955078 0.242188
vt 0.972168 0.224609
vn 0.600800 0.799400 -0.001500
vn 0.321100 0.947000 -0.001500
vn 0.007500 1.000000 -0.001400
vn -0.306800 0.951800 -0.001100
vn -0.588300 0.808700 -0.000600
vn -0.588300 0.808700 -0.000700
vn -0.809200 0.587600 -0.000200
vn -0.950100 0.312000 0.000300
vn -0.950100 0.312100 0.000200
vn -1.000000 0.008400 0.000700
vn -0.955100 -0.296200 0.001100
vn -0.818500 -0.574400 0.001400
vn -0.818600 -0.574400 0.001400
vn -0.600800 -0.799400 0.001500
vn -0.321100 -0.947000 0.001500
vn -0.007500 -1.000000 0.001400
vn 0.306800 -0.951800 0.001100
vn 0.588300 -0.808700 0.000700
vn 0.809200 -0.587600 0.000200
vn 0.950100 -0.312000 -0.000300
vn 1.000000 -0.008400 -0.000700
vn 1.000000 -0.008300 -0.000700
vn 0.955100 0.296200 -0.001100
vn 0.818600 0.574400 -0.001400
vn 0.818500 0.574400 -0.001400
vn 0.000000 -0.002100 -1.000000
vn 0.000000 -0.002000 -1.000000
vn 0.000100 -0.002100 -1.000000
vn -0.000000 0.002100 1.000000
vn -0.000000 0.002000 1.000000
vn -0.000100 0.002000 1.000000
vn 0.066600 0.090700 0.993700
vn 0.091200 0.066100 0.993600
vn 0.106900 0.035200 0.993600
vn 0.112100 0.001100 0.993700
vn 0.106400 -0.032900 0.993800
vn 0.090300 -0.063500 0.993900
vn 0.065200 -0.087700 0.994000
vn 0.033900 -0.103100 0.994100
vn -0.000900 -0.108200 0.994100
vn -0.035500 -0.102500 0.994100
vn -0.066700 -0.086600 0.994000
vn -0.091300 -0.062000 0.993900
vn -0.107000 -0.031100 0.993800
vn -0.112200 0.003000 0.993700
vn -0.106500 0.037000 0.993600
vn -0.090300 0.067600 0.993600
vn -0.065300 0.091700 0.993600
vn -0.033900 0.107200 0.993700
vn 0.000800 0.112300 0.993700
vn 0.035400 0.106600 0.993700
usemtl Material_#5936
s 1
f 1/1/1 2/2/1 3/3/1
f 4/4/1 1/1/1 3/3/1
f 4/4/2 3/3/2 5/5/2
f 6/6/2 4/4/2 5/5/2
f 6/6/3 5/5/3 7/7/3
f 8/8/3 6/6/3 7/7/3
f 8/8/4 7/7/4 9/9/4
f 10/10/4 8/8/4 9/9/4
f 10/10/5 9/9/5 11/11/5
f 12/12/6 10/10/6 11/11/6
f 12/12/7 11/11/7 13/13/7
f 14/14/7 12/12/7 13/13/7
f 14/14/8 13/13/8 15/15/8
f 16/16/9 14/14/9 15/15/9
f 16/16/10 15/15/10 17/17/10
f 18/18/10 16/16/10 17/17/10
f 18/18/11 17/17/11 19/19/11
f 20/20/11 18/18/11 19/19/11
f 20/20/12 19/19/12 21/21/12
f 22/22/13 20/20/13 21/21/13
f 22/22/14 21/21/14 23/23/14
f 24/24/14 22/22/14 23/23/14
f 24/24/15 23/23/15 25/25/15
f 26/26/15 24/24/15 25/25/15
f 26/26/16 25/25/16 27/27/16
f 28/28/16 26/26/16 27/27/16
f 28/28/17 27/27/17 29/29/17
f 30/30/17 28/28/17 29/29/17
f 30/30/18 29/29/18 31/31/18
f 32/32/18 30/30/18 31/31/18
f 32/32/19 31/31/19 33/33/19
f 34/34/19 32/32/19 33/33/19
f 34/34/20 33/33/20 35/35/20
f 36/36/20 34/34/20 35/35/20
f 36/36/21 35/35/21 37/37/21
f 38/38/22 36/36/22 37/37/22
f 38/38/23 37/37/23 39/39/23
f 40/40/23 38/38/23 39/39/23
f 40/40/24 39/39/24 41/41/24
f 42/42/25 40/40/25 41/41/25
f 43/41/1 44/42/1 45/40/1
f 46/39/1 43/41/1 45/40/1
f 46/39/2 45/40/2 47/43/2
f 48/44/2 46/39/2 47/43/2
f 48/44/3 47/43/3 49/36/3
f 50/35/3 48/44/3 49/36/3
f 50/35/4 49/36/4 51/34/4
f 52/33/4 50/35/4 51/34/4
f 52/33/6 51/34/6 53/45/6
f 54/46/6 52/33/6 53/45/6
f 54/46/7 53/45/7 55/30/7
f 56/29/7 54/46/7 55/30/7
f 56/29/8 55/30/8 57/28/8
f 58/27/8 56/29/8 57/28/8
f 58/27/10 57/28/10 59/47/10
f 60/48/10 58/27/10 59/47/10
f 60/48/11 59/47/11 61/49/11
f 62/50/11 60/48/11 61/49/11
f 62/50/13 61/49/13 63/51/13
f 64/52/12 62/50/12 63/51/12
f 64/52/14 63/51/14 65/53/14
f 66/54/14 64/52/14 65/53/14
f 66/54/15 65/53/15 67/55/15
f 68/56/15 66/54/15 67/55/15
f 68/56/16 67/55/16 69/57/16
f 70/58/16 68/56/16 69/57/16
f 70/58/17 69/57/17 71/59/17
f 72/60/17 70/58/17 71/59/17
f 72/60/18 71/59/18 73/61/18
f 74/62/18 72/60/18 73/61/18
f 74/62/19 73/61/19 75/63/19
f 76/64/19 74/62/19 75/63/19
f 76/64/20 75/63/20 77/65/20
f 78/66/20 76/64/20 77/65/20
f 78/66/21 77/65/21 79/67/21
f 80/68/21 78/66/21 79/67/21
f 80/68/23 79/67/23 81/69/23
f 82/70/23 80/68/23 81/69/23
f 82/70/24 81/69/24 83/71/24
f 84/72/25 82/70/25 83/71/25
f 85/73/26 86/74/27 87/75/26
f 85/73/26 88/76/27 86/74/27
f 85/73/26 89/77/27 88/76/27
f 85/73/26 90/78/28 89/77/27
f 85/73/26 91/79/26 90/78/28
f 85/73/26 92/80/26 91/79/26
f 85/73/26 93/81/27 92/80/26
f 85/73/26 94/82/26 93/81/27
f 85/73/26 95/83/26 94/82/26
f 85/73/26 96/84/27 95/83/26
f 85/73/26 97/85/26 96/84/27
f 85/73/26 98/86/26 97/85/26
f 85/73/26 99/87/26 98/86/26
f 85/73/26 100/88/27 99/87/26
f 85/73/26 101/89/26 100/88/27
f 85/73/26 102/90/26 101/89/26
f 85/73/26 103/91/26 102/90/26
f 85/73/26 104/92/27 103/91/26
f 85/73/26 105/93/26 104/92/27
f 85/73/26 87/75/26 105/93/26
f 106/94/29 107/95/29 108/93/29
f 106/94/29 109/74/29 107/95/29
f 106/94/29 110/96/30 109/74/29
f 106/94/29 111/77/30 110/96/30
f 106/94/29 112/97/29 111/77/30
f 106/94/29 113/79/29 112/97/29
f 106/94/29 114/98/31 113/79/29
f 106/94/29 115/99/30 114/98/31
f 106/94/29 116/100/30 115/99/30
f 106/94/29 117/101/30 116/100/30
f 106/94/29 118/102/30 117/101/30
f 106/94/29 119/85/29 118/102/30
f 106/94/29 120/103/29 119/85/29
f 106/94/29 121/104/29 120/103/29
f 106/94/29 122/105/29 121/104/29
f 106/94/29 123/106/29 122/105/29
f 106/94/29 124/107/30 123/106/29
f 106/94/29 125/91/30 124/107/30
f 106/94/29 126/108/29 125/91/30
f 106/94/29 108/93/29 126/108/29
f 127/73/32 128/75/32 129/109/32
f 127/73/33 130/110/33 128/75/33
f 127/73/34 131/111/34 130/110/34
f 127/73/35 132/112/35 131/111/35
f 127/73/36 133/113/36 132/112/36
f 127/73/37 134/114/37 133/113/37
f 127/73/38 135/115/38 134/114/38
f 127/73/39 136/116/39 135/115/39
f 127/73/40 137/117/40 136/116/40
f 127/73/41 138/118/41 137/117/41
f 127/73/42 139/119/42 138/118/42
f 127/73/43 140/120/43 139/119/43
f 127/73/44 141/121/44 140/120/44
f 127/73/45 142/122/45 141/121/45
f 127/73/46 143/123/46 142/122/46
f 127/73/47 144/124/47 143/123/47
f 127/73/48 145/125/48 144/124/48
f 127/73/49 146/126/49 145/125/49
f 127/73/50 147/127/50 146/126/50
f 127/73/51 129/109/51 147/127/51
