# Blender v2.76 (sub 0) OBJ File: 'side_wheel.blend'
# www.blender.org
mtllib rw_s.mtl
o rw_s_DrawCall_8_DrawCall_8.003
v 0.001797 -0.149457 0.069959
v -0.103014 -0.105308 0.069862
v -0.103130 -0.105527 -0.090052
v 0.001683 -0.149676 -0.089960
v 0.106673 -0.105212 0.069871
v 0.001797 -0.149457 0.069959
v 0.001683 -0.149676 -0.089960
v 0.106557 -0.105431 -0.090045
v 0.150182 0.001509 0.069650
v 0.106673 -0.105212 0.069871
v 0.106557 -0.105431 -0.090045
v 0.150068 0.001290 -0.090270
v 0.106836 0.108189 0.069424
v 0.150182 0.001509 0.069650
v 0.150068 0.001290 -0.090270
v 0.106713 0.107970 -0.090484
v 0.002016 0.152338 0.069340
v 0.106836 0.108189 0.069424
v 0.106713 0.107970 -0.090484
v 0.001905 0.152119 -0.090580
v -0.102852 0.108092 0.069419
v 0.002016 0.152338 0.069340
v 0.001905 0.152119 -0.090580
v -0.102971 0.107874 -0.090491
v -0.146355 0.001372 0.069633
v -0.102852 0.108092 0.069419
v -0.102971 0.107874 -0.090491
v -0.146472 0.001153 -0.090281
v -0.103014 -0.105308 0.069862
v -0.146355 0.001372 0.069633
v -0.146472 0.001153 -0.090281
v -0.103130 -0.105527 -0.090052
v -0.192073 -0.195150 0.174321
v -0.251942 -0.103897 0.174142
v -0.252013 -0.104042 0.068208
v -0.192153 -0.195295 0.068398
v -0.102422 -0.256101 0.174449
v -0.102499 -0.256246 0.068521
v 0.003361 -0.277470 0.174497
v 0.003290 -0.277615 0.068563
v 0.109179 -0.256004 0.174451
v 0.109099 -0.256149 0.068528
v 0.198909 -0.194970 0.174337
v 0.198830 -0.195115 0.068413
v 0.258903 -0.103661 0.174156
v 0.258832 -0.103807 0.068221
v 0.280027 0.004021 0.173935
v 0.279955 0.003876 0.067999
v 0.259063 0.111685 0.173709
v 0.258989 0.111540 0.067777
v 0.199200 0.202939 0.173522
v 0.199123 0.202794 0.067593
v 0.109554 0.263889 0.173390
v 0.109477 0.263744 0.067463
v 0.003768 0.285258 0.173343
v 0.003694 0.285113 0.067415
v -0.102044 0.263792 0.173383
v -0.102121 0.263647 0.067454
v -0.191783 0.202758 0.173508
v -0.191860 0.202613 0.067578
v -0.251783 0.111450 0.173693
v -0.251854 0.111304 0.067762
v -0.272898 0.003766 0.173905
v -0.272977 0.003621 0.067983
v -0.251942 -0.103897 0.174142
v -0.252013 -0.104042 0.068208
v -0.192264 -0.195509 -0.087386
v -0.252130 -0.104255 -0.087572
v -0.252209 -0.104400 -0.193498
v -0.192338 -0.195653 -0.193315
v -0.102613 -0.256459 -0.087258
v -0.102695 -0.256604 -0.193184
v 0.003171 -0.277828 -0.087213
v 0.003091 -0.277973 -0.193136
v 0.108983 -0.256362 -0.087250
v 0.108903 -0.256506 -0.193176
v 0.198722 -0.195329 -0.087376
v 0.198642 -0.195473 -0.193300
v 0.258713 -0.104019 -0.087552
v 0.258636 -0.104164 -0.193484
v 0.279844 0.003663 -0.087785
v 0.279762 0.003518 -0.193705
v 0.258872 0.111327 -0.088000
v 0.258798 0.111182 -0.193930
v 0.199012 0.202580 -0.088191
v 0.198926 0.202436 -0.194111
v 0.109364 0.263531 -0.088319
v 0.109278 0.263387 -0.194236
v 0.003577 0.284900 -0.088365
v 0.003498 0.284755 -0.194291
v -0.102235 0.263434 -0.088328
v -0.102314 0.263289 -0.194250
v -0.191968 0.202400 -0.088205
v -0.192051 0.202255 -0.194131
v -0.251968 0.111091 -0.088020
v -0.252048 0.110947 -0.193943
v -0.273094 0.003408 -0.087796
v -0.273165 0.003263 -0.193730
v -0.252130 -0.104255 -0.087572
v -0.252209 -0.104400 -0.193498
v -0.272977 0.003621 0.067983
v -0.251854 0.111304 0.067762
v 0.003489 0.003749 0.067992
v -0.252013 -0.104042 0.068208
v -0.192153 -0.195295 0.068398
v -0.102499 -0.256246 0.068521
v 0.003290 -0.277615 0.068563
v 0.109099 -0.256149 0.068528
v 0.198830 -0.195115 0.068413
v 0.258832 -0.103807 0.068221
v 0.279955 0.003876 0.067999
v 0.258989 0.111540 0.067777
v 0.199123 0.202794 0.067593
v 0.109477 0.263744 0.067463
v 0.003694 0.285113 0.067415
v -0.102121 0.263647 0.067454
v -0.191860 0.202613 0.067578
v -0.273165 0.003263 -0.193730
v -0.252048 0.110947 -0.193943
v 0.003301 0.003390 -0.193725
v -0.252209 -0.104400 -0.193498
v -0.192338 -0.195653 -0.193315
v -0.102695 -0.256604 -0.193184
v 0.003091 -0.277973 -0.193136
v 0.108903 -0.256506 -0.193176
v 0.198642 -0.195473 -0.193300
v 0.258636 -0.104164 -0.193484
v 0.279762 0.003518 -0.193705
v 0.258798 0.111182 -0.193930
v 0.198926 0.202436 -0.194111
v 0.109278 0.263387 -0.194236
v 0.003498 0.284755 -0.194291
v -0.102314 0.263289 -0.194250
v -0.192051 0.202255 -0.194131
vt 0.733887 0.030273
vt 0.770019 0.030273
vt 0.770019 0.001465
vt 0.733887 0.001465
vt 0.697754 0.030273
vt 0.697754 0.001465
vt 0.662109 0.030273
vt 0.662109 0.001465
vt 0.625977 0.030273
vt 0.625977 0.001465
vt 0.589844 0.030273
vt 0.589844 0.001465
vt 0.553711 0.030273
vt 0.553711 0.001465
vt 0.518066 0.030273
vt 0.518066 0.001465
vt 0.481934 0.030273
vt 0.481934 0.001465
vt 0.751953 0.030273
vt 0.751953 0.001465
vt 0.715820 0.030273
vt 0.715820 0.001465
vt 0.679687 0.030273
vt 0.679687 0.001465
vt 0.644043 0.030273
vt 0.644043 0.001465
vt 0.607910 0.030273
vt 0.607910 0.001465
vt 0.571777 0.030273
vt 0.571777 0.001465
vt 0.535644 0.030273
vt 0.535644 0.001465
vt 0.500000 0.030273
vt 0.500000 0.001465
vt 0.939453 0.437988
vt 0.937012 0.413086
vt 0.907227 0.437988
vt 0.937012 0.462402
vt 0.930176 0.483398
vt 0.919434 0.497559
vt 0.907227 0.502197
vt 0.894531 0.497559
vt 0.883789 0.483398
vt 0.876953 0.462402
vt 0.874512 0.437988
vt 0.876953 0.413086
vt 0.883789 0.392090
vt 0.894531 0.377930
vt 0.907227 0.373047
vt 0.919434 0.377930
vt 0.930176 0.392090
vn -0.388200 -0.921600 0.001500
vn 0.388700 -0.921400 0.001000
vn 0.926000 -0.377500 -0.000100
vn 0.926000 -0.377500 -0.000200
vn 0.926400 0.376500 -0.001200
vn 0.926400 0.376400 -0.001200
vn 0.388200 0.921600 -0.001500
vn 0.388200 0.921600 -0.001600
vn -0.388700 0.921400 -0.001000
vn -0.388700 0.921300 -0.001000
vn -0.926000 0.377500 0.000200
vn -0.926500 -0.376400 0.001200
vn -0.836100 -0.548500 0.001300
vn -0.836100 -0.548600 0.001300
vn -0.836200 -0.548500 0.001400
vn -0.562200 -0.827000 0.001500
vn -0.562200 -0.827000 0.001600
vn -0.198000 -0.980200 0.001500
vn 0.198800 -0.980000 0.001200
vn 0.562400 -0.826900 0.000700
vn 0.835700 -0.549100 0.000200
vn 0.835700 -0.549100 0.000100
vn 0.835700 -0.549200 0.000200
vn 0.981300 -0.192500 -0.000400
vn 0.981600 0.191100 -0.000900
vn 0.836100 0.548500 -0.001300
vn 0.836100 0.548500 -0.001400
vn 0.562300 0.827000 -0.001500
vn 0.198000 0.980200 -0.001500
vn -0.198800 0.980000 -0.001200
vn -0.562400 0.826900 -0.000700
vn -0.835700 0.549100 -0.000200
vn -0.835700 0.549200 -0.000100
vn -0.981300 0.192500 0.000400
vn -0.981300 0.192400 0.000400
vn -0.981300 0.192500 0.000500
vn -0.981600 -0.191100 0.001000
vn -0.981600 -0.191100 0.000900
vn -0.836100 -0.548500 0.001400
vn -0.562300 -0.827000 0.001500
vn -0.562300 -0.827000 0.001600
vn 0.835800 -0.549100 0.000100
vn 0.981300 -0.192500 -0.000500
vn 0.981300 -0.192600 -0.000400
vn 0.981600 0.191200 -0.001000
vn 0.836200 0.548500 -0.001300
vn 0.836100 0.548600 -0.001400
vn 0.562200 0.827000 -0.001600
vn -0.835700 0.549100 -0.000100
vn 0.000000 -0.002100 -1.000000
vn 0.000000 -0.002000 -1.000000
vn 0.000100 -0.002000 -1.000000
vn 0.000100 -0.002100 -1.000000
usemtl Material_#5936
s 1
f 1/1/1 2/2/1 3/3/1
f 4/4/1 1/1/1 3/3/1
f 5/5/2 6/1/2 7/4/2
f 8/6/2 5/5/2 7/4/2
f 9/7/3 10/5/4 11/6/3
f 12/8/3 9/7/3 11/6/3
f 13/9/5 14/7/6 15/8/5
f 16/10/5 13/9/5 15/8/5
f 17/11/7 18/9/8 19/10/7
f 20/12/7 17/11/7 19/10/7
f 21/13/9 22/11/10 23/12/9
f 24/14/9 21/13/9 23/12/9
f 25/15/11 26/13/11 27/14/11
f 28/16/11 25/15/11 27/14/11
f 29/17/12 30/15/12 31/16/12
f 32/18/12 29/17/12 31/16/12
f 33/19/13 34/2/14 35/3/13
f 36/20/15 33/19/13 35/3/13
f 37/1/16 33/19/17 36/20/16
f 38/4/16 37/1/16 36/20/16
f 39/21/18 37/1/18 38/4/18
f 40/22/18 39/21/18 38/4/18
f 41/5/19 39/21/19 40/22/19
f 42/6/19 41/5/19 40/22/19
f 43/23/20 41/5/20 42/6/20
f 44/24/20 43/23/20 42/6/20
f 45/7/21 43/23/22 44/24/21
f 46/8/23 45/7/21 44/24/21
f 47/25/24 45/7/24 46/8/24
f 48/26/24 47/25/24 46/8/24
f 49/9/25 47/25/25 48/26/25
f 50/10/25 49/9/25 48/26/25
f 51/27/26 49/9/26 50/10/26
f 52/28/27 51/27/26 50/10/26
f 53/11/28 51/27/28 52/28/28
f 54/12/28 53/11/28 52/28/28
f 55/29/29 53/11/29 54/12/29
f 56/30/29 55/29/29 54/12/29
f 57/13/30 55/29/30 56/30/30
f 58/14/30 57/13/30 56/30/30
f 59/31/31 57/13/31 58/14/31
f 60/32/31 59/31/31 58/14/31
f 61/15/32 59/31/33 60/32/32
f 62/16/32 61/15/32 60/32/32
f 63/33/34 61/15/35 62/16/34
f 64/34/36 63/33/34 62/16/34
f 65/17/37 63/33/37 64/34/37
f 66/18/38 65/17/37 64/34/37
f 67/19/39 68/2/39 69/3/39
f 70/20/14 67/19/39 69/3/39
f 71/1/40 67/19/16 70/20/40
f 72/4/41 71/1/40 70/20/40
f 73/21/18 71/1/18 72/4/18
f 74/22/18 73/21/18 72/4/18
f 75/5/19 73/21/19 74/22/19
f 76/6/19 75/5/19 74/22/19
f 77/23/20 75/5/20 76/6/20
f 78/24/20 77/23/20 76/6/20
f 79/7/42 77/23/42 78/24/42
f 80/8/22 79/7/42 78/24/42
f 81/25/43 79/7/44 80/8/43
f 82/26/43 81/25/43 80/8/43
f 83/9/45 81/25/45 82/26/45
f 84/10/25 83/9/45 82/26/45
f 85/27/27 83/9/46 84/10/27
f 86/28/47 85/27/27 84/10/27
f 87/11/48 85/27/48 86/28/48
f 88/12/48 87/11/48 86/28/48
f 89/29/29 87/11/29 88/12/29
f 90/30/29 89/29/29 88/12/29
f 91/13/30 89/29/30 90/30/30
f 92/14/30 91/13/30 90/30/30
f 93/31/31 91/13/31 92/14/31
f 94/32/31 93/31/31 92/14/31
f 95/15/33 93/31/33 94/32/33
f 96/16/49 95/15/33 94/32/33
f 97/33/34 95/15/36 96/16/34
f 98/34/35 97/33/34 96/16/34
f 99/17/37 97/33/38 98/34/37
f 100/18/37 99/17/37 98/34/37
f 101/35/50 102/36/51 103/37/50
f 104/38/50 101/35/50 103/37/50
f 105/39/51 104/38/50 103/37/50
f 106/40/51 105/39/51 103/37/50
f 107/41/51 106/40/51 103/37/50
f 108/42/52 107/41/51 103/37/50
f 109/43/53 108/42/52 103/37/50
f 110/44/50 109/43/53 103/37/50
f 111/45/50 110/44/50 103/37/50
f 112/46/51 111/45/50 103/37/50
f 113/47/51 112/46/51 103/37/50
f 114/48/50 113/47/51 103/37/50
f 115/49/50 114/48/50 103/37/50
f 116/50/50 115/49/50 103/37/50
f 117/51/51 116/50/50 103/37/50
f 102/36/51 117/51/51 103/37/50
f 118/35/50 119/36/51 120/37/51
f 121/38/50 118/35/50 120/37/51
f 122/39/50 121/38/50 120/37/51
f 123/40/50 122/39/50 120/37/51
f 124/41/50 123/40/50 120/37/51
f 125/42/50 124/41/50 120/37/51
f 126/43/53 125/42/50 120/37/51
f 127/44/53 126/43/53 120/37/51
f 128/45/53 127/44/53 120/37/51
f 129/46/52 128/45/53 120/37/51
f 130/47/51 129/46/52 120/37/51
f 131/48/52 130/47/51 120/37/51
f 132/49/52 131/48/52 120/37/51
f 133/50/51 132/49/52 120/37/51
f 134/51/51 133/50/51 120/37/51
f 119/36/51 134/51/51 120/37/51
