# Blender v2.76 (sub 0) OBJ File: 'HESH.blend'
# www.blender.org
mtllib HESH.mtl
o Cylinder01
v -0.000000 0.000030 0.035134
v -0.000000 0.020212 0.028576
v -0.000000 0.032685 0.011408
v 0.000000 0.032685 -0.009813
v 0.000000 0.020212 -0.026982
v 0.000000 0.000030 -0.033539
v 0.000000 -0.020153 -0.026982
v 0.000000 -0.032626 -0.009813
v -0.000000 -0.032626 0.011408
v -0.000000 -0.020153 0.028576
v -0.008749 0.000030 0.043845
v -0.008749 0.025332 0.035624
v -0.008749 0.040970 0.014100
v -0.008749 0.040970 -0.012505
v -0.008749 0.025332 -0.034029
v -0.008749 0.000030 -0.042251
v -0.008749 -0.025273 -0.034029
v -0.008749 -0.040911 -0.012505
v -0.008749 -0.040911 0.014100
v -0.008749 -0.025273 0.035624
v -0.059518 0.000030 0.043845
v -0.059518 0.025332 0.035623
v -0.059518 0.040970 0.014100
v -0.059518 0.040970 -0.012505
v -0.059518 0.025332 -0.034029
v -0.059518 0.000030 -0.042251
v -0.059518 -0.025273 -0.034029
v -0.059518 -0.040911 -0.012505
v -0.059518 -0.040911 0.014100
v -0.059518 -0.025273 0.035624
v -0.152601 0.000030 0.043845
v -0.152601 0.025332 0.035623
v -0.152601 0.040970 0.014100
v -0.152601 0.040970 -0.012505
v -0.152601 0.025332 -0.034029
v -0.152601 0.000030 -0.042251
v -0.152601 -0.025273 -0.034029
v -0.152601 -0.040911 -0.012505
v -0.152601 -0.040911 0.014100
v -0.152601 -0.025273 0.035624
v -0.223586 0.000030 0.008756
v -0.223586 0.004708 0.007236
v -0.223586 0.007599 0.003257
v -0.223586 0.007599 -0.001662
v -0.223586 0.004708 -0.005642
v -0.223586 0.000030 -0.007162
v -0.223586 -0.004649 -0.005642
v -0.223586 -0.007540 -0.001662
v -0.223586 -0.007540 0.003257
v -0.223586 -0.004649 0.007236
v -0.227603 0.000030 0.000797
v 0.000000 0.032685 -0.009813
v -0.008749 0.040970 -0.012505
v 0.000000 0.032685 -0.009813
v -0.008749 0.040970 -0.012505
v -0.059518 0.040970 -0.012505
v -0.008749 0.040970 -0.012505
v -0.059518 0.040970 -0.012505
v -0.152601 0.040970 -0.012505
v -0.059518 0.040970 -0.012505
v -0.152601 0.040970 -0.012505
v -0.223586 0.007599 -0.001662
v -0.152601 0.040970 -0.012505
v -0.223586 0.000030 0.008756
v -0.223586 0.004708 0.007236
v -0.223586 0.004708 0.007236
v -0.223586 0.007599 0.003257
v -0.223586 0.007599 0.003257
v -0.223586 0.007599 -0.001662
v -0.223586 0.007599 -0.001662
v -0.223586 0.004708 -0.005642
v -0.223586 0.004708 -0.005642
v -0.223586 0.000030 -0.007162
v -0.223586 0.000030 -0.007162
v -0.223586 -0.004649 -0.005642
v -0.223586 -0.004649 -0.005642
v -0.223586 -0.007540 -0.001662
v -0.223586 -0.007540 -0.001662
v -0.223586 -0.007540 0.003257
v -0.223586 -0.007540 0.003257
v -0.223586 -0.004649 0.007236
v -0.223586 -0.004649 0.007236
v -0.223586 0.000030 0.008756
v -0.000000 -0.032626 0.011408
v 0.000000 -0.032626 -0.009813
v 0.000000 -0.020153 -0.026982
v 0.000000 -0.020153 -0.026982
v 0.000000 0.000030 -0.033539
v 0.000000 0.020212 -0.026982
v 0.000000 0.020212 -0.026982
v 0.000000 0.032685 -0.009813
v -0.000000 0.032685 0.011408
v -0.000000 0.032685 0.011408
v -0.000000 0.020212 0.028576
v -0.000000 0.000030 0.035134
v 0.000000 0.020212 -0.026982
v -0.000000 0.032685 0.011408
v -0.000000 0.000030 0.035134
v 0.000000 -0.020153 -0.026982
v 0.000000 0.020212 -0.026982
v -0.000000 0.000030 0.035134
v -0.000000 -0.032626 0.011408
v 0.000000 -0.020153 -0.026982
v -0.000000 0.000030 0.035134
v -0.000000 -0.020153 0.028576
v -0.000000 -0.032626 0.011408
v -0.000000 0.000030 0.035134
vt 0.723148 0.377778
vt 0.779630 0.377778
vt 0.779630 0.418518
vt 0.723148 0.418518
vt 0.836111 0.377778
vt 0.836111 0.418518
vt 0.892593 0.377778
vt 0.892593 0.418518
vt 0.327778 0.377778
vt 0.384259 0.377778
vt 0.384259 0.418518
vt 0.327778 0.418518
vt 0.440741 0.377778
vt 0.440741 0.418518
vt 0.497222 0.377778
vt 0.497222 0.418518
vt 0.553704 0.377778
vt 0.553704 0.418518
vt 0.610185 0.377778
vt 0.610185 0.418518
vt 0.666667 0.377778
vt 0.666667 0.418518
vt 0.779630 0.533333
vt 0.723148 0.533333
vt 0.836111 0.533333
vt 0.892593 0.533333
vt 0.384259 0.533333
vt 0.327778 0.533333
vt 0.440741 0.533333
vt 0.497222 0.533333
vt 0.553704 0.533333
vt 0.610185 0.533333
vt 0.666667 0.533333
vt 0.779630 0.716667
vt 0.723148 0.716667
vt 0.836111 0.716667
vt 0.892593 0.716667
vt 0.384259 0.716667
vt 0.327778 0.716667
vt 0.440741 0.716667
vt 0.497222 0.716667
vt 0.553704 0.716667
vt 0.610185 0.716667
vt 0.666667 0.716667
vt 0.779630 0.901852
vt 0.723148 0.901852
vt 0.836111 0.901852
vt 0.892593 0.901852
vt 0.384259 0.901852
vt 0.327778 0.901852
vt 0.440741 0.901852
vt 0.497222 0.901852
vt 0.553704 0.901852
vt 0.610185 0.901852
vt 0.667844 0.900664
vt 0.117981 0.829424
vt 0.130469 0.790991
vt 0.183368 0.829424
vt 0.163162 0.767238
vt 0.203573 0.767238
vt 0.236266 0.790991
vt 0.248754 0.829424
vt 0.236266 0.867857
vt 0.203573 0.891610
vt 0.163162 0.891610
vt 0.130469 0.867857
vt 0.291880 0.518557
vt 0.291880 0.442399
vt 0.247116 0.380786
vt 0.174685 0.357251
vt 0.102255 0.380786
vt 0.057490 0.442399
vt 0.057490 0.518556
vt 0.102255 0.580170
vt 0.174685 0.603704
vt 0.247116 0.580170
vn 0.687600 0.224400 0.690600
vn 0.687600 0.587400 0.426800
vn 0.687600 0.726100 0.000000
vn 0.687600 0.587400 -0.426800
vn 0.687600 0.224400 -0.690600
vn 0.687600 -0.224400 -0.690600
vn 0.687600 -0.587400 -0.426800
vn 0.687600 -0.726100 -0.000000
vn 0.687600 -0.587400 0.426800
vn 0.687600 -0.224400 0.690600
vn -0.000000 0.309000 0.951100
vn -0.000000 0.809000 0.587800
vn -0.000000 1.000000 0.000000
vn 0.000000 0.809000 -0.587800
vn 0.000000 0.309000 -0.951100
vn 0.000000 -0.309000 -0.951100
vn 0.000000 -0.809000 -0.587800
vn 0.000000 -1.000000 0.000000
vn -0.000000 -0.809000 0.587800
vn -0.000000 -0.309000 0.951100
vn -0.425400 0.279700 0.860700
vn -0.425400 0.732100 0.531900
vn -0.425400 0.905000 0.000000
vn -0.425400 0.732100 -0.531900
vn -0.425400 0.279700 -0.860700
vn -0.425400 -0.279700 -0.860700
vn -0.425400 -0.732100 -0.531900
vn -0.425400 -0.905000 0.000000
vn -0.425400 -0.732100 0.531900
vn -0.425400 -0.279700 0.860700
vn -0.883300 0.144900 0.445800
vn -0.883300 0.379300 0.275500
vn -0.883300 0.468800 0.000000
vn -0.883300 0.379300 -0.275500
vn -0.883300 0.144900 -0.445800
vn -0.883300 -0.144900 -0.445800
vn -0.883300 -0.379300 -0.275500
vn -0.883300 -0.468800 -0.000000
vn -0.883300 -0.379300 0.275500
vn -0.883300 -0.144900 0.445800
vn 1.000000 0.000000 0.000000
usemtl 02_-_Default
s off
f 1/1/1 2/2/1 12/3/1
f 1/1/1 12/3/1 11/4/1
f 2/2/2 3/5/2 13/6/2
f 13/6/2 12/3/2 2/2/2
f 3/5/3 4/7/3 14/8/3
f 14/8/3 13/6/3 3/5/3
f 52/9/4 5/10/4 15/11/4
f 15/11/4 53/12/4 54/9/4
f 5/10/5 6/13/5 16/14/5
f 16/14/5 15/11/5 5/10/5
f 6/13/6 7/15/6 17/16/6
f 17/16/6 16/14/6 6/13/6
f 7/15/7 8/17/7 18/18/7
f 18/18/7 17/16/7 7/15/7
f 8/17/8 9/19/8 19/20/8
f 19/20/8 18/18/8 8/17/8
f 9/19/9 10/21/9 20/22/9
f 20/22/9 19/20/9 9/19/9
f 10/21/10 1/1/10 11/4/10
f 11/4/10 20/22/10 10/21/10
f 11/4/11 12/3/11 22/23/11
f 22/23/11 21/24/11 11/4/11
f 12/3/12 13/6/12 23/25/12
f 23/25/12 22/23/12 12/3/12
f 13/6/13 14/8/13 24/26/13
f 24/26/13 23/25/13 13/6/13
f 55/12/14 15/11/14 25/27/14
f 25/27/14 56/28/14 57/12/14
f 15/11/15 16/14/15 26/29/15
f 26/29/15 25/27/15 15/11/15
f 16/14/16 17/16/16 27/30/16
f 27/30/16 26/29/16 16/14/16
f 17/16/17 18/18/17 28/31/17
f 28/31/17 27/30/17 17/16/17
f 18/18/18 19/20/18 29/32/18
f 29/32/18 28/31/18 18/18/18
f 19/20/19 20/22/19 30/33/19
f 30/33/19 29/32/19 19/20/19
f 20/22/20 11/4/20 21/24/20
f 21/24/20 30/33/20 20/22/20
f 21/24/11 22/23/11 32/34/11
f 32/34/11 31/35/11 21/24/11
f 22/23/12 23/25/12 33/36/12
f 33/36/12 32/34/12 22/23/12
f 23/25/13 24/26/13 34/37/13
f 34/37/13 33/36/13 23/25/13
f 58/28/14 25/27/14 35/38/14
f 35/38/14 59/39/14 60/28/14
f 25/27/15 26/29/15 36/40/15
f 36/40/15 35/38/15 25/27/15
f 26/29/16 27/30/16 37/41/16
f 37/41/16 36/40/16 26/29/16
f 27/30/17 28/31/17 38/42/17
f 38/42/17 37/41/17 27/30/17
f 28/31/18 29/32/18 39/43/18
f 39/43/18 38/42/18 28/31/18
f 29/32/19 30/33/19 40/44/19
f 40/44/19 39/43/19 29/32/19
f 30/33/20 21/24/20 31/35/20
f 31/35/20 40/44/20 30/33/20
f 31/35/21 32/34/21 42/45/21
f 42/45/21 41/46/21 31/35/21
f 32/34/22 33/36/22 43/47/22
f 43/47/22 42/45/22 32/34/22
f 33/36/23 34/37/23 44/48/23
f 44/48/23 43/47/23 33/36/23
f 61/39/24 35/38/24 45/49/24
f 45/49/24 62/50/24 63/39/24
f 35/38/25 36/40/25 46/51/25
f 46/51/25 45/49/25 35/38/25
f 36/40/26 37/41/26 47/52/26
f 47/52/26 46/51/26 36/40/26
f 37/41/27 38/42/27 48/53/27
f 48/53/27 47/52/27 37/41/27
f 38/42/28 39/43/28 49/54/28
f 49/54/28 48/53/28 38/42/28
f 39/43/29 40/44/29 50/55/29
f 50/55/29 49/54/29 39/43/29
f 40/44/30 31/35/30 41/46/30
f 41/46/30 50/55/30 40/44/30
f 64/56/31 65/57/31 51/58/31
f 66/57/32 67/59/32 51/58/32
f 68/59/33 69/60/33 51/58/33
f 70/60/34 71/61/34 51/58/34
f 72/61/35 73/62/35 51/58/35
f 74/62/36 75/63/36 51/58/36
f 76/63/37 77/64/37 51/58/37
f 78/64/38 79/65/38 51/58/38
f 80/65/39 81/66/39 51/58/39
f 82/66/40 83/56/40 51/58/40
f 84/67/41 85/68/41 86/69/41
f 87/69/41 88/70/41 89/71/41
f 90/71/41 91/72/41 92/73/41
f 93/73/41 94/74/41 95/75/41
f 96/71/41 97/73/41 98/75/41
f 99/69/41 100/71/41 101/75/41
f 102/67/41 103/69/41 104/75/41
f 105/76/41 106/67/41 107/75/41
